{
.appVersion = "1176";
classes = (
{
automatic = 1;

glyphs = (
{
glyphname = A;
layers = (
{
anchors = (
{
name = bottom;
position = "{219, 0}";
},
{
name = ogonek;
position = "{447, 0}";
},
{
name = top;
position = "{337, 597}";
}
);
layerId = "9A6463FA-02C3-4660-BEDA-F7CC218AE705";
paths = (
{
closed = 1;
nodes = (
"119 0 LINE",
"123 29 LINE",
"72 26 LINE",
"58 26 OFFCURVE",
"58 41 QCURVE SMOOTH",
"58 58 OFFCURVE",
"79 96 QCURVE SMOOTH",
"139 208 LINE",
"361 208 LINE",
"392 90 LINE",
"396 77 OFFCURVE",
"396 58 QCURVE SMOOTH",
"396 26 OFFCURVE",
"369 27 QCURVE SMOOTH",
"316 29 LINE",
"312 0 LINE",
"571 0 LINE",
"575 29 LINE",
"541 27 LINE",
"536 27 LINE SMOOTH",
"517 27 OFFCURVE",
"497 61 OFFCURVE",
"486 102 QCURVE SMOOTH",
"355 607 LINE",
"326 607 LINE",
"53 104 LINE SMOOTH",
"32 65 OFFCURVE",
"1 27 OFFCURVE",
"-16 27 QCURVE",
"-47 29 LINE",
"-51 0 LINE"
);
},
{
closed = 1;
nodes = (
"288 484 LINE",
"353 236 LINE",
"154 236 LINE"
);
}
);
userData = {
assembly = "NPUSHB[ ]\011/* 53 values pushed */
33 1 8 6 1 74 0 8 0 2 1 8 2 101 0 6 6 17 75 9 7 5 3 4 1 1 0 93 4 1 0 0 21 0 76 0 0 32 31 0 30 0 28 19 33 17 36 20 33 17 10 7 27 
CALL[ ]\011/* CallFunction */";
};
width = 580;
},
{
anchors = (
{
name = bottom;
position = "{231, 0}";
},
{
name = ogonek;
position = "{459, 0}";
},
{
name = top;
position = "{345, 597}";
}
);
layerId = "EC024578-EFD3-4C50-A1DE-0E38CDD8AD0F";
paths = (
{
closed = 1;
nodes = (
"133 0 LINE",
"137 37 LINE",
"91 34 LINE SMOOTH",
"73 33 OFFCURVE",
"73 49 QCURVE SMOOTH",
"73 68 OFFCURVE",
"93 104 QCURVE SMOOTH",
"137 186 LINE",
"355 186 LINE",
"380 98 LINE SMOOTH",
"386 74 OFFCURVE",
"386 63 QCURVE",
"384 32 OFFCURVE",
"354 35 QCURVE",
"307 37 LINE",
"302 0 LINE",
"601 0 LINE",
"606 37 LINE",
"580 35 LINE",
"575 35 LINE SMOOTH",
"554 35 OFFCURVE",
"532 70 OFFCURVE",
"521 110 QCURVE SMOOTH",
"379 607 LINE",
"330 607 LINE",
"62 112 LINE SMOOTH",
"43 76 OFFCURVE",
"10 35 OFFCURVE",
"-9 35 QCURVE",
"-43 37 LINE",
"-47 0 LINE"
);
},
{
closed = 1;
nodes = (
"280 451 LINE",
"345 221 LINE",
"156 221 LINE"
);
}
);
userData = {
assembly = "NPUSHB[ ]\011/* 53 values pushed */
33 1 8 6 1 74 0 8 0 2 1 8 2 102 0 6 6 17 75 9 7 5 3 4 1 1 0 93 4 1 0 0 21 0 76 0 0 32 31 0 30 0 28 19 33 17 36 21 17 17 10 7 27 
CALL[ ]\011/* CallFunction */";
};
width = 608;
}
);
leftKerningGroup = A;
note = A;
rightKerningGroup = A;
unicode = 0041;
},
{
glyphname = AE;
layers = (
{
anchors = (
{
name = top;
position = "{457, 597}";
}
);
layerId = "9A6463FA-02C3-4660-BEDA-F7CC218AE705";
paths = (
{
closed = 1;
nodes = (
"770 171 LINE",
"741 171 LINE",
"722 27 OFFCURVE",
"587 27 QCURVE SMOOTH",
"523 27 LINE SMOOTH",
"509 27 OFFCURVE",
"506 46 QCURVE",
"496 297 LINE",
"571 297 LINE SMOOTH",
"597 297 OFFCURVE",
"629 254 OFFCURVE",
"629 219 QCURVE SMOOTH",
"629 211 OFFCURVE",
"627 195 QCURVE",
"656 195 LINE",
"689 426 LINE",
"660 426 LINE",
"653 381 OFFCURVE",
"605 324 OFFCURVE",
"575 324 QCURVE SMOOTH",
"496 324 LINE",
"487 569 LINE",
"643 569 LINE SMOOTH",
"704 569 OFFCURVE",
"763 523 OFFCURVE",
"763 474 QCURVE SMOOTH",
"763 454 OFFCURVE",
"761 443 QCURVE",
"789 443 LINE",
"811 599 LINE",
"795 597 OFFCURVE",
"777 597 QCURVE SMOOTH",
"327 597 LINE",
"322 565 LINE",
"373 567 LINE",
"378 567 OFFCURVE",
"386 557 OFFCURVE",
"386 552 QCURVE SMOOTH",
"386 548 OFFCURVE",
"383 543 QCURVE",
"49 86 LINE SMOOTH",
"27 56 OFFCURVE",
"-2 27 OFFCURVE",
"-12 27 QCURVE",
"-47 30 LINE",
"-51 0 LINE",
"121 0 LINE",
"125 30 LINE",
"71 27 LINE",
"60 27 OFFCURVE",
"60 39 QCURVE SMOOTH",
"60 56 OFFCURVE",
"77 80 QCURVE SMOOTH",
"168 208 LINE",
"403 208 LINE",
"409 47 LINE",
"407 39 OFFCURVE",
"396 27 OFFCURVE",
"388 27 QCURVE SMOOTH",
"330 30 LINE",
"326 0 LINE",
"660 0 LINE SMOOTH",
"710 0 OFFCURVE",
"746 -3 QCURVE"
);
},
{
closed = 1;
nodes = (
"390 511 LINE",
"401 236 LINE",
"188 236 LINE"
);
}
);
userData = {
assembly = "NPUSHB[ ]\011/* 16 values pushed */
65 1 0 1 49 38 22 3 6 7 2 74 64 1 15 72 
MPPEM[ ]\011/* MeasurePixelPerEm */
PUSHB[ ]\011/* 1 value pushed */
10 
LT[ ]\011/* LessThan */
IF[ ]\011/* If */
NPUSHB[ ]\011/* 69 values pushed */
0 0 1 3 1 0 112 0 4 10 7 10 4 7 126 0 7 6 10 7 6 124 0 2 0 5 16 2 5 101 0 16 0 10 4 16 10 101 14 1 1 1 15 93 0 15 15 17 75 0 3 3 20 75 13 11 9 3 6 6 8 93 12 1 8 8 21 8 76 
ELSE[ ]\011/* Else */
NPUSHB[ ]\011/* 70 values pushed */
0 0 1 3 1 0 3 126 0 4 10 7 10 4 7 126 0 7 6 10 7 6 124 0 2 0 5 16 2 5 101 0 16 0 10 4 16 10 101 14 1 1 1 15 93 0 15 15 17 75 0 3 3 20 75 13 11 9 3 6 6 8 93 12 1 8 8 21 8 76 
EIF[ ]\011/* EndIf */
NPUSHB[ ]\011/* 28 values pushed */
67 66 63 61 60 58 51 50 48 47 46 44 40 39 36 33 34 17 50 36 17 18 33 36 16 17 7 29 
CALL[ ]\011/* CallFunction */";
};
width = 818;
},
{
anchors = (
{
name = top;
position = "{467, 597}";
}
);
layerId = "EC024578-EFD3-4C50-A1DE-0E38CDD8AD0F";
paths = (
{
closed = 1;
nodes = (
"796 171 LINE",
"761 171 LINE",
"744 34 OFFCURVE",
"603 34 QCURVE SMOOTH",
"560 34 LINE SMOOTH",
"544 34 OFFCURVE",
"542 53 QCURVE",
"529 289 LINE",
"585 289 LINE SMOOTH",
"613 289 OFFCURVE",
"647 244 OFFCURVE",
"647 209 QCURVE SMOOTH",
"647 197 OFFCURVE",
"646 191 QCURVE",
"680 191 LINE",
"713 426 LINE",
"677 426 LINE",
"670 381 OFFCURVE",
"621 324 OFFCURVE",
"589 324 QCURVE SMOOTH",
"529 324 LINE",
"519 562 LINE",
"657 562 LINE SMOOTH",
"721 562 OFFCURVE",
"783 517 OFFCURVE",
"783 469 QCURVE SMOOTH",
"783 461 OFFCURVE",
"781 443 QCURVE",
"815 443 LINE",
"837 599 LINE",
"819 597 OFFCURVE",
"795 597 QCURVE SMOOTH",
"329 597 LINE",
"324 558 LINE",
"375 560 LINE",
"380 560 OFFCURVE",
"390 551 OFFCURVE",
"390 545 QCURVE SMOOTH",
"390 542 OFFCURVE",
"386 536 QCURVE",
"57 94 LINE SMOOTH",
"32 60 OFFCURVE",
"2 33 OFFCURVE",
"-11 35 QCURVE",
"-42 38 LINE",
"-47 0 LINE",
"138 0 LINE",
"143 38 LINE",
"91 35 LINE SMOOTH",
"75 34 OFFCURVE",
"75 46 QCURVE SMOOTH",
"75 63 OFFCURVE",
"94 88 QCURVE SMOOTH",
"165 186 LINE",
"392 186 LINE",
"398 58 LINE",
"398 49 OFFCURVE",
"384 34 OFFCURVE",
"373 35 QCURVE",
"317 38 LINE",
"311 0 LINE",
"677 0 LINE SMOOTH",
"733 0 OFFCURVE",
"772 -3 QCURVE"
);
},
{
closed = 1;
nodes = (
"379 472 LINE",
"390 221 LINE",
"192 221 LINE"
);
}
);
userData = {
assembly = "NPUSHB[ ]\011/* 15 values pushed */
65 1 0 1 49 22 2 6 7 2 74 64 1 14 72 
MPPEM[ ]\011/* MeasurePixelPerEm */
PUSHB[ ]\011/* 1 value pushed */
10 
LT[ ]\011/* LessThan */
IF[ ]\011/* If */
NPUSHB[ ]\011/* 65 values pushed */
0 0 1 3 1 0 112 0 7 4 6 4 7 6 126 0 2 0 5 15 2 5 103 0 15 4 4 15 85 13 1 1 1 14 93 0 14 14 17 75 10 1 4 4 3 93 0 3 3 20 75 11 9 2 6 6 8 93 12 1 8 8 21 8 76 
ELSE[ ]\011/* Else */
MPPEM[ ]\011/* MeasurePixelPerEm */
PUSHB[ ]\011/* 1 value pushed */
45 
LT[ ]\011/* LessThan */
IF[ ]\011/* If */
NPUSHB[ ]\011/* 66 values pushed */
0 0 1 3 1 0 3 126 0 7 4 6 4 7 6 126 0 2 0 5 15 2 5 103 0 15 4 4 15 85 13 1 1 1 14 93 0 14 14 17 75 10 1 4 4 3 93 0 3 3 20 75 11 9 2 6 6 8 93 12 1 8 8 21 8 76 
ELSE[ ]\011/* Else */
NPUSHB[ ]\011/* 67 values pushed */
0 0 1 3 1 0 3 126 0 7 10 6 10 7 6 126 0 2 0 5 15 2 5 103 0 15 0 10 7 15 10 101 13 1 1 1 14 93 0 14 14 17 75 0 4 4 3 93 0 3 3 20 75 11 9 2 6 6 8 93 12 1 8 8 21 8 76 
EIF[ ]\011/* EndIf */
EIF[ ]\011/* EndIf */
NPUSHB[ ]\011/* 26 values pushed */
67 66 63 61 60 58 48 47 46 44 40 39 35 34 34 18 50 36 17 18 33 36 16 16 7 29 
CALL[ ]\011/* CallFunction */";
};
width = 846;
}
);
leftKerningGroup = AE;
note = AE;
unicode = 00C6;
},
{
glyphname = B;
layers = (
{
layerId = "9A6463FA-02C3-4660-BEDA-F7CC218AE705";
paths = (
{
closed = 1;
nodes = (
"272 0 LINE SMOOTH",
"391 0 OFFCURVE",
"511 92 OFFCURVE",
"511 180 QCURVE SMOOTH",
"511 239 OFFCURVE",
"429 317 OFFCURVE",
"366 317 QCURVE",
"435 329 OFFCURVE",
"521 414 OFFCURVE",
"521 476 QCURVE SMOOTH",
"521 536 OFFCURVE",
"444 597 OFFCURVE",
"370 597 QCURVE SMOOTH",
"102 597 LINE",
"98 567 LINE",
"149 569 LINE",
"160 569 OFFCURVE",
"160 552 QCURVE SMOOTH",
"160 549 LINE",
"90 49 LINE SMOOTH",
"87 27 OFFCURVE",
"72 27 QCURVE",
"22 29 LINE",
"18 0 LINE"
);
},
{
closed = 1;
nodes = (
"181 28 OFFCURVE",
"181 37 QCURVE",
"182 41 LINE",
"218 299 LINE",
"316 299 LINE SMOOTH",
"415 299 OFFCURVE",
"415 191 QCURVE SMOOTH",
"415 115 OFFCURVE",
"329 28 OFFCURVE",
"260 28 QCURVE SMOOTH",
"192 28 LINE SMOOTH"
);
},
{
closed = 1;
nodes = (
"254 557 LINE",
"257 569 OFFCURVE",
"266 569 QCURVE SMOOTH",
"322 569 LINE SMOOTH",
"372 569 OFFCURVE",
"425 517 OFFCURVE",
"425 471 QCURVE SMOOTH",
"425 403 OFFCURVE",
"359 327 OFFCURVE",
"294 327 QCURVE SMOOTH",
"222 327 LINE"
);
}
);
userData = {
assembly = "NPUSHB[ ]\011/* 76 values pushed */
17 1 6 3 1 74 0 0 6 8 6 0 112 0 6 11 1 8 2 6 8 101 10 5 2 3 3 4 93 9 1 4 4 17 75 7 1 2 2 1 93 0 1 1 21 1 76 35 35 25 24 0 0 35 45 35 44 41 38 29 27 24 34 25 33 0 23 0 22 36 33 36 21 12 7 24 
CALL[ ]\011/* CallFunction */";
};
width = 555;
},
{
background = {
paths = (
{
closed = 1;
nodes = (
"92 597 LINE",
"87 560 LINE",
"135 562 LINE",
"141 562 OFFCURVE",
"148 552 OFFCURVE",
"148 545 QCURVE SMOOTH",
"148 542 LINE",
"80 57 LINE SMOOTH",
"77 35 OFFCURVE",
"61 35 QCURVE",
"13 37 LINE",
"8 0 LINE",
"302 0 LINE SMOOTH",
"423 0 OFFCURVE",
"546 92 OFFCURVE",
"546 179 QCURVE SMOOTH",
"546 239 OFFCURVE",
"462 317 OFFCURVE",
"397 317 QCURVE",
"468 329 OFFCURVE",
"555 413 OFFCURVE",
"555 476 QCURVE SMOOTH",
"555 536 OFFCURVE",
"476 597 OFFCURVE",
"401 597 QCURVE SMOOTH"
);
},
{
closed = 1;
nodes = (
"338 562 LINE SMOOTH",
"375 562 OFFCURVE",
"415 519 OFFCURVE",
"415 475 QCURVE SMOOTH",
"415 403 OFFCURVE",
"363 329 OFFCURVE",
"307 329 QCURVE SMOOTH",
"256 329 LINE",
"287 550 LINE",
"290 562 OFFCURVE",
"301 562 QCURVE SMOOTH"
);
},
{
closed = 1;
nodes = (
"326 294 LINE SMOOTH",
"366 294 OFFCURVE",
"405 247 OFFCURVE",
"405 197 QCURVE SMOOTH",
"405 117 OFFCURVE",
"335 36 OFFCURVE",
"277 36 QCURVE SMOOTH",
"228 36 LINE SMOOTH",
"216 36 OFFCURVE",
"216 45 QCURVE",
"217 49 LINE",
"251 294 LINE"
);
}
);
};
layerId = "EC024578-EFD3-4C50-A1DE-0E38CDD8AD0F";
paths = (
{
closed = 1;
nodes = (
"302 0 LINE SMOOTH",
"423 0 OFFCURVE",
"546 92 OFFCURVE",
"546 179 QCURVE SMOOTH",
"546 239 OFFCURVE",
"462 317 OFFCURVE",
"397 317 QCURVE",
"468 329 OFFCURVE",
"555 413 OFFCURVE",
"555 476 QCURVE SMOOTH",
"555 536 OFFCURVE",
"476 597 OFFCURVE",
"401 597 QCURVE SMOOTH",
"92 597 LINE",
"87 560 LINE",
"135 562 LINE",
"148 562 OFFCURVE",
"148 545 QCURVE SMOOTH",
"148 542 LINE",
"80 57 LINE SMOOTH",
"77 35 OFFCURVE",
"61 35 QCURVE",
"13 37 LINE",
"8 0 LINE"
);
},
{
closed = 1;
nodes = (
"216 36 OFFCURVE",
"216 45 QCURVE",
"217 49 LINE",
"251 294 LINE",
"326 294 LINE SMOOTH",
"405 294 OFFCURVE",
"405 197 QCURVE SMOOTH",
"405 117 OFFCURVE",
"335 36 OFFCURVE",
"277 36 QCURVE SMOOTH",
"228 36 LINE SMOOTH"
);
},
{
closed = 1;
nodes = (
"287 550 LINE",
"290 562 OFFCURVE",
"301 562 QCURVE SMOOTH",
"338 562 LINE SMOOTH",
"375 562 OFFCURVE",
"415 519 OFFCURVE",
"415 475 QCURVE SMOOTH",
"415 403 OFFCURVE",
"363 329 OFFCURVE",
"307 329 QCURVE SMOOTH",
"256 329 LINE"
);
}
);
userData = {
assembly = "NPUSHB[ ]\011/* 77 values pushed */
17 1 6 3 1 74 0 0 6 8 6 0 8 126 0 6 11 1 8 2 6 8 101 10 5 2 3 3 4 93 9 1 4 4 17 75 7 1 2 2 1 94 0 1 1 21 1 76 36 36 26 25 0 0 36 47 36 46 42 39 30 28 25 35 26 34 0 24 0 23 37 33 36 21 12 7 24 
CALL[ ]\011/* CallFunction */";
};
width = 577;
}
);
note = B;
rightKerningGroup = B;
unicode = 0042;
},
{
glyphname = C;
layers = (
{
anchors = (
{
name = bottom;
position = "{279, 0}";
},
{
name = top;
position = "{370, 597}";
}
);
layerId = "9A6463FA-02C3-4660-BEDA-F7CC218AE705";
paths = (
{
closed = 1;
nodes = (
"334 -10 OFFCURVE",
"390 3 OFFCURVE",
"426 16 QCURVE SMOOTH",
"453 26 OFFCURVE",
"489 35 OFFCURVE",
"509 35 QCURVE SMOOTH",
"516 35 LINE",
"516 47 LINE SMOOTH",
"516 66 OFFCURVE",
"524 108 OFFCURVE",
"538 167 QCURVE",
"507 167 LINE",
"484 102 OFFCURVE",
"372 17 OFFCURVE",
"305 17 QCURVE SMOOTH",
"233 17 OFFCURVE",
"150 139 OFFCURVE",
"150 240 QCURVE SMOOTH",
"150 335 OFFCURVE",
"208 492 OFFCURVE",
"313 582 OFFCURVE",
"380 582 QCURVE SMOOTH",
"422 582 OFFCURVE",
"493 542 OFFCURVE",
"537 474 OFFCURVE",
"540 433 QCURVE",
"566 433 LINE",
"565 434 OFFCURVE",
"565 448 QCURVE SMOOTH",
"565 464 OFFCURVE",
"576 532 OFFCURVE",
"584 564 QCURVE",
"561 564 OFFCURVE",
"529 573 OFFCURVE",
"508 582 QCURVE SMOOTH",
"481 594 OFFCURVE",
"432 607 OFFCURVE",
"388 607 QCURVE SMOOTH",
"285 607 OFFCURVE",
"132 518 OFFCURVE",
"49 355 OFFCURVE",
"49 245 QCURVE SMOOTH",
"49 126 OFFCURVE",
"180 -10 OFFCURVE",
"297 -10 QCURVE SMOOTH"
);
}
);
userData = {
assembly = "NPUSHB[ ]\011/* 48 values pushed */
0 1 0 2 5 1 2 103 0 5 0 6 4 5 6 103 0 3 3 0 95 0 0 0 25 75 0 4 4 7 95 0 7 7 26 7 76 36 36 18 37 35 36 20 34 8 7 28 
CALL[ ]\011/* CallFunction */";
};
width = 585;
},
{
anchors = (
{
name = bottom;
position = "{279, 0}";
},
{
name = top;
position = "{370, 597}";
}
);
layerId = "EC024578-EFD3-4C50-A1DE-0E38CDD8AD0F";
paths = (
{
closed = 1;
nodes = (
"342 -10 OFFCURVE",
"404 4 OFFCURVE",
"441 16 QCURVE SMOOTH",
"471 25 OFFCURVE",
"512 35 OFFCURVE",
"532 35 QCURVE SMOOTH",
"538 35 LINE",
"538 49 LINE SMOOTH",
"538 72 OFFCURVE",
"546 121 OFFCURVE",
"558 167 QCURVE",
"522 167 LINE",
"501 106 OFFCURVE",
"396 25 OFFCURVE",
"334 25 QCURVE SMOOTH",
"265 25 OFFCURVE",
"188 137 OFFCURVE",
"188 238 QCURVE SMOOTH",
"188 340 OFFCURVE",
"240 492 OFFCURVE",
"336 575 OFFCURVE",
"400 575 QCURVE SMOOTH",
"439 575 OFFCURVE",
"506 537 OFFCURVE",
"548 472 OFFCURVE",
"551 433 QCURVE",
"583 433 LINE",
"582 434 OFFCURVE",
"582 450 QCURVE SMOOTH",
"582 466 OFFCURVE",
"591 533 OFFCURVE",
"599 564 QCURVE",
"576 564 OFFCURVE",
"543 573 OFFCURVE",
"518 582 QCURVE",
"488 594 OFFCURVE",
"433 607 OFFCURVE",
"391 607 QCURVE SMOOTH",
"283 607 OFFCURVE",
"124 521 OFFCURVE",
"39 360 OFFCURVE",
"39 251 QCURVE SMOOTH",
"39 129 OFFCURVE",
"181 -10 OFFCURVE",
"308 -10 QCURVE SMOOTH"
);
}
);
userData = {
assembly = "NPUSHB[ ]\011/* 48 values pushed */
0 1 0 2 5 1 2 103 0 5 0 6 4 5 6 103 0 3 3 0 95 0 0 0 25 75 0 4 4 7 95 0 7 7 26 7 76 36 36 18 37 35 36 20 34 8 7 28 
CALL[ ]\011/* CallFunction */";
};
width = 593;
}
);
leftKerningGroup = C;
note = C;
unicode = 0043;
},
{
glyphname = D;
layers = (
{
anchors = (
{
name = center;
position = "{216, 300}";
},
{
name = top;
position = "{359, 597}";
}
);
background = {
paths = (
{
closed = 1;
nodes = (
"102 597 LINE",
"98 567 LINE",
"137 569 LINE",
"151 570 OFFCURVE",
"151 553 QCURVE SMOOTH",
"151 548 LINE",
"81 49 LINE",
"77 27 OFFCURVE",
"65 27 QCURVE",
"22 29 LINE",
"18 0 LINE",
"248 0 LINE SMOOTH",
"419 0 OFFCURVE",
"588 187 OFFCURVE",
"588 362 QCURVE SMOOTH",
"588 486 OFFCURVE",
"456 597 OFFCURVE",
"320 597 QCURVE SMOOTH"
);
},
{
closed = 1;
nodes = (
"300 569 LINE SMOOTH",
"399 569 OFFCURVE",
"487 477 OFFCURVE",
"487 373 QCURVE SMOOTH",
"487 287 OFFCURVE",
"464 202 QCURVE SMOOTH",
"448 143 OFFCURVE",
"395 68 OFFCURVE",
"300 28 OFFCURVE",
"224 28 QCURVE SMOOTH",
"180 28 LINE SMOOTH",
"171 28 OFFCURVE",
"171 37 QCURVE",
"172 41 LINE",
"244 556 LINE",
"245 569 OFFCURVE",
"256 569 QCURVE SMOOTH"
);
}
);
};
layerId = "9A6463FA-02C3-4660-BEDA-F7CC218AE705";
paths = (
{
closed = 1;
nodes = (
"248 0 LINE SMOOTH",
"419 0 OFFCURVE",
"588 187 OFFCURVE",
"588 362 QCURVE SMOOTH",
"588 486 OFFCURVE",
"456 597 OFFCURVE",
"320 597 QCURVE SMOOTH",
"102 597 LINE",
"98 567 LINE",
"137 569 LINE",
"151 570 OFFCURVE",
"151 553 QCURVE SMOOTH",
"151 548 LINE",
"81 49 LINE",
"77 27 OFFCURVE",
"65 27 QCURVE",
"22 29 LINE",
"18 0 LINE"
);
},
{
closed = 1;
nodes = (
"171 28 OFFCURVE",
"171 37 QCURVE",
"172 41 LINE",
"244 556 LINE",
"245 569 OFFCURVE",
"256 569 QCURVE SMOOTH",
"300 569 LINE SMOOTH",
"399 569 OFFCURVE",
"487 477 OFFCURVE",
"487 373 QCURVE SMOOTH",
"487 289 OFFCURVE",
"464 202 QCURVE SMOOTH",
"440 112 OFFCURVE",
"333 28 OFFCURVE",
"224 28 QCURVE SMOOTH",
"180 28 LINE SMOOTH"
);
}
);
userData = {
assembly = "NPUSHB[ ]\011/* 51 values pushed */
11 1 1 2 1 74 7 4 2 2 2 3 93 6 1 3 3 17 75 5 1 1 1 0 93 0 0 0 21 0 76 20 19 0 0 27 24 19 35 20 34 0 18 0 17 37 33 36 8 7 23 
CALL[ ]\011/* CallFunction */";
};
width = 613;
},
{
anchors = (
{
name = center;
position = "{220, 300}";
},
{
name = top;
position = "{379, 597}";
}
);
background = {
paths = (
{
closed = 1;
nodes = (
"92 597 LINE",
"87 560 LINE",
"123 562 LINE",
"138 562 OFFCURVE",
"138 545 QCURVE SMOOTH",
"138 541 LINE",
"70 57 LINE SMOOTH",
"67 35 OFFCURVE",
"53 35 QCURVE SMOOTH",
"13 37 LINE",
"8 0 LINE",
"262 0 LINE SMOOTH",
"381 0 OFFCURVE",
"542 90 OFFCURVE",
"620 244 OFFCURVE",
"620 340 QCURVE SMOOTH",
"620 466 OFFCURVE",
"478 597 OFFCURVE",
"334 597 QCURVE SMOOTH"
);
},
{
closed = 1;
nodes = (
"313 562 LINE SMOOTH",
"400 562 OFFCURVE",
"476 468 OFFCURVE",
"476 360 QCURVE SMOOTH",
"476 274 OFFCURVE",
"454 202 QCURVE SMOOTH",
"429 124 OFFCURVE",
"327 36 OFFCURVE",
"238 36 QCURVE SMOOTH",
"216 36 LINE SMOOTH",
"206 36 OFFCURVE",
"206 45 QCURVE",
"207 49 LINE",
"277 549 LINE",
"278 562 OFFCURVE",
"291 562 QCURVE SMOOTH"
);
}
);
};
layerId = "EC024578-EFD3-4C50-A1DE-0E38CDD8AD0F";
paths = (
{
closed = 1;
nodes = (
"262 0 LINE SMOOTH",
"436 0 OFFCURVE",
"620 188 OFFCURVE",
"620 340 QCURVE SMOOTH",
"620 466 OFFCURVE",
"478 597 OFFCURVE",
"334 597 QCURVE SMOOTH",
"92 597 LINE",
"87 560 LINE",
"123 562 LINE",
"138 562 OFFCURVE",
"138 545 QCURVE SMOOTH",
"138 541 LINE",
"70 57 LINE SMOOTH",
"67 35 OFFCURVE",
"53 35 QCURVE SMOOTH",
"13 37 LINE",
"8 0 LINE"
);
},
{
closed = 1;
nodes = (
"206 36 OFFCURVE",
"206 45 QCURVE",
"207 49 LINE",
"277 549 LINE",
"278 562 OFFCURVE",
"291 562 QCURVE SMOOTH",
"313 562 LINE SMOOTH",
"400 562 OFFCURVE",
"476 468 OFFCURVE",
"476 360 QCURVE SMOOTH",
"476 274 OFFCURVE",
"454 202 QCURVE SMOOTH",
"429 124 OFFCURVE",
"327 36 OFFCURVE",
"238 36 QCURVE SMOOTH",
"216 36 LINE SMOOTH"
);
}
);
userData = {
assembly = "NPUSHB[ ]\011/* 51 values pushed */
14 1 1 2 1 74 7 4 2 2 2 3 93 6 1 3 3 17 75 5 1 1 1 0 93 0 0 0 21 0 76 22 21 0 0 29 26 21 36 22 35 0 20 0 19 37 49 37 8 7 23 
CALL[ ]\011/* CallFunction */";
};
width = 636;
}
);
note = D;
rightKerningGroup = D;
unicode = 0044;
},
{
glyphname = E;
layers = (
{
anchors = (
{
name = bottom;
position = "{242, 0}";
},
{
name = ogonek;
position = "{381, 0}";
},
{
name = top;
position = "{329, 597}";
}
);
layerId = "9A6463FA-02C3-4660-BEDA-F7CC218AE705";
paths = (
{
closed = 1;
nodes = (
"498 179 LINE",
"469 179 LINE",
"459 106 OFFCURVE",
"380 28 OFFCURVE",
"316 28 QCURVE SMOOTH",
"180 28 LINE SMOOTH",
"172 28 OFFCURVE",
"172 38 QCURVE SMOOTH",
"172 41 LINE",
"208 297 LINE",
"298 297 LINE SMOOTH",
"323 297 OFFCURVE",
"356 253 OFFCURVE",
"356 218 QCURVE SMOOTH",
"356 211 OFFCURVE",
"354 195 QCURVE",
"384 195 LINE",
"417 426 LINE",
"387 426 LINE",
"380 379 OFFCURVE",
"333 325 OFFCURVE",
"302 325 QCURVE SMOOTH",
"212 325 LINE",
"244 555 LINE SMOOTH",
"246 569 OFFCURVE",
"256 569 QCURVE SMOOTH",
"360 569 LINE SMOOTH",
"422 569 OFFCURVE",
"480 524 OFFCURVE",
"480 475 QCURVE SMOOTH",
"480 461 OFFCURVE",
"477 443 QCURVE",
"506 443 LINE",
"528 599 LINE",
"523 597 OFFCURVE",
"510 597 QCURVE SMOOTH",
"102 597 LINE",
"98 567 LINE",
"136 569 LINE",
"151 569 OFFCURVE",
"151 553 QCURVE SMOOTH",
"151 548 LINE",
"81 49 LINE SMOOTH",
"78 27 OFFCURVE",
"62 27 QCURVE",
"22 30 LINE",
"18 0 LINE",
"387 0 LINE SMOOTH",
"451 0 OFFCURVE",
"473 -3 QCURVE"
);
}
);
userData = {
assembly = "NPUSHB[ ]\011/* 11 values pushed */
41 1 0 1 37 24 2 6 7 2 74 
MPPEM[ ]\011/* MeasurePixelPerEm */
PUSHB[ ]\011/* 1 value pushed */
10 
LT[ ]\011/* LessThan */
IF[ ]\011/* If */
NPUSHB[ ]\011/* 58 values pushed */
0 0 1 3 1 0 112 0 4 5 7 5 4 7 126 0 7 6 5 7 6 124 0 2 0 5 4 2 5 101 10 1 1 1 11 93 0 11 11 17 75 0 3 3 20 75 9 1 6 6 8 93 0 8 8 21 8 76 
ELSE[ ]\011/* Else */
NPUSHB[ ]\011/* 59 values pushed */
0 0 1 3 1 0 3 126 0 4 5 7 5 4 7 126 0 7 6 5 7 6 124 0 2 0 5 4 2 5 101 10 1 1 1 11 93 0 11 11 17 75 0 3 3 20 75 9 1 6 6 8 93 0 8 8 21 8 76 
EIF[ ]\011/* EndIf */
NPUSHB[ ]\011/* 18 values pushed */
48 46 45 43 39 38 34 18 51 36 17 18 34 52 16 12 7 29 
CALL[ ]\011/* CallFunction */";
};
width = 545;
},
{
anchors = (
{
name = bottom;
position = "{248, 0}";
},
{
name = ogonek;
position = "{387, 0}";
},
{
name = top;
position = "{335, 597}";
}
);
layerId = "EC024578-EFD3-4C50-A1DE-0E38CDD8AD0F";
paths = (
{
closed = 1;
nodes = (
"518 179 LINE",
"483 179 LINE",
"473 110 OFFCURVE",
"392 36 OFFCURVE",
"325 36 QCURVE SMOOTH",
"216 36 LINE SMOOTH",
"207 36 OFFCURVE",
"207 46 QCURVE SMOOTH",
"207 49 LINE",
"240 290 LINE",
"311 290 LINE SMOOTH",
"338 290 OFFCURVE",
"373 245 OFFCURVE",
"373 210 QCURVE SMOOTH",
"373 197 OFFCURVE",
"372 191 QCURVE",
"407 191 LINE",
"440 426 LINE",
"405 426 LINE",
"398 379 OFFCURVE",
"350 325 OFFCURVE",
"316 325 QCURVE SMOOTH",
"246 325 LINE",
"277 548 LINE SMOOTH",
"279 562 OFFCURVE",
"291 562 QCURVE SMOOTH",
"367 562 LINE SMOOTH",
"432 562 OFFCURVE",
"492 519 OFFCURVE",
"492 471 QCURVE SMOOTH",
"492 463 OFFCURVE",
"490 443 QCURVE",
"525 443 LINE",
"547 598 LINE",
"543 597 OFFCURVE",
"530 597 QCURVE SMOOTH",
"92 597 LINE",
"87 560 LINE",
"122 562 LINE",
"138 563 OFFCURVE",
"138 545 QCURVE SMOOTH",
"138 541 LINE",
"70 57 LINE SMOOTH",
"67 35 OFFCURVE",
"49 35 QCURVE",
"14 38 LINE",
"8 0 LINE",
"398 0 LINE SMOOTH",
"471 0 OFFCURVE",
"493 -3 QCURVE"
);
}
);
userData = {
assembly = "NPUSHB[ ]\011/* 11 values pushed */
41 1 0 1 37 24 2 6 7 2 74 
MPPEM[ ]\011/* MeasurePixelPerEm */
PUSHB[ ]\011/* 1 value pushed */
10 
LT[ ]\011/* LessThan */
IF[ ]\011/* If */
NPUSHB[ ]\011/* 58 values pushed */
0 0 1 3 1 0 112 0 4 5 7 5 4 7 126 0 7 6 5 7 6 124 0 2 0 5 4 2 5 101 10 1 1 1 11 93 0 11 11 17 75 0 3 3 20 75 9 1 6 6 8 94 0 8 8 21 8 76 
ELSE[ ]\011/* Else */
NPUSHB[ ]\011/* 59 values pushed */
0 0 1 3 1 0 3 126 0 4 5 7 5 4 7 126 0 7 6 5 7 6 124 0 2 0 5 4 2 5 101 10 1 1 1 11 93 0 11 11 17 75 0 3 3 20 75 9 1 6 6 8 94 0 8 8 21 8 76 
EIF[ ]\011/* EndIf */
NPUSHB[ ]\011/* 18 values pushed */
49 47 46 44 39 38 34 18 51 36 17 18 34 52 16 12 7 29 
CALL[ ]\011/* CallFunction */";
};
width = 566;
}
);
note = E;
rightKerningGroup = E;
unicode = 0045;
},
{
glyphname = F;
layers = (
{
layerId = "9A6463FA-02C3-4660-BEDA-F7CC218AE705";
paths = (
{
closed = 1;
nodes = (
"235 0 LINE",
"239 30 LINE",
"187 27 LINE",
"181 27 OFFCURVE",
"173 37 OFFCURVE",
"173 44 QCURVE SMOOTH",
"173 48 LINE",
"207 287 LINE",
"277 287 LINE SMOOTH",
"306 287 OFFCURVE",
"340 246 OFFCURVE",
"340 211 QCURVE SMOOTH",
"340 203 OFFCURVE",
"338 187 QCURVE",
"367 187 LINE",
"400 417 LINE",
"371 417 LINE",
"364 370 OFFCURVE",
"315 315 OFFCURVE",
"281 315 QCURVE SMOOTH",
"210 315 LINE",
"244 556 LINE",
"245 569 OFFCURVE",
"256 569 QCURVE SMOOTH",
"369 569 LINE SMOOTH",
"431 569 OFFCURVE",
"490 524 OFFCURVE",
"490 475 QCURVE SMOOTH",
"490 461 OFFCURVE",
"487 443 QCURVE",
"516 443 LINE",
"538 599 LINE",
"533 597 OFFCURVE",
"522 597 QCURVE SMOOTH",
"102 597 LINE",
"98 567 LINE",
"139 569 LINE",
"151 569 OFFCURVE",
"151 554 QCURVE SMOOTH",
"151 548 LINE",
"81 49 LINE SMOOTH",
"78 27 OFFCURVE",
"62 27 QCURVE",
"22 30 LINE",
"18 0 LINE"
);
}
);
userData = {
assembly = "NPUSHB[ ]\011/* 11 values pushed */
36 1 0 1 32 24 2 6 4 2 74 
MPPEM[ ]\011/* MeasurePixelPerEm */
PUSHB[ ]\011/* 1 value pushed */
10 
LT[ ]\011/* LessThan */
IF[ ]\011/* If */
NPUSHB[ ]\011/* 51 values pushed */
0 0 1 3 1 0 112 0 4 5 6 5 4 6 126 0 2 0 5 4 2 5 103 9 1 1 1 10 93 0 10 10 17 75 0 3 3 20 75 8 1 6 6 7 93 0 7 7 21 7 76 
ELSE[ ]\011/* Else */
MPPEM[ ]\011/* MeasurePixelPerEm */
PUSHB[ ]\011/* 1 value pushed */
39 
LT[ ]\011/* LessThan */
IF[ ]\011/* If */
NPUSHB[ ]\011/* 52 values pushed */
0 0 1 3 1 0 3 126 0 4 5 6 5 4 6 126 0 2 0 5 4 2 5 103 9 1 1 1 10 93 0 10 10 17 75 0 3 3 20 75 8 1 6 6 7 93 0 7 7 21 7 76 
ELSE[ ]\011/* Else */
NPUSHB[ ]\011/* 54 values pushed */
0 0 1 3 1 0 3 126 0 3 2 1 3 2 124 0 4 5 6 5 4 6 126 0 2 0 5 4 2 5 103 9 1 1 1 10 93 0 10 10 17 75 8 1 6 6 7 93 0 7 7 21 7 76 
EIF[ ]\011/* EndIf */
EIF[ ]\011/* EndIf */
NPUSHB[ ]\011/* 16 values pushed */
43 41 40 38 18 17 36 36 17 18 34 52 16 11 7 29 
CALL[ ]\011/* CallFunction */";
};
width = 513;
},
{
layerId = "EC024578-EFD3-4C50-A1DE-0E38CDD8AD0F";
paths = (
{
closed = 1;
nodes = (
"270 0 LINE",
"276 38 LINE",
"223 35 LINE",
"216 35 OFFCURVE",
"208 44 OFFCURVE",
"208 52 QCURVE SMOOTH",
"208 56 LINE",
"239 280 LINE",
"306 280 LINE SMOOTH",
"336 280 OFFCURVE",
"371 238 OFFCURVE",
"371 201 QCURVE SMOOTH",
"371 187 OFFCURVE",
"370 180 QCURVE",
"405 180 LINE",
"438 417 LINE",
"403 417 LINE",
"396 370 OFFCURVE",
"346 315 OFFCURVE",
"310 315 QCURVE SMOOTH",
"244 315 LINE",
"277 549 LINE",
"278 562 OFFCURVE",
"291 562 QCURVE SMOOTH",
"377 562 LINE SMOOTH",
"441 562 OFFCURVE",
"503 519 OFFCURVE",
"503 473 QCURVE SMOOTH",
"503 460 OFFCURVE",
"500 443 QCURVE",
"535 443 LINE",
"557 598 LINE",
"553 597 OFFCURVE",
"542 597 QCURVE SMOOTH",
"92 597 LINE",
"87 560 LINE",
"125 562 LINE",
"138 562 OFFCURVE",
"138 547 QCURVE SMOOTH",
"138 541 LINE",
"70 57 LINE SMOOTH",
"67 35 OFFCURVE",
"49 35 QCURVE",
"14 38 LINE",
"8 0 LINE"
);
}
);
userData = {
assembly = "NPUSHB[ ]\011/* 11 values pushed */
36 1 0 1 32 24 2 6 4 2 74 
MPPEM[ ]\011/* MeasurePixelPerEm */
PUSHB[ ]\011/* 1 value pushed */
10 
LT[ ]\011/* LessThan */
IF[ ]\011/* If */
NPUSHB[ ]\011/* 51 values pushed */
0 0 1 3 1 0 112 0 4 5 6 5 4 6 126 0 2 0 5 4 2 5 103 9 1 1 1 10 93 0 10 10 17 75 0 3 3 20 75 8 1 6 6 7 93 0 7 7 21 7 76 
ELSE[ ]\011/* Else */
MPPEM[ ]\011/* MeasurePixelPerEm */
PUSHB[ ]\011/* 1 value pushed */
27 
LT[ ]\011/* LessThan */
IF[ ]\011/* If */
NPUSHB[ ]\011/* 52 values pushed */
0 0 1 3 1 0 3 126 0 4 5 6 5 4 6 126 0 2 0 5 4 2 5 103 9 1 1 1 10 93 0 10 10 17 75 0 3 3 20 75 8 1 6 6 7 93 0 7 7 21 7 76 
ELSE[ ]\011/* Else */
NPUSHB[ ]\011/* 54 values pushed */
0 0 1 3 1 0 3 126 0 3 2 1 3 2 124 0 4 5 6 5 4 6 126 0 2 0 5 4 2 5 103 9 1 1 1 10 93 0 10 10 17 75 8 1 6 6 7 93 0 7 7 21 7 76 
EIF[ ]\011/* EndIf */
EIF[ ]\011/* EndIf */
NPUSHB[ ]\011/* 16 values pushed */
43 41 40 38 18 17 36 36 17 18 34 52 16 11 7 29 
CALL[ ]\011/* CallFunction */";
};
width = 525;
}
);
note = F;
rightKerningGroup = F;
unicode = 0046;
},
{
glyphname = G;
layers = (
{
anchors = (
{
name = bottom;
position = "{279, 0}";
},
{
name = top;
position = "{370, 597}";
}
);
layerId = "9A6463FA-02C3-4660-BEDA-F7CC218AE705";
paths = (
{
closed = 1;
nodes = (
"353 -10 OFFCURVE",
"427 8 OFFCURVE",
"463 23 QCURVE SMOOTH",
"496 36 OFFCURVE",
"509 36 QCURVE SMOOTH",
"517 36 OFFCURVE",
"523 35 QCURVE",
"550 224 LINE SMOOTH",
"551 232 OFFCURVE",
"562 245 OFFCURVE",
"569 245 QCURVE",
"611 243 LINE",
"615 272 LINE",
"389 272 LINE",
"385 243 LINE",
"443 245 LINE SMOOTH",
"457 245 OFFCURVE",
"457 230 QCURVE SMOOTH",
"457 223 LINE",
"434 63 LINE",
"405 37 OFFCURVE",
"349 17 OFFCURVE",
"306 17 QCURVE SMOOTH",
"230 17 OFFCURVE",
"149 119 OFFCURVE",
"149 224 QCURVE SMOOTH",
"149 338 OFFCURVE",
"211 500 OFFCURVE",
"316 582 OFFCURVE",
"381 582 QCURVE SMOOTH",
"449 582 OFFCURVE",
"530 525 OFFCURVE",
"530 467 QCURVE SMOOTH",
"530 446 OFFCURVE",
"525 433 QCURVE",
"567 433 LINE",
"571 495 OFFCURVE",
"585 564 QCURVE",
"565 564 OFFCURVE",
"534 578 QCURVE SMOOTH",
"504 591 OFFCURVE",
"441 607 OFFCURVE",
"389 607 QCURVE SMOOTH",
"228 607 OFFCURVE",
"49 416 OFFCURVE",
"49 239 QCURVE SMOOTH",
"49 117 OFFCURVE",
"179 -10 OFFCURVE",
"298 -10 QCURVE SMOOTH"
);
}
);
userData = {
assembly = "NPUSHB[ ]\011/* 78 values pushed */
24 1 7 4 1 74 0 0 2 1 2 0 1 126 0 1 5 2 1 5 124 0 7 4 3 4 7 3 126 0 5 6 1 4 7 5 4 104 0 2 2 9 95 10 1 9 9 25 75 0 3 3 8 95 0 8 8 26 8 76 0 0 0 49 0 48 35 22 17 17 37 37 36 19 19 11 7 29 
CALL[ ]\011/* CallFunction */";
};
width = 626;
},
{
anchors = (
{
name = bottom;
position = "{283, 0}";
},
{
name = top;
position = "{374, 597}";
}
);
layerId = "EC024578-EFD3-4C50-A1DE-0E38CDD8AD0F";
paths = (
{
closed = 1;
nodes = (
"355 -10 OFFCURVE",
"431 7 OFFCURVE",
"471 22 QCURVE SMOOTH",
"520 37 OFFCURVE",
"533 37 QCURVE SMOOTH",
"540 37 OFFCURVE",
"552 35 QCURVE",
"577 217 LINE",
"579 225 OFFCURVE",
"591 238 OFFCURVE",
"598 238 QCURVE",
"631 236 LINE",
"636 272 LINE",
"370 272 LINE",
"365 236 LINE",
"424 238 LINE SMOOTH",
"439 238 OFFCURVE",
"439 222 QCURVE SMOOTH",
"439 216 LINE",
"418 68 LINE",
"394 44 OFFCURVE",
"347 25 OFFCURVE",
"316 25 QCURVE SMOOTH",
"252 25 OFFCURVE",
"185 119 OFFCURVE",
"185 214 QCURVE SMOOTH",
"185 323 OFFCURVE",
"238 486 OFFCURVE",
"336 575 OFFCURVE",
"403 575 QCURVE SMOOTH",
"476 575 OFFCURVE",
"549 510 OFFCURVE",
"544 449 QCURVE",
"544 435 OFFCURVE",
"540 426 QCURVE",
"591 426 LINE",
"595 504 OFFCURVE",
"611 564 QCURVE",
"594 564 OFFCURVE",
"548 579 QCURVE",
"507 592 OFFCURVE",
"441 607 OFFCURVE",
"397 607 QCURVE SMOOTH",
"228 607 OFFCURVE",
"38 418 OFFCURVE",
"38 244 QCURVE SMOOTH",
"38 119 OFFCURVE",
"177 -10 OFFCURVE",
"303 -10 QCURVE SMOOTH"
);
}
);
userData = {
assembly = "NPUSHB[ ]\011/* 82 values pushed */
10 1 1 0 24 1 7 4 2 74 0 0 2 1 2 0 1 126 0 1 5 2 1 5 124 0 7 4 3 4 7 3 126 0 5 6 1 4 7 5 4 104 0 2 2 9 95 10 1 9 9 25 75 0 3 3 8 95 0 8 8 26 8 76 0 0 0 50 0 49 36 37 17 17 37 37 36 18 20 11 7 29 
CALL[ ]\011/* CallFunction */";
};
width = 646;
}
);
leftKerningGroup = C;
note = G;
rightKerningGroup = G;
unicode = 0047;
},
{
glyphname = H;
layers = (
{
anchors = (
{
name = bottom;
position = "{306, 0}";
},
{
name = center;
position = "{367, 438}";
},
{
name = top;
position = "{388, 597}";
}
);
layerId = "9A6463FA-02C3-4660-BEDA-F7CC218AE705";
paths = (
{
closed = 1;
nodes = (
"233 0 LINE",
"237 29 LINE",
"188 27 LINE",
"173 27 OFFCURVE",
"173 44 QCURVE SMOOTH",
"173 49 LINE",
"207 294 LINE",
"488 294 LINE",
"454 49 LINE SMOOTH",
"451 27 OFFCURVE",
"434 27 QCURVE",
"385 29 LINE",
"381 0 LINE",
"596 0 LINE",
"600 29 LINE",
"560 27 LINE",
"547 27 OFFCURVE",
"547 42 QCURVE SMOOTH",
"547 49 LINE",
"617 548 LINE SMOOTH",
"620 569 OFFCURVE",
"636 569 QCURVE",
"676 567 LINE",
"680 597 LINE",
"465 597 LINE",
"461 567 LINE",
"510 569 LINE",
"524 569 OFFCURVE",
"524 553 QCURVE SMOOTH",
"524 548 LINE",
"492 322 LINE",
"211 322 LINE",
"243 548 LINE",
"245 558 OFFCURVE",
"256 569 OFFCURVE",
"264 569 QCURVE",
"313 567 LINE",
"317 597 LINE",
"102 597 LINE",
"98 567 LINE",
"137 569 LINE SMOOTH",
"152 570 OFFCURVE",
"152 554 QCURVE",
"151 548 LINE",
"81 49 LINE SMOOTH",
"78 27 OFFCURVE",
"61 27 QCURVE",
"22 29 LINE",
"18 0 LINE"
);
}
);
userData = {
assembly = "NPUSHB[ ]\011/* 71 values pushed */
42 28 2 11 0 17 4 2 1 4 2 74 0 11 0 4 1 11 4 101 12 10 8 3 0 0 9 93 13 1 9 9 17 75 7 5 3 3 1 1 2 93 6 1 2 2 21 2 76 48 47 46 44 41 40 36 35 34 33 36 33 17 35 18 33 17 36 32 14 7 29 
CALL[ ]\011/* CallFunction */";
};
width = 674;
},
{
anchors = (
{
name = bottom;
position = "{316, 0}";
},
{
name = center;
position = "{377, 438}";
},
{
name = top;
position = "{398, 597}";
}
);
layerId = "EC024578-EFD3-4C50-A1DE-0E38CDD8AD0F";
paths = (
{
closed = 1;
nodes = (
"268 0 LINE",
"273 37 LINE",
"224 35 LINE",
"208 35 OFFCURVE",
"208 52 QCURVE SMOOTH",
"208 57 LINE",
"240 287 LINE",
"471 287 LINE",
"438 57 LINE SMOOTH",
"435 35 OFFCURVE",
"417 35 QCURVE",
"368 37 LINE",
"363 0 LINE",
"622 0 LINE",
"627 37 LINE",
"592 35 LINE SMOOTH",
"576 34 OFFCURVE",
"576 51 QCURVE SMOOTH",
"576 57 LINE",
"645 541 LINE SMOOTH",
"648 563 OFFCURVE",
"666 562 QCURVE",
"701 560 LINE",
"706 597 LINE",
"447 597 LINE",
"442 560 LINE",
"491 562 LINE",
"507 562 OFFCURVE",
"507 545 QCURVE SMOOTH",
"507 541 LINE",
"476 322 LINE",
"245 322 LINE",
"276 541 LINE SMOOTH",
"277 550 OFFCURVE",
"289 562 OFFCURVE",
"299 562 QCURVE",
"347 560 LINE",
"352 597 LINE",
"92 597 LINE",
"87 560 LINE",
"123 562 LINE",
"139 563 OFFCURVE",
"139 547 QCURVE",
"138 541 LINE",
"70 57 LINE SMOOTH",
"67 35 OFFCURVE",
"50 35 QCURVE SMOOTH",
"13 37 LINE",
"8 0 LINE"
);
}
);
userData = {
assembly = "NPUSHB[ ]\011/* 70 values pushed */
45 1 11 0 18 5 2 1 4 2 74 0 11 0 4 1 11 4 101 12 10 8 3 0 0 9 93 13 1 9 9 17 75 7 5 3 3 1 1 2 93 6 1 2 2 21 2 76 51 50 49 47 44 43 40 38 37 36 22 49 17 35 18 33 17 37 32 14 7 29 
CALL[ ]\011/* CallFunction */";
};
width = 691;
}
);
note = H;
unicode = 0048;
},
{
glyphname = I;
layers = (
{
anchors = (
{
name = bottom;
position = "{117, 0}";
},
{
name = ogonek;
position = "{121, 0}";
},
{
name = top;
position = "{203, 597}";
}
);
layerId = "9A6463FA-02C3-4660-BEDA-F7CC218AE705";
paths = (
{
closed = 1;
nodes = (
"223 0 LINE",
"227 29 LINE",
"188 27 LINE",
"173 27 OFFCURVE",
"173 44 QCURVE SMOOTH",
"173 49 LINE",
"243 548 LINE",
"245 558 OFFCURVE",
"256 569 OFFCURVE",
"264 569 QCURVE",
"303 567 LINE",
"307 597 LINE",
"102 597 LINE",
"98 567 LINE",
"137 569 LINE",
"144 569 OFFCURVE",
"151 560 OFFCURVE",
"151 553 QCURVE SMOOTH",
"151 548 LINE",
"81 49 LINE SMOOTH",
"78 27 OFFCURVE",
"61 27 QCURVE",
"22 29 LINE",
"18 0 LINE"
);
}
);
userData = {
assembly = "NPUSHB[ ]\011/* 39 values pushed */
16 5 2 1 0 1 74 4 1 0 0 5 93 0 5 5 17 75 3 1 1 1 2 93 0 2 2 21 2 76 17 37 33 17 38 16 6 7 26 
CALL[ ]\011/* CallFunction */";
};
width = 301;
},
{
anchors = (
{
name = bottom;
position = "{130, 0}";
},
{
name = ogonek;
position = "{132, 0}";
},
{
name = top;
position = "{219, 597}";
}
);
layerId = "EC024578-EFD3-4C50-A1DE-0E38CDD8AD0F";
paths = (
{
closed = 1;
nodes = (
"255 0 LINE",
"259 37 LINE",
"224 35 LINE",
"208 33 OFFCURVE",
"208 52 QCURVE SMOOTH",
"208 57 LINE",
"276 541 LINE SMOOTH",
"277 550 OFFCURVE",
"290 562 OFFCURVE",
"299 562 QCURVE",
"333 560 LINE",
"339 597 LINE",
"92 597 LINE",
"87 560 LINE",
"123 562 LINE",
"130 562 OFFCURVE",
"138 553 OFFCURVE",
"138 546 QCURVE SMOOTH",
"138 541 LINE",
"70 57 LINE SMOOTH",
"67 35 OFFCURVE",
"50 35 QCURVE SMOOTH",
"13 37 LINE",
"8 0 LINE"
);
}
);
userData = {
assembly = "NPUSHB[ ]\011/* 39 values pushed */
17 5 2 1 0 1 74 4 1 0 0 5 93 0 5 5 17 75 3 1 1 1 2 93 0 2 2 21 2 76 17 37 49 17 22 32 6 7 26 
CALL[ ]\011/* CallFunction */";
};
width = 323;
}
);
note = I;
unicode = 0049;
},
{
glyphname = J;
layers = (
{
anchors = (
{
name = top;
position = "{342, 597}";
}
);
layerId = "9A6463FA-02C3-4660-BEDA-F7CC218AE705";
paths = (
{
closed = 1;
nodes = (
"306 -10 OFFCURVE",
"333 179 QCURVE SMOOTH",
"385 549 LINE SMOOTH",
"388 569 OFFCURVE",
"406 569 QCURVE",
"443 567 LINE",
"447 597 LINE",
"214 597 LINE",
"210 567 LINE",
"279 569 LINE SMOOTH",
"292 569 OFFCURVE",
"292 553 QCURVE SMOOTH",
"292 548 LINE",
"240 179 LINE SMOOTH",
"227 90 OFFCURVE",
"178 16 OFFCURVE",
"132 16 QCURVE SMOOTH",
"89 16 OFFCURVE",
"51 84 OFFCURVE",
"51 133 QCURVE SMOOTH",
"51 154 OFFCURVE",
"54 172 QCURVE",
"17 172 LINE",
"-8 -4 LINE",
"6 5 OFFCURVE",
"28 5 QCURVE SMOOTH",
"41 5 OFFCURVE",
"64 0 QCURVE SMOOTH",
"106 -10 OFFCURVE",
"144 -10 QCURVE SMOOTH"
);
}
);
userData = {
assembly = "NPUSHB[ ]\011/* 52 values pushed */
23 1 3 0 12 1 1 2 2 74 5 1 0 0 6 93 0 6 6 17 75 0 3 3 2 95 0 2 2 21 75 0 4 4 1 95 0 1 1 26 1 76 17 37 36 18 34 35 32 7 7 27 
CALL[ ]\011/* CallFunction */";
};
width = 437;
},
{
anchors = (
{
name = top;
position = "{352, 597}";
}
);
layerId = "EC024578-EFD3-4C50-A1DE-0E38CDD8AD0F";
paths = (
{
closed = 1;
nodes = (
"336 -10 OFFCURVE",
"363 179 QCURVE SMOOTH",
"414 542 LINE",
"416 563 OFFCURVE",
"437 562 QCURVE",
"470 560 LINE",
"476 597 LINE",
"197 597 LINE",
"191 560 LINE",
"261 562 LINE SMOOTH",
"276 562 OFFCURVE",
"276 545 QCURVE SMOOTH",
"276 541 LINE",
"225 179 LINE SMOOTH",
"213 94 OFFCURVE",
"167 24 OFFCURVE",
"125 24 QCURVE SMOOTH",
"90 24 OFFCURVE",
"59 85 OFFCURVE",
"59 130 QCURVE SMOOTH",
"59 153 OFFCURVE",
"62 172 QCURVE",
"18 172 LINE",
"-7 -2 LINE",
"2 5 OFFCURVE",
"30 5 QCURVE SMOOTH",
"38 5 OFFCURVE",
"68 -1 QCURVE SMOOTH",
"113 -10 OFFCURVE",
"143 -10 QCURVE SMOOTH"
);
}
);
userData = {
assembly = "NPUSHB[ ]\011/* 52 values pushed */
24 1 3 0 13 1 1 2 2 74 5 1 0 0 6 93 0 6 6 17 75 0 3 3 2 95 0 2 2 21 75 0 4 4 1 95 0 1 1 26 1 76 17 37 36 18 34 36 32 7 7 27 
CALL[ ]\011/* CallFunction */";
};
width = 455;
}
);
note = J;
rightKerningGroup = J;
unicode = 004A;
},
{
glyphname = K;
layers = (
{
anchors = (
{
name = bottom;
position = "{285, 0}";
}
);
layerId = "9A6463FA-02C3-4660-BEDA-F7CC218AE705";
paths = (
{
closed = 1;
nodes = (
"233 0 LINE",
"237 29 LINE",
"188 27 LINE",
"173 27 OFFCURVE",
"173 44 QCURVE SMOOTH",
"173 49 LINE",
"199 234 LINE",
"262 298 LINE",
"401 52 LINE",
"404 46 OFFCURVE",
"404 41 QCURVE SMOOTH",
"404 27 OFFCURVE",
"388 27 QCURVE",
"334 30 LINE",
"330 0 LINE",
"562 0 LINE",
"566 30 LINE",
"533 27 OFFCURVE",
"532 27 QCURVE SMOOTH",
"520 27 OFFCURVE",
"512 41 QCURVE SMOOTH",
"328 365 LINE",
"499 540 LINE SMOOTH",
"529 570 OFFCURVE",
"553 569 QCURVE SMOOTH",
"592 567 LINE",
"596 597 LINE",
"421 597 LINE",
"417 567 LINE",
"459 569 LINE",
"466 569 OFFCURVE",
"466 562 QCURVE SMOOTH",
"466 557 OFFCURVE",
"459 548 QCURVE",
"206 281 LINE",
"243 547 LINE SMOOTH",
"246 569 OFFCURVE",
"264 569 QCURVE",
"313 567 LINE",
"317 597 LINE",
"102 597 LINE",
"98 567 LINE",
"137 569 LINE",
"151 569 OFFCURVE",
"151 553 QCURVE SMOOTH",
"151 548 LINE",
"81 49 LINE SMOOTH",
"78 27 OFFCURVE",
"61 27 QCURVE",
"22 29 LINE",
"18 0 LINE"
);
}
);
userData = {
assembly = "NPUSHB[ ]\011/* 64 values pushed */
40 29 18 16 13 7 2 7 0 6 1 74 12 11 9 8 4 6 6 7 93 10 1 7 7 17 75 5 3 2 3 0 0 1 93 4 1 1 1 21 1 76 0 0 0 50 0 49 48 47 46 44 33 17 36 33 17 40 33 19 20 13 7 29 
CALL[ ]\011/* CallFunction */";
};
width = 598;
},
{
anchors = (
{
name = bottom;
position = "{288, 0}";
}
);
layerId = "EC024578-EFD3-4C50-A1DE-0E38CDD8AD0F";
paths = (
{
closed = 1;
nodes = (
"265 0 LINE",
"269 37 LINE",
"224 35 LINE",
"208 33 OFFCURVE",
"208 52 QCURVE SMOOTH",
"208 57 LINE",
"231 224 LINE",
"272 265 LINE",
"380 59 LINE",
"383 52 OFFCURVE",
"383 47 QCURVE SMOOTH",
"384 33 OFFCURVE",
"365 34 QCURVE SMOOTH",
"319 37 LINE",
"314 0 LINE",
"598 0 LINE",
"603 37 LINE",
"588 34 OFFCURVE",
"573 34 QCURVE SMOOTH",
"559 34 OFFCURVE",
"551 48 QCURVE SMOOTH",
"380 373 LINE",
"540 533 LINE SMOOTH",
"571 564 OFFCURVE",
"600 562 QCURVE SMOOTH",
"635 560 LINE",
"640 597 LINE",
"462 597 LINE",
"456 560 LINE",
"493 562 LINE",
"501 562 OFFCURVE",
"501 555 QCURVE SMOOTH",
"501 548 OFFCURVE",
"484 529 QCURVE",
"239 279 LINE",
"275 540 LINE",
"279 562 OFFCURVE",
"299 562 QCURVE",
"347 560 LINE",
"352 597 LINE",
"92 597 LINE",
"87 560 LINE",
"123 562 LINE",
"138 562 OFFCURVE",
"138 546 QCURVE SMOOTH",
"138 541 LINE",
"70 57 LINE SMOOTH",
"67 35 OFFCURVE",
"50 35 QCURVE SMOOTH",
"13 37 LINE",
"8 0 LINE"
);
}
);
userData = {
assembly = "NPUSHB[ ]\011/* 63 values pushed */
45 33 21 19 8 3 6 0 6 1 74 12 11 9 8 4 6 6 7 93 10 1 7 7 17 75 5 3 2 3 0 0 1 93 4 1 1 1 21 1 76 0 0 0 55 0 54 53 52 51 49 33 17 37 49 17 26 49 18 37 13 7 29 
CALL[ ]\011/* CallFunction */";
};
width = 634;
}
);
note = K;
unicode = 004B;
},
{
glyphname = L;
layers = (
{
anchors = (
{
name = bottom;
position = "{233, 0}";
},
{
name = center;
position = "{160, 267}";
},
{
name = top;
position = "{204, 597}";
},
{
name = topright;
position = "{329, 424}";
}
);
layerId = "9A6463FA-02C3-4660-BEDA-F7CC218AE705";
paths = (
{
closed = 1;
nodes = (
"471 171 LINE",
"443 171 LINE",
"433 101 OFFCURVE",
"355 28 OFFCURVE",
"289 28 QCURVE SMOOTH",
"180 28 LINE SMOOTH",
"172 28 OFFCURVE",
"172 38 QCURVE SMOOTH",
"172 41 LINE",
"243 548 LINE",
"245 558 OFFCURVE",
"256 569 OFFCURVE",
"264 569 QCURVE",
"313 567 LINE",
"317 597 LINE",
"102 597 LINE",
"98 567 LINE",
"137 569 LINE",
"144 569 OFFCURVE",
"151 560 OFFCURVE",
"151 552 QCURVE SMOOTH",
"151 548 LINE",
"81 49 LINE",
"77 27 OFFCURVE",
"65 27 QCURVE",
"22 30 LINE",
"18 0 LINE",
"326 0 LINE SMOOTH",
"428 0 OFFCURVE",
"447 -3 QCURVE"
);
}
);
userData = {
assembly = "NPUSHB[ ]\011/* 51 values pushed */
22 1 2 0 5 1 1 2 2 74 0 2 0 1 0 2 1 126 5 1 0 0 6 93 0 6 6 17 75 4 1 1 1 3 93 0 3 3 21 3 76 17 37 33 34 18 54 16 7 7 27 
CALL[ ]\011/* CallFunction */";
};
width = 498;
},
{
anchors = (
{
name = bottom;
position = "{239, 0}";
},
{
name = center;
position = "{166, 267}";
},
{
name = top;
position = "{210, 597}";
},
{
name = topright;
position = "{331, 418}";
}
);
layerId = "EC024578-EFD3-4C50-A1DE-0E38CDD8AD0F";
paths = (
{
closed = 1;
nodes = (
"482 171 LINE",
"448 171 LINE",
"439 105 OFFCURVE",
"362 36 OFFCURVE",
"298 36 QCURVE SMOOTH",
"216 36 LINE SMOOTH",
"207 36 OFFCURVE",
"207 46 QCURVE SMOOTH",
"207 49 LINE",
"276 541 LINE SMOOTH",
"277 550 OFFCURVE",
"290 562 OFFCURVE",
"299 562 QCURVE",
"347 560 LINE",
"352 597 LINE",
"92 597 LINE",
"87 560 LINE",
"123 562 LINE",
"130 562 OFFCURVE",
"138 552 OFFCURVE",
"138 545 QCURVE SMOOTH",
"138 541 LINE",
"70 57 LINE",
"69 33 OFFCURVE",
"52 35 QCURVE",
"14 38 LINE",
"8 0 LINE",
"335 0 LINE SMOOTH",
"440 0 OFFCURVE",
"458 -3 QCURVE"
);
}
);
userData = {
assembly = "NPUSHB[ ]\011/* 50 values pushed */
23 1 2 0 18 5 2 1 2 2 74 0 2 0 1 0 2 1 126 4 1 0 0 5 93 0 5 5 17 75 0 1 1 3 93 0 3 3 21 3 76 17 41 34 18 53 32 6 7 26 
CALL[ ]\011/* CallFunction */";
};
width = 510;
}
);
note = L;
rightKerningGroup = L;
unicode = 004C;
},
{
glyphname = M;
layers = (
{
layerId = "9A6463FA-02C3-4660-BEDA-F7CC218AE705";
paths = (
{
closed = 1;
nodes = (
"376 -10 LINE",
"675 513 LINE",
"610 49 LINE SMOOTH",
"607 27 OFFCURVE",
"590 27 QCURVE",
"541 29 LINE",
"537 0 LINE",
"752 0 LINE",
"756 29 LINE",
"717 27 LINE",
"702 27 OFFCURVE",
"702 43 QCURVE SMOOTH",
"702 49 LINE",
"772 549 LINE",
"774 558 OFFCURVE",
"785 569 OFFCURVE",
"793 569 QCURVE",
"827 567 LINE",
"831 597 LINE",
"687 597 LINE",
"410 115 LINE",
"255 597 LINE",
"104 597 LINE",
"100 567 LINE",
"145 569 LINE",
"151 569 OFFCURVE",
"149 563 QCURVE",
"77 49 LINE SMOOTH",
"74 27 OFFCURVE",
"56 27 QCURVE",
"17 29 LINE",
"13 0 LINE",
"171 0 LINE",
"175 29 LINE",
"126 27 LINE",
"113 27 OFFCURVE",
"113 42 QCURVE SMOOTH",
"113 49 LINE",
"179 520 LINE",
"350 -10 LINE"
);
}
);
userData = {
assembly = "NPUSHB[ ]\011/* 58 values pushed */
37 20 19 16 5 5 1 0 1 74 8 1 0 0 9 93 10 1 9 9 17 75 7 5 3 3 1 1 2 93 6 1 2 2 21 75 0 4 4 18 4 76 39 38 36 35 20 33 17 36 19 33 17 38 16 11 7 29 
CALL[ ]\011/* CallFunction */";
};
width = 830;
},
{
layerId = "EC024578-EFD3-4C50-A1DE-0E38CDD8AD0F";
paths = (
{
closed = 1;
nodes = (
"389 -10 LINE",
"688 502 LINE",
"625 57 LINE SMOOTH",
"622 35 OFFCURVE",
"603 35 QCURVE",
"554 37 LINE",
"549 0 LINE",
"809 0 LINE",
"814 37 LINE",
"779 35 LINE",
"762 33 OFFCURVE",
"762 52 QCURVE SMOOTH",
"762 57 LINE",
"831 542 LINE SMOOTH",
"832 550 OFFCURVE",
"844 562 OFFCURVE",
"853 562 QCURVE",
"883 560 LINE",
"888 597 LINE",
"702 597 LINE",
"445 160 LINE",
"300 597 LINE",
"94 597 LINE",
"89 560 LINE",
"132 562 LINE",
"140 562 OFFCURVE",
"140 556 QCURVE",
"70 57 LINE SMOOTH",
"67 35 OFFCURVE",
"47 35 QCURVE",
"8 37 LINE",
"3 0 LINE",
"171 0 LINE",
"176 37 LINE",
"127 35 LINE",
"112 35 OFFCURVE",
"112 50 QCURVE SMOOTH",
"112 57 LINE",
"177 525 LINE",
"357 -10 LINE"
);
}
);
userData = {
assembly = "NPUSHB[ ]\011/* 58 values pushed */
37 20 19 16 5 5 1 0 1 74 8 1 0 0 9 93 10 1 9 9 17 75 7 5 3 3 1 1 2 93 6 1 2 2 21 75 0 4 4 18 4 76 39 38 36 35 20 33 17 36 19 33 17 22 32 11 7 29 
CALL[ ]\011/* CallFunction */";
};
width = 877;
}
);
note = M;
unicode = 004D;
},
{
glyphname = N;
layers = (
{
anchors = (
{
name = bottom;
position = "{293, 0}";
},
{
name = top;
position = "{376, 597}";
}
);
layerId = "9A6463FA-02C3-4660-BEDA-F7CC218AE705";
paths = (
{
closed = 1;
nodes = (
"511 -6 LINE",
"589 548 LINE SMOOTH",
"592 569 OFFCURVE",
"607 569 QCURVE",
"648 567 LINE",
"652 597 LINE",
"493 597 LINE",
"489 567 LINE",
"541 569 LINE",
"552 569 OFFCURVE",
"554 555 QCURVE",
"553 549 LINE",
"498 158 LINE",
"249 597 LINE",
"97 597 LINE",
"93 567 LINE",
"132 569 LINE",
"139 569 OFFCURVE",
"147 560 OFFCURVE",
"147 553 QCURVE SMOOTH",
"77 49 LINE SMOOTH",
"74 27 OFFCURVE",
"56 27 QCURVE",
"17 29 LINE",
"13 0 LINE",
"171 0 LINE",
"175 29 LINE",
"126 27 LINE",
"113 27 OFFCURVE",
"113 42 QCURVE SMOOTH",
"113 49 LINE",
"179 521 LINE",
"479 -6 LINE"
);
}
);
userData = {
assembly = "NPUSHB[ ]\011/* 10 values pushed */
27 26 18 7 6 5 2 0 1 74 
MPPEM[ ]\011/* MeasurePixelPerEm */
PUSHB[ ]\011/* 1 value pushed */
10 
LT[ ]\011/* LessThan */
IF[ ]\011/* If */
NPUSHB[ ]\011/* 26 values pushed */
7 5 2 0 0 6 93 8 1 6 6 17 75 4 1 2 2 1 93 3 1 1 1 18 1 76 
ELSE[ ]\011/* Else */
NPUSHB[ ]\011/* 30 values pushed */
7 5 2 0 0 6 93 8 1 6 6 17 75 4 1 2 2 3 93 0 3 3 21 75 0 1 1 18 1 76 
EIF[ ]\011/* EndIf */
NPUSHB[ ]\011/* 12 values pushed */
17 36 17 37 33 17 36 18 32 9 7 29 
CALL[ ]\011/* CallFunction */";
};
width = 641;
},
{
anchors = (
{
name = bottom;
position = "{314, 0}";
},
{
name = top;
position = "{397, 597}";
}
);
layerId = "EC024578-EFD3-4C50-A1DE-0E38CDD8AD0F";
paths = (
{
closed = 1;
nodes = (
"550 -6 LINE",
"628 548 LINE SMOOTH",
"631 569 OFFCURVE",
"648 569 QCURVE",
"689 567 LINE",
"693 597 LINE",
"525 597 LINE",
"521 567 LINE",
"573 569 LINE",
"586 569 OFFCURVE",
"586 554 QCURVE SMOOTH",
"586 549 LINE",
"535 184 LINE",
"293 597 LINE",
"87 597 LINE",
"83 567 LINE",
"122 569 LINE",
"130 570 OFFCURVE",
"139 560 OFFCURVE",
"139 553 QCURVE",
"69 49 LINE SMOOTH",
"66 27 OFFCURVE",
"46 27 QCURVE",
"7 29 LINE",
"3 0 LINE",
"171 0 LINE",
"175 29 LINE",
"126 27 LINE",
"111 27 OFFCURVE",
"111 43 QCURVE SMOOTH",
"111 49 LINE",
"177 524 LINE",
"490 -6 LINE"
);
}
);
userData = {
assembly = "NPUSHB[ ]\011/* 9 values pushed */
26 25 7 6 4 2 0 1 74 
MPPEM[ ]\011/* MeasurePixelPerEm */
PUSHB[ ]\011/* 1 value pushed */
38 
LT[ ]\011/* LessThan */
IF[ ]\011/* If */
NPUSHB[ ]\011/* 26 values pushed */
7 5 2 0 0 6 93 8 1 6 6 17 75 4 1 2 2 1 93 3 1 1 1 18 1 76 
ELSE[ ]\011/* Else */
NPUSHB[ ]\011/* 30 values pushed */
7 5 2 0 0 6 93 8 1 6 6 17 75 4 1 2 2 3 93 0 3 3 21 75 0 1 1 18 1 76 
EIF[ ]\011/* EndIf */
NPUSHB[ ]\011/* 12 values pushed */
17 36 17 21 33 17 36 18 32 9 7 29 
CALL[ ]\011/* CallFunction */";
};
width = 672;
}
);
note = N;
unicode = 004E;
},
{
glyphname = Eng;
layers = (
{
layerId = "9A6463FA-02C3-4660-BEDA-F7CC218AE705";
paths = (
{
closed = 1;
nodes = (
"511 -6 LINE",
"589 548 LINE SMOOTH",
"592 569 OFFCURVE",
"607 569 QCURVE",
"648 567 LINE",
"652 597 LINE",
"493 597 LINE",
"489 567 LINE",
"541 569 LINE",
"552 569 OFFCURVE",
"554 555 QCURVE",
"553 549 LINE",
"498 158 LINE",
"249 597 LINE",
"97 597 LINE",
"93 567 LINE",
"132 569 LINE",
"139 569 OFFCURVE",
"147 560 OFFCURVE",
"147 553 QCURVE SMOOTH",
"77 49 LINE SMOOTH",
"74 27 OFFCURVE",
"56 27 QCURVE",
"17 29 LINE",
"13 0 LINE",
"171 0 LINE",
"175 29 LINE",
"126 27 LINE",
"113 27 OFFCURVE",
"113 42 QCURVE SMOOTH",
"113 49 LINE",
"179 521 LINE",
"479 -6 LINE"
);
},
{
closed = 1;
nodes = (
"477 -243 OFFCURVE",
"511 -4 QCURVE SMOOTH",
"526 100 LINE",
"440 100 LINE",
"418 -59 LINE SMOOTH",
"414 -90 OFFCURVE",
"409 -133 QCURVE SMOOTH",
"399 -216 OFFCURVE",
"345 -216 QCURVE SMOOTH",
"317 -216 OFFCURVE",
"317 -191 QCURVE SMOOTH",
"317 -187 OFFCURVE",
"327 -165 OFFCURVE",
"328 -160 QCURVE SMOOTH",
"331 -144 OFFCURVE",
"308 -132 OFFCURVE",
"296 -132 QCURVE SMOOTH",
"275 -132 OFFCURVE",
"246 -156 OFFCURVE",
"243 -176 QCURVE SMOOTH",
"239 -204 OFFCURVE",
"289 -243 OFFCURVE",
"335 -243 QCURVE SMOOTH"
);
}
);
width = 641;
},
{
layerId = "EC024578-EFD3-4C50-A1DE-0E38CDD8AD0F";
paths = (
{
closed = 1;
nodes = (
"550 -6 LINE",
"628 548 LINE SMOOTH",
"631 569 OFFCURVE",
"648 569 QCURVE",
"689 567 LINE",
"693 597 LINE",
"525 597 LINE",
"521 567 LINE",
"573 569 LINE",
"586 569 OFFCURVE",
"586 554 QCURVE SMOOTH",
"586 549 LINE",
"535 184 LINE",
"293 597 LINE",
"87 597 LINE",
"83 567 LINE",
"122 569 LINE",
"130 570 OFFCURVE",
"139 560 OFFCURVE",
"139 553 QCURVE",
"69 49 LINE SMOOTH",
"66 27 OFFCURVE",
"46 27 QCURVE",
"7 29 LINE",
"3 0 LINE",
"171 0 LINE",
"175 29 LINE",
"126 27 LINE",
"111 27 OFFCURVE",
"111 43 QCURVE SMOOTH",
"111 49 LINE",
"177 524 LINE",
"490 -6 LINE"
);
},
{
closed = 1;
nodes = (
"517 -243 OFFCURVE",
"549 -12 QCURVE SMOOTH",
"569 132 LINE",
"438 132 LINE",
"415 -37 LINE SMOOTH",
"406 -100 OFFCURVE",
"408 -156 QCURVE SMOOTH",
"410 -207 OFFCURVE",
"368 -209 QCURVE SMOOTH",
"344 -210 OFFCURVE",
"350 -184 QCURVE SMOOTH",
"351 -180 OFFCURVE",
"360 -158 OFFCURVE",
"360 -153 QCURVE SMOOTH",
"360 -128 OFFCURVE",
"330 -108 OFFCURVE",
"312 -108 QCURVE SMOOTH",
"283 -108 OFFCURVE",
"244 -140 OFFCURVE",
"240 -166 QCURVE SMOOTH",
"235 -201 OFFCURVE",
"298 -243 OFFCURVE",
"359 -243 QCURVE SMOOTH"
);
}
);
width = 672;
}
);
unicode = 014A;
},
{
glyphname = Nhookleft;
layers = (
{
layerId = "9A6463FA-02C3-4660-BEDA-F7CC218AE705";
paths = (
{
closed = 1;
nodes = (
"511 -6 LINE",
"589 548 LINE SMOOTH",
"592 569 OFFCURVE",
"607 569 QCURVE",
"648 567 LINE",
"652 597 LINE",
"493 597 LINE",
"489 567 LINE",
"541 569 LINE",
"552 569 OFFCURVE",
"554 555 QCURVE",
"553 549 LINE",
"498 158 LINE",
"249 597 LINE",
"97 597 LINE",
"93 567 LINE",
"132 569 LINE",
"139 569 OFFCURVE",
"147 560 OFFCURVE",
"147 553 QCURVE",
"176 523 LINE",
"479 -6 LINE"
);
},
{
closed = 1;
nodes = (
"69 -243 OFFCURVE",
"88 -109 QCURVE SMOOTH",
"187 597 LINE",
"153 597 LINE",
"63 -46 LINE SMOOTH",
"59 -77 OFFCURVE",
"54 -120 QCURVE SMOOTH",
"43 -216 OFFCURVE",
"-12 -216 QCURVE SMOOTH",
"-40 -216 OFFCURVE",
"-40 -191 QCURVE SMOOTH",
"-40 -187 OFFCURVE",
"-30 -165 OFFCURVE",
"-29 -160 QCURVE SMOOTH",
"-26 -144 OFFCURVE",
"-48 -132 OFFCURVE",
"-60 -132 QCURVE SMOOTH",
"-81 -132 OFFCURVE",
"-111 -156 OFFCURVE",
"-114 -176 QCURVE SMOOTH",
"-118 -204 OFFCURVE",
"-78 -243 OFFCURVE",
"-32 -243 QCURVE SMOOTH"
);
}
);
width = 641;
},
{
layerId = "EC024578-EFD3-4C50-A1DE-0E38CDD8AD0F";
paths = (
{
closed = 1;
nodes = (
"550 -6 LINE",
"628 548 LINE SMOOTH",
"631 569 OFFCURVE",
"648 569 QCURVE",
"689 567 LINE",
"693 597 LINE",
"525 597 LINE",
"521 567 LINE",
"573 569 LINE",
"586 569 OFFCURVE",
"586 554 QCURVE SMOOTH",
"586 549 LINE",
"535 184 LINE",
"293 597 LINE",
"87 597 LINE",
"83 567 LINE",
"122 569 LINE",
"130 570 OFFCURVE",
"139 560 OFFCURVE",
"139 553 QCURVE",
"176 525 LINE",
"490 -6 LINE"
);
},
{
closed = 1;
nodes = (
"68 -243 OFFCURVE",
"84 -132 QCURVE SMOOTH",
"186 597 LINE",
"145 597 LINE",
"62 3 LINE SMOOTH",
"53 -60 OFFCURVE",
"55 -116 QCURVE SMOOTH",
"58 -209 OFFCURVE",
"10 -209 QCURVE SMOOTH",
"-9 -209 OFFCURVE",
"-9 -184 QCURVE SMOOTH",
"-9 -180 OFFCURVE",
"1 -158 OFFCURVE",
"2 -153 QCURVE SMOOTH",
"7 -128 OFFCURVE",
"-29 -108 OFFCURVE",
"-47 -108 QCURVE SMOOTH",
"-76 -108 OFFCURVE",
"-115 -140 OFFCURVE",
"-118 -166 QCURVE SMOOTH",
"-121 -196 OFFCURVE",
"-80 -243 OFFCURVE",
"-30 -243 QCURVE SMOOTH"
);
}
);
width = 672;
}
);
unicode = 019D;
},
{
glyphname = O;
layers = (
{
anchors = (
{
name = bottom;
position = "{293, 0}";
},
{
name = center;
position = "{335, 299}";
},
{
name = ogonek;
position = "{389, 0}";
},
{
name = top;
position = "{377, 597}";
},
{
name = topright;
position = "{397, 597}";
}
);
background = {
paths = (
{
closed = 1;
nodes = (
"50 98 OFFCURVE",
"200 -10 OFFCURVE",
"293 -10 QCURVE SMOOTH",
"364 -10 OFFCURVE",
"512 47 OFFCURVE",
"623 209 OFFCURVE",
"623 356 QCURVE SMOOTH",
"623 501 OFFCURVE",
"472 607 OFFCURVE",
"379 607 QCURVE SMOOTH",
"308 607 OFFCURVE",
"160 551 OFFCURVE",
"50 389 OFFCURVE",
"50 242 QCURVE SMOOTH"
);
},
{
closed = 1;
nodes = (
"148 335 OFFCURVE",
"189 443 QCURVE SMOOTH",
"240 580 OFFCURVE",
"366 580 QCURVE SMOOTH",
"423 580 OFFCURVE",
"491 543 OFFCURVE",
"524 457 OFFCURVE",
"524 383 QCURVE SMOOTH",
"524 247 OFFCURVE",
"478 139 QCURVE SMOOTH",
"425 17 OFFCURVE",
"306 17 QCURVE SMOOTH",
"250 17 OFFCURVE",
"181 54 OFFCURVE",
"148 140 OFFCURVE",
"148 215 QCURVE SMOOTH"
);
}
);
};
layerId = "9A6463FA-02C3-4660-BEDA-F7CC218AE705";
paths = (
{
closed = 1;
nodes = (
"364 -10 OFFCURVE",
"512 47 OFFCURVE",
"623 209 OFFCURVE",
"623 356 QCURVE SMOOTH",
"623 496 OFFCURVE",
"475 607 OFFCURVE",
"379 607 QCURVE SMOOTH",
"308 607 OFFCURVE",
"162 551 OFFCURVE",
"50 377 OFFCURVE",
"50 242 QCURVE SMOOTH",
"50 103 OFFCURVE",
"205 -10 OFFCURVE",
"293 -10 QCURVE SMOOTH"
);
},
{
closed = 1;
nodes = (
"217 17 OFFCURVE",
"148 110 OFFCURVE",
"148 215 QCURVE SMOOTH",
"148 335 OFFCURVE",
"189 443 QCURVE SMOOTH",
"240 580 OFFCURVE",
"366 580 QCURVE SMOOTH",
"453 580 OFFCURVE",
"524 490 OFFCURVE",
"524 383 QCURVE SMOOTH",
"524 247 OFFCURVE",
"478 139 QCURVE SMOOTH",
"425 17 OFFCURVE",
"306 17 QCURVE SMOOTH"
);
}
);
userData = {
assembly = "NPUSHB[ ]\011/* 28 values pushed */
0 3 3 0 95 0 0 0 25 75 0 2 2 1 95 0 1 1 26 1 76 38 37 37 34 4 7 24 
CALL[ ]\011/* CallFunction */";
};
width = 649;
},
{
anchors = (
{
name = bottom;
position = "{303, 0}";
},
{
name = center;
position = "{345, 299}";
},
{
name = ogonek;
position = "{408, 0}";
},
{
name = top;
position = "{387, 597}";
},
{
name = topright;
position = "{429, 597}";
}
);
background = {
paths = (
{
closed = 1;
nodes = (
"39 119 OFFCURVE",
"184 -10 OFFCURVE",
"308 -10 QCURVE SMOOTH",
"407 -10 OFFCURVE",
"568 73 OFFCURVE",
"662 234 OFFCURVE",
"662 345 QCURVE SMOOTH",
"662 479 OFFCURVE",
"518 607 OFFCURVE",
"393 607 QCURVE SMOOTH",
"294 607 OFFCURVE",
"133 526 OFFCURVE",
"39 366 OFFCURVE",
"39 254 QCURVE SMOOTH"
);
},
{
closed = 1;
nodes = (
"185 244 OFFCURVE",
"203 371 OFFCURVE",
"220 425 QCURVE SMOOTH",
"242 496 OFFCURVE",
"319 573 OFFCURVE",
"386 573 QCURVE SMOOTH",
"459 573 OFFCURVE",
"516 481 OFFCURVE",
"516 401 QCURVE SMOOTH",
"516 346 OFFCURVE",
"495 215 OFFCURVE",
"477 161 QCURVE SMOOTH",
"455 95 OFFCURVE",
"381 25 OFFCURVE",
"317 25 QCURVE SMOOTH",
"244 25 OFFCURVE",
"186 109 OFFCURVE",
"185 188 QCURVE"
);
}
);
};
layerId = "EC024578-EFD3-4C50-A1DE-0E38CDD8AD0F";
paths = (
{
closed = 1;
nodes = (
"407 -10 OFFCURVE",
"568 73 OFFCURVE",
"662 234 OFFCURVE",
"662 345 QCURVE SMOOTH",
"662 479 OFFCURVE",
"518 607 OFFCURVE",
"393 607 QCURVE SMOOTH",
"294 607 OFFCURVE",
"133 526 OFFCURVE",
"39 366 OFFCURVE",
"39 254 QCURVE SMOOTH",
"39 119 OFFCURVE",
"184 -10 OFFCURVE",
"308 -10 QCURVE SMOOTH"
);
},
{
closed = 1;
nodes = (
"244 25 OFFCURVE",
"186 109 OFFCURVE",
"185 188 QCURVE",
"186 305 OFFCURVE",
"220 425 QCURVE SMOOTH",
"262 573 OFFCURVE",
"386 573 QCURVE SMOOTH",
"459 573 OFFCURVE",
"516 481 OFFCURVE",
"516 401 QCURVE SMOOTH",
"516 287 OFFCURVE",
"477 161 QCURVE SMOOTH",
"435 25 OFFCURVE",
"317 25 QCURVE SMOOTH"
);
}
);
userData = {
assembly = "NPUSHB[ ]\011/* 28 values pushed */
0 3 3 0 95 0 0 0 25 75 0 2 2 1 95 0 1 1 26 1 76 39 36 37 34 4 7 24 
CALL[ ]\011/* CallFunction */";
};
width = 677;
}
);
leftKerningGroup = C;
note = O;
rightKerningGroup = D;
unicode = 004F;
},
{
glyphname = OE;
layers = (
{
layerId = "9A6463FA-02C3-4660-BEDA-F7CC218AE705";
paths = (
{
closed = 1;
nodes = (
"349 -10 OFFCURVE",
"434 0 QCURVE SMOOTH",
"675 0 LINE SMOOTH",
"737 0 OFFCURVE",
"762 -3 QCURVE",
"787 179 LINE",
"758 179 LINE",
"748 106 OFFCURVE",
"669 27 OFFCURVE",
"603 27 QCURVE SMOOTH",
"492 27 LINE SMOOTH",
"483 27 OFFCURVE",
"483 37 QCURVE SMOOTH",
"519 297 LINE",
"591 297 LINE SMOOTH",
"617 297 OFFCURVE",
"651 253 OFFCURVE",
"651 217 QCURVE SMOOTH",
"651 211 OFFCURVE",
"649 195 QCURVE",
"678 195 LINE",
"711 426 LINE",
"682 426 LINE",
"675 379 OFFCURVE",
"627 324 OFFCURVE",
"595 324 QCURVE SMOOTH",
"523 324 LINE",
"555 555 LINE SMOOTH",
"557 569 OFFCURVE",
"568 569 QCURVE SMOOTH",
"659 569 LINE SMOOTH",
"721 569 OFFCURVE",
"779 526 OFFCURVE",
"779 476 QCURVE SMOOTH",
"779 461 OFFCURVE",
"776 443 QCURVE",
"805 443 LINE",
"827 597 LINE",
"510 597 LINE SMOOTH",
"483 597 OFFCURVE",
"453 602 QCURVE SMOOTH",
"407 607 OFFCURVE",
"387 607 QCURVE SMOOTH",
"216 607 OFFCURVE",
"50 410 OFFCURVE",
"50 237 QCURVE SMOOTH",
"50 118 OFFCURVE",
"178 -10 OFFCURVE",
"298 -10 QCURVE SMOOTH"
);
},
{
closed = 1;
nodes = (
"219 18 OFFCURVE",
"144 111 OFFCURVE",
"144 212 QCURVE SMOOTH",
"144 347 OFFCURVE",
"172 422 QCURVE",
"221 581 OFFCURVE",
"377 581 QCURVE SMOOTH",
"416 581 OFFCURVE",
"466 549 OFFCURVE",
"463 526 QCURVE SMOOTH",
"402 90 LINE SMOOTH",
"392 18 OFFCURVE",
"298 18 QCURVE SMOOTH"
);
}
);
userData = {
assembly = "PUSHB[ ]\011/* 6 values pushed */
30 1 7 8 1 74 
MPPEM[ ]\011/* MeasurePixelPerEm */
PUSHB[ ]\011/* 1 value pushed */
10 
LT[ ]\011/* LessThan */
IF[ ]\011/* If */
NPUSHB[ ]\011/* 78 values pushed */
0 1 2 4 2 1 112 0 5 6 8 6 5 8 126 0 8 7 6 8 7 124 0 3 0 6 5 3 6 101 15 1 13 13 11 95 14 1 11 11 25 75 0 2 2 0 93 0 0 0 17 75 0 4 4 20 75 0 7 7 9 93 0 9 9 21 75 0 12 12 10 95 0 10 10 26 10 76 
ELSE[ ]\011/* Else */
NPUSHB[ ]\011/* 79 values pushed */
0 1 2 4 2 1 4 126 0 5 6 8 6 5 8 126 0 8 7 6 8 7 124 0 3 0 6 5 3 6 101 15 1 13 13 11 95 14 1 11 11 25 75 0 2 2 0 93 0 0 0 17 75 0 4 4 20 75 0 7 7 9 93 0 9 9 21 75 0 12 12 10 95 0 10 10 26 10 76 
EIF[ ]\011/* EndIf */
NPUSHB[ ]\011/* 30 values pushed */
52 52 0 0 52 65 52 64 59 57 0 51 0 50 46 44 43 40 18 51 36 17 18 34 52 17 35 16 7 29 
CALL[ ]\011/* CallFunction */";
};
width = 834;
},
{
background = {
paths = (
{
closed = 1;
nodes = (
"284 607 OFFCURVE",
"123 517 OFFCURVE",
"39 357 OFFCURVE",
"39 253 QCURVE SMOOTH",
"39 123 OFFCURVE",
"178 -10 OFFCURVE",
"309 -10 QCURVE SMOOTH",
"335 -10 OFFCURVE",
"415 0 QCURVE",
"718 0 LINE SMOOTH",
"791 0 OFFCURVE",
"813 -3 QCURVE",
"838 179 LINE",
"803 179 LINE",
"793 110 OFFCURVE",
"712 35 OFFCURVE",
"645 35 QCURVE SMOOTH",
"542 35 LINE SMOOTH",
"533 35 OFFCURVE",
"533 45 QCURVE SMOOTH",
"533 48 LINE",
"566 290 LINE",
"632 290 LINE SMOOTH",
"659 290 OFFCURVE",
"695 245 OFFCURVE",
"695 210 QCURVE SMOOTH",
"695 197 OFFCURVE",
"694 191 QCURVE",
"729 191 LINE",
"762 426 LINE",
"727 426 LINE",
"720 379 OFFCURVE",
"671 325 OFFCURVE",
"638 325 QCURVE SMOOTH",
"572 325 LINE",
"603 548 LINE SMOOTH",
"605 562 OFFCURVE",
"617 562 QCURVE SMOOTH",
"690 562 LINE SMOOTH",
"755 562 OFFCURVE",
"815 519 OFFCURVE",
"815 471 QCURVE SMOOTH",
"815 463 OFFCURVE",
"813 443 QCURVE",
"848 443 LINE",
"870 598 LINE",
"502 598 LINE SMOOTH",
"487 598 OFFCURVE",
"453 602 QCURVE",
"423 607 OFFCURVE",
"395 607 QCURVE SMOOTH"
);
},
{
closed = 1;
nodes = (
"428 573 OFFCURVE",
"463 548 OFFCURVE",
"464 529 QCURVE",
"400 78 LINE",
"379 25 OFFCURVE",
"315 25 QCURVE SMOOTH",
"243 25 OFFCURVE",
"185 110 OFFCURVE",
"184 187 QCURVE",
"184 244 OFFCURVE",
"199 367 OFFCURVE",
"216 420 QCURVE SMOOTH",
"238 493 OFFCURVE",
"317 573 OFFCURVE",
"388 573 QCURVE SMOOTH"
);
}
);
};
layerId = "EC024578-EFD3-4C50-A1DE-0E38CDD8AD0F";
paths = (
{
closed = 1;
nodes = (
"335 -10 OFFCURVE",
"415 0 QCURVE",
"718 0 LINE SMOOTH",
"791 0 OFFCURVE",
"813 -3 QCURVE",
"838 179 LINE",
"803 179 LINE",
"793 110 OFFCURVE",
"712 35 OFFCURVE",
"645 35 QCURVE SMOOTH",
"542 35 LINE SMOOTH",
"533 35 OFFCURVE",
"533 45 QCURVE SMOOTH",
"566 290 LINE",
"632 290 LINE SMOOTH",
"659 290 OFFCURVE",
"695 245 OFFCURVE",
"695 210 QCURVE SMOOTH",
"695 197 OFFCURVE",
"694 191 QCURVE",
"729 191 LINE",
"762 426 LINE",
"727 426 LINE",
"720 379 OFFCURVE",
"671 325 OFFCURVE",
"638 325 QCURVE SMOOTH",
"572 325 LINE",
"603 548 LINE SMOOTH",
"605 562 OFFCURVE",
"617 562 QCURVE SMOOTH",
"690 562 LINE SMOOTH",
"755 562 OFFCURVE",
"815 519 OFFCURVE",
"815 471 QCURVE SMOOTH",
"815 463 OFFCURVE",
"813 443 QCURVE",
"848 443 LINE",
"870 598 LINE",
"502 598 LINE SMOOTH",
"487 598 OFFCURVE",
"453 602 QCURVE",
"423 607 OFFCURVE",
"395 607 QCURVE SMOOTH",
"234 607 OFFCURVE",
"39 416 OFFCURVE",
"39 253 QCURVE SMOOTH",
"39 123 OFFCURVE",
"178 -10 OFFCURVE",
"309 -10 QCURVE SMOOTH"
);
},
{
closed = 1;
nodes = (
"243 25 OFFCURVE",
"185 110 OFFCURVE",
"184 187 QCURVE",
"186 317 OFFCURVE",
"216 420 QCURVE SMOOTH",
"260 572 OFFCURVE",
"388 573 QCURVE SMOOTH",
"428 573 OFFCURVE",
"463 548 OFFCURVE",
"464 529 QCURVE",
"400 78 LINE",
"379 25 OFFCURVE",
"315 25 QCURVE SMOOTH"
);
}
);
userData = {
assembly = "NPUSHB[ ]\011/* 10 values pushed */
62 1 1 2 29 1 7 8 2 74 
MPPEM[ ]\011/* MeasurePixelPerEm */
PUSHB[ ]\011/* 1 value pushed */
10 
LT[ ]\011/* LessThan */
IF[ ]\011/* If */
NPUSHB[ ]\011/* 78 values pushed */
0 1 2 4 2 1 112 0 5 6 8 6 5 8 126 0 8 7 6 8 7 124 0 3 0 6 5 3 6 103 15 1 13 13 11 95 14 1 11 11 25 75 0 2 2 0 93 0 0 0 17 75 0 4 4 20 75 0 7 7 9 94 0 9 9 21 75 0 12 12 10 95 0 10 10 26 10 76 
ELSE[ ]\011/* Else */
NPUSHB[ ]\011/* 79 values pushed */
0 1 2 4 2 1 4 126 0 5 6 8 6 5 8 126 0 8 7 6 8 7 124 0 3 0 6 5 3 6 103 15 1 13 13 11 95 14 1 11 11 25 75 0 2 2 0 93 0 0 0 17 75 0 4 4 20 75 0 7 7 9 94 0 9 9 21 75 0 12 12 10 95 0 10 10 26 10 76 
EIF[ ]\011/* EndIf */
NPUSHB[ ]\011/* 30 values pushed */
51 51 0 0 51 65 51 64 60 58 0 50 0 49 44 42 41 39 18 51 36 17 18 34 52 17 34 16 7 29 
CALL[ ]\011/* CallFunction */";
};
width = 887;
}
);
leftKerningGroup = C;
note = OE;
unicode = 0152;
},
{
glyphname = P;
layers = (
{
layerId = "9A6463FA-02C3-4660-BEDA-F7CC218AE705";
paths = (
{
closed = 1;
nodes = (
"233 0 LINE",
"237 29 LINE",
"188 27 LINE",
"173 27 OFFCURVE",
"173 44 QCURVE SMOOTH",
"173 49 LINE",
"203 263 LINE",
"303 263 LINE SMOOTH",
"364 263 OFFCURVE",
"456 314 OFFCURVE",
"507 404 OFFCURVE",
"507 463 QCURVE SMOOTH",
"507 530 OFFCURVE",
"420 597 OFFCURVE",
"330 597 QCURVE SMOOTH",
"102 597 LINE",
"98 567 LINE",
"136 569 LINE",
"152 569 OFFCURVE",
"152 554 QCURVE",
"151 547 LINE",
"81 49 LINE SMOOTH",
"78 27 OFFCURVE",
"61 27 QCURVE",
"22 29 LINE",
"18 0 LINE"
);
},
{
closed = 1;
nodes = (
"244 557 LINE",
"245 562 OFFCURVE",
"253 569 OFFCURVE",
"256 569 QCURVE SMOOTH",
"310 569 LINE SMOOTH",
"357 569 OFFCURVE",
"411 508 OFFCURVE",
"411 458 QCURVE SMOOTH",
"411 413 OFFCURVE",
"377 336 OFFCURVE",
"320 291 OFFCURVE",
"287 291 QCURVE SMOOTH",
"207 291 LINE"
);
}
);
userData = {
assembly = "NPUSHB[ ]\011/* 61 values pushed */
8 1 1 0 1 74 0 6 0 0 1 6 0 101 9 7 2 4 4 5 93 8 1 5 5 17 75 3 1 1 1 2 93 0 2 2 21 2 76 27 27 0 0 27 39 27 38 33 31 0 26 0 25 22 33 17 35 37 10 7 25 
CALL[ ]\011/* CallFunction */";
};
width = 507;
},
{
layerId = "EC024578-EFD3-4C50-A1DE-0E38CDD8AD0F";
paths = (
{
closed = 1;
nodes = (
"268 0 LINE",
"273 37 LINE",
"224 35 LINE",
"208 35 OFFCURVE",
"208 52 QCURVE SMOOTH",
"208 57 LINE",
"235 248 LINE",
"331 248 LINE SMOOTH",
"396 248 OFFCURVE",
"497 300 OFFCURVE",
"552 395 OFFCURVE",
"552 456 QCURVE SMOOTH",
"552 527 OFFCURVE",
"454 597 OFFCURVE",
"353 597 QCURVE SMOOTH",
"92 597 LINE",
"87 560 LINE",
"120 562 LINE SMOOTH",
"139 563 OFFCURVE",
"139 547 QCURVE",
"138 540 LINE",
"70 57 LINE SMOOTH",
"67 35 OFFCURVE",
"50 35 QCURVE SMOOTH",
"13 37 LINE",
"8 0 LINE"
);
},
{
closed = 1;
nodes = (
"277 550 LINE",
"278 555 OFFCURVE",
"287 562 OFFCURVE",
"291 562 QCURVE SMOOTH",
"330 562 LINE SMOOTH",
"366 562 OFFCURVE",
"407 504 OFFCURVE",
"407 455 QCURVE SMOOTH",
"407 409 OFFCURVE",
"375 330 OFFCURVE",
"323 284 OFFCURVE",
"293 284 QCURVE SMOOTH",
"239 284 LINE"
);
}
);
userData = {
assembly = "NPUSHB[ ]\011/* 65 values pushed */
20 1 6 4 8 1 1 0 2 74 0 6 0 0 1 6 0 101 9 7 2 4 4 5 93 8 1 5 5 17 75 3 1 1 1 2 93 0 2 2 21 2 76 27 27 0 0 27 39 27 38 33 31 0 26 0 25 36 49 17 35 37 10 7 25 
CALL[ ]\011/* CallFunction */";
};
width = 544;
}
);
note = P;
rightKerningGroup = P;
unicode = 0050;
},
{
glyphname = Thorn;
layers = (
{
layerId = "9A6463FA-02C3-4660-BEDA-F7CC218AE705";
paths = (
{
closed = 1;
nodes = (
"233 0 LINE",
"237 29 LINE",
"188 27 LINE SMOOTH",
"173 26 OFFCURVE",
"173 42 QCURVE",
"174 49 LINE",
"190 162 LINE",
"288 162 LINE SMOOTH",
"382 162 OFFCURVE",
"494 272 OFFCURVE",
"494 362 QCURVE SMOOTH",
"494 431 OFFCURVE",
"406 496 OFFCURVE",
"314 496 QCURVE SMOOTH",
"237 496 LINE",
"244 548 LINE",
"246 557 OFFCURVE",
"257 569 OFFCURVE",
"264 569 QCURVE",
"313 567 LINE",
"317 597 LINE",
"102 597 LINE",
"98 567 LINE",
"137 569 LINE",
"151 569 OFFCURVE",
"151 553 QCURVE SMOOTH",
"151 548 LINE",
"81 49 LINE SMOOTH",
"78 27 OFFCURVE",
"61 27 QCURVE",
"22 29 LINE",
"18 0 LINE"
);
},
{
closed = 1;
nodes = (
"200 188 OFFCURVE",
"195 194 OFFCURVE",
"195 199 QCURVE SMOOTH",
"195 201 LINE",
"233 471 LINE",
"295 471 LINE SMOOTH",
"344 471 OFFCURVE",
"398 409 OFFCURVE",
"398 357 QCURVE SMOOTH",
"398 312 OFFCURVE",
"361 234 OFFCURVE",
"301 188 OFFCURVE",
"270 188 QCURVE SMOOTH",
"204 188 LINE SMOOTH"
);
}
);
userData = {
assembly = "NPUSHB[ ]\011/* 68 values pushed */
25 1 1 0 14 1 3 2 2 74 0 1 10 1 9 8 1 9 103 0 8 0 2 3 8 2 101 6 1 0 0 7 93 0 7 7 17 75 5 1 3 3 4 93 0 4 4 21 4 76 32 32 32 45 32 44 53 17 36 33 17 35 36 36 16 11 7 29 
CALL[ ]\011/* CallFunction */";
};
width = 508;
},
{
layerId = "EC024578-EFD3-4C50-A1DE-0E38CDD8AD0F";
paths = (
{
closed = 1;
nodes = (
"268 0 LINE",
"272 29 LINE",
"223 27 LINE SMOOTH",
"207 26 OFFCURVE",
"207 43 QCURVE SMOOTH",
"207 49 LINE",
"223 162 LINE",
"317 162 LINE SMOOTH",
"419 162 OFFCURVE",
"535 267 OFFCURVE",
"535 364 QCURVE SMOOTH",
"535 435 OFFCURVE",
"442 496 OFFCURVE",
"343 496 QCURVE SMOOTH",
"270 496 LINE",
"277 548 LINE",
"279 557 OFFCURVE",
"291 569 OFFCURVE",
"299 569 QCURVE",
"348 567 LINE",
"352 597 LINE",
"92 597 LINE",
"88 567 LINE",
"124 569 LINE",
"139 568 OFFCURVE",
"139 553 QCURVE SMOOTH",
"139 548 LINE",
"69 49 LINE",
"65 27 OFFCURVE",
"50 27 QCURVE SMOOTH",
"12 29 LINE",
"8 0 LINE"
);
},
{
closed = 1;
nodes = (
"235 188 OFFCURVE",
"228 195 OFFCURVE",
"228 199 QCURVE SMOOTH",
"228 201 LINE",
"266 471 LINE",
"309 471 LINE SMOOTH",
"350 471 OFFCURVE",
"394 416 OFFCURVE",
"394 364 QCURVE SMOOTH",
"394 314 OFFCURVE",
"363 233 OFFCURVE",
"312 188 OFFCURVE",
"284 188 QCURVE SMOOTH",
"239 188 LINE SMOOTH"
);
}
);
userData = {
assembly = "NPUSHB[ ]\011/* 68 values pushed */
26 1 1 0 14 1 3 2 2 74 0 1 10 1 9 8 1 9 103 0 8 0 2 3 8 2 101 6 1 0 0 7 93 0 7 7 17 75 5 1 3 3 4 93 0 4 4 21 4 76 34 34 34 47 34 46 53 17 37 49 17 35 36 36 16 11 7 29 
CALL[ ]\011/* CallFunction */";
};
width = 540;
}
);
note = Thorn;
unicode = 00DE;
},
{
glyphname = Q;
layers = (
{
background = {
paths = (
{
closed = 1;
nodes = (
"468 -98 OFFCURVE",
"403 -56 OFFCURVE",
"364 -3 QCURVE",
"470 16 OFFCURVE",
"623 181 OFFCURVE",
"623 356 QCURVE SMOOTH",
"623 501 OFFCURVE",
"472 607 OFFCURVE",
"379 607 QCURVE SMOOTH",
"308 607 OFFCURVE",
"160 551 OFFCURVE",
"50 389 OFFCURVE",
"50 242 QCURVE SMOOTH",
"50 98 OFFCURVE",
"200 -10 OFFCURVE",
"293 -10 QCURVE",
"339 -86 OFFCURVE",
"421 -156 OFFCURVE",
"466 -156 QCURVE SMOOTH",
"519 -156 OFFCURVE",
"589 -112 QCURVE",
"582 -86 LINE",
"532 -98 OFFCURVE",
"504 -98 QCURVE SMOOTH"
);
},
{
closed = 1;
nodes = (
"148 335 OFFCURVE",
"189 443 QCURVE SMOOTH",
"240 580 OFFCURVE",
"366 580 QCURVE SMOOTH",
"453 580 OFFCURVE",
"524 489 OFFCURVE",
"524 383 QCURVE SMOOTH",
"524 247 OFFCURVE",
"478 139 QCURVE SMOOTH",
"425 17 OFFCURVE",
"306 17 QCURVE SMOOTH",
"220 17 OFFCURVE",
"148 107 OFFCURVE",
"148 215 QCURVE SMOOTH"
);
}
);
};
layerId = "9A6463FA-02C3-4660-BEDA-F7CC218AE705";
paths = (
{
closed = 1;
nodes = (
"364 -10 OFFCURVE",
"512 47 OFFCURVE",
"623 209 OFFCURVE",
"623 356 QCURVE SMOOTH",
"623 496 OFFCURVE",
"475 607 OFFCURVE",
"379 607 QCURVE SMOOTH",
"308 607 OFFCURVE",
"162 551 OFFCURVE",
"50 377 OFFCURVE",
"50 242 QCURVE SMOOTH",
"50 103 OFFCURVE",
"205 -10 OFFCURVE",
"293 -10 QCURVE SMOOTH"
);
},
{
closed = 1;
nodes = (
"516 -194 OFFCURVE",
"555 -191 OFFCURVE",
"594 -166 CURVE",
"581 -140 LINE",
"472 -176 OFFCURVE",
"411 -37 OFFCURVE",
"293 -10 CURVE",
"229 0 LINE",
"343 -109 OFFCURVE",
"431 -194 OFFCURVE",
"492 -194 CURVE SMOOTH"
);
},
{
closed = 1;
nodes = (
"217 17 OFFCURVE",
"148 110 OFFCURVE",
"148 215 QCURVE SMOOTH",
"148 335 OFFCURVE",
"189 443 QCURVE SMOOTH",
"240 580 OFFCURVE",
"366 580 QCURVE SMOOTH",
"453 580 OFFCURVE",
"524 490 OFFCURVE",
"524 383 QCURVE SMOOTH",
"524 247 OFFCURVE",
"478 139 QCURVE SMOOTH",
"425 17 OFFCURVE",
"306 17 QCURVE SMOOTH"
);
}
);
userData = {
assembly = "NPUSHB[ ]\011/* 59 values pushed */
20 1 1 4 1 1 3 1 2 1 0 3 3 74 6 1 3 0 0 3 0 99 0 5 5 2 95 0 2 2 25 75 0 4 4 1 95 0 1 1 26 1 76 0 0 36 34 28 26 0 23 0 22 37 18 35 7 7 23 
CALL[ ]\011/* CallFunction */";
};
width = 649;
},
{
background = {
paths = (
{
closed = 1;
nodes = (
"512 -98 OFFCURVE",
"446 -54 OFFCURVE",
"406 1 QCURVE",
"521 29 OFFCURVE",
"662 208 OFFCURVE",
"662 345 QCURVE SMOOTH",
"662 479 OFFCURVE",
"518 607 OFFCURVE",
"393 607 QCURVE SMOOTH",
"294 607 OFFCURVE",
"133 526 OFFCURVE",
"39 366 OFFCURVE",
"39 254 QCURVE SMOOTH",
"39 119 OFFCURVE",
"184 -10 OFFCURVE",
"308 -10 QCURVE",
"359 -98 OFFCURVE",
"448 -179 OFFCURVE",
"496 -179 QCURVE SMOOTH",
"557 -179 OFFCURVE",
"634 -112 QCURVE",
"627 -86 LINE",
"577 -98 OFFCURVE",
"549 -98 QCURVE SMOOTH"
);
},
{
closed = 1;
nodes = (
"189 328 OFFCURVE",
"220 425 QCURVE SMOOTH",
"263 573 OFFCURVE",
"382 573 QCURVE SMOOTH",
"460 573 OFFCURVE",
"516 481 OFFCURVE",
"516 401 QCURVE SMOOTH",
"514 285 OFFCURVE",
"477 161 QCURVE SMOOTH",
"436 25 OFFCURVE",
"317 25 QCURVE SMOOTH",
"244 25 OFFCURVE",
"186 109 OFFCURVE",
"185 188 QCURVE"
);
}
);
};
layerId = "EC024578-EFD3-4C50-A1DE-0E38CDD8AD0F";
paths = (
{
closed = 1;
nodes = (
"407 -10 OFFCURVE",
"568 73 OFFCURVE",
"662 234 OFFCURVE",
"662 345 QCURVE SMOOTH",
"662 479 OFFCURVE",
"518 607 OFFCURVE",
"393 607 QCURVE SMOOTH",
"294 607 OFFCURVE",
"133 526 OFFCURVE",
"39 366 OFFCURVE",
"39 254 QCURVE SMOOTH",
"39 119 OFFCURVE",
"184 -10 OFFCURVE",
"308 -10 QCURVE SMOOTH"
);
},
{
closed = 1;
nodes = (
"540 -203 OFFCURVE",
"586 -193 OFFCURVE",
"624 -168 CURVE",
"603 -133 LINE",
"488 -181 OFFCURVE",
"466 -29 OFFCURVE",
"308 -10 CURVE",
"243 0 LINE",
"356 -109 OFFCURVE",
"455 -203 OFFCURVE",
"516 -203 CURVE SMOOTH"
);
},
{
closed = 1;
nodes = (
"244 25 OFFCURVE",
"186 109 OFFCURVE",
"185 188 QCURVE",
"186 305 OFFCURVE",
"220 425 QCURVE SMOOTH",
"262 573 OFFCURVE",
"386 573 QCURVE SMOOTH",
"459 573 OFFCURVE",
"516 481 OFFCURVE",
"516 401 QCURVE SMOOTH",
"516 287 OFFCURVE",
"477 161 QCURVE SMOOTH",
"435 25 OFFCURVE",
"317 25 QCURVE SMOOTH"
);
}
);
userData = {
assembly = "NPUSHB[ ]\011/* 59 values pushed */
20 1 1 4 1 1 3 1 2 1 0 3 3 74 6 1 3 0 0 3 0 99 0 5 5 2 95 0 2 2 25 75 0 4 4 1 95 0 1 1 26 1 76 0 0 36 34 27 25 0 23 0 22 37 18 35 7 7 23 
CALL[ ]\011/* CallFunction */";
};
width = 677;
}
);
leftKerningGroup = C;
note = Q;
rightKerningGroup = D;
unicode = 0051;
},
{
glyphname = R;
layers = (
{
anchors = (
{
name = bottom;
position = "{257, 0}";
},
{
name = top;
position = "{340, 597}";
}
);
layerId = "9A6463FA-02C3-4660-BEDA-F7CC218AE705";
paths = (
{
closed = 1;
nodes = (
"453 -10 OFFCURVE",
"501 4 OFFCURVE",
"518 13 QCURVE",
"510 32 LINE",
"501 26 OFFCURVE",
"489 26 QCURVE SMOOTH",
"474 26 OFFCURVE",
"459 47 OFFCURVE",
"460 69 QCURVE SMOOTH",
"464 172 LINE SMOOTH",
"466 224 OFFCURVE",
"416 290 OFFCURVE",
"365 297 QCURVE",
"426 313 OFFCURVE",
"505 401 OFFCURVE",
"505 468 QCURVE SMOOTH",
"505 535 OFFCURVE",
"415 597 OFFCURVE",
"320 597 QCURVE SMOOTH",
"102 597 LINE",
"98 567 LINE",
"133 569 LINE",
"151 568 OFFCURVE",
"151 551 QCURVE",
"150 542 LINE",
"81 49 LINE SMOOTH",
"78 27 OFFCURVE",
"61 27 QCURVE",
"22 29 LINE",
"18 0 LINE",
"233 0 LINE",
"237 29 LINE",
"188 27 LINE",
"173 27 OFFCURVE",
"173 41 QCURVE",
"206 286 LINE",
"253 286 LINE",
"308 284 OFFCURVE",
"377 223 OFFCURVE",
"377 161 QCURVE SMOOTH",
"377 140 OFFCURVE",
"374 114 QCURVE SMOOTH",
"371 80 OFFCURVE",
"371 64 QCURVE SMOOTH",
"371 25 OFFCURVE",
"400 -10 OFFCURVE",
"431 -10 QCURVE SMOOTH"
);
},
{
closed = 1;
nodes = (
"245 559 LINE",
"246 569 OFFCURVE",
"256 569 QCURVE SMOOTH",
"316 569 LINE SMOOTH",
"366 569 OFFCURVE",
"412 520 OFFCURVE",
"412 465 QCURVE SMOOTH",
"412 396 OFFCURVE",
"350 313 OFFCURVE",
"299 313 QCURVE SMOOTH",
"210 313 LINE"
);
}
);
userData = {
assembly = "NPUSHB[ ]\011/* 82 values pushed */
43 1 9 6 5 1 2 9 32 15 2 0 2 16 1 4 0 4 74 0 9 0 2 0 9 2 103 11 8 2 6 6 7 93 10 1 7 7 17 75 5 3 2 0 0 4 93 0 4 4 21 75 0 1 1 26 1 76 51 50 0 0 55 53 50 60 51 59 0 49 0 48 37 33 17 34 41 36 44 12 7 27 
CALL[ ]\011/* CallFunction */";
};
width = 563;
},
{
anchors = (
{
name = bottom;
position = "{271, 0}";
},
{
name = top;
position = "{354, 597}";
}
);
layerId = "EC024578-EFD3-4C50-A1DE-0E38CDD8AD0F";
paths = (
{
closed = 1;
nodes = (
"463 -10 OFFCURVE",
"526 6 OFFCURVE",
"548 17 QCURVE",
"540 40 LINE",
"531 34 OFFCURVE",
"519 34 QCURVE SMOOTH",
"503 34 OFFCURVE",
"489 53 OFFCURVE",
"490 74 QCURVE SMOOTH",
"494 170 LINE SMOOTH",
"496 223 OFFCURVE",
"444 288 OFFCURVE",
"392 295 QCURVE",
"460 314 OFFCURVE",
"540 404 OFFCURVE",
"540 470 QCURVE SMOOTH",
"540 534 OFFCURVE",
"446 597 OFFCURVE",
"350 597 QCURVE SMOOTH",
"92 597 LINE",
"87 560 LINE",
"120 562 LINE",
"138 562 OFFCURVE",
"138 543 QCURVE SMOOTH",
"138 539 LINE",
"70 57 LINE SMOOTH",
"67 35 OFFCURVE",
"50 35 QCURVE SMOOTH",
"13 37 LINE",
"8 0 LINE",
"268 0 LINE",
"273 37 LINE",
"224 35 LINE",
"208 35 OFFCURVE",
"208 50 QCURVE SMOOTH",
"238 271 LINE",
"274 271 LINE SMOOTH",
"326 270 OFFCURVE",
"364 213 OFFCURVE",
"364 163 QCURVE SMOOTH",
"364 152 OFFCURVE",
"360 116 QCURVE SMOOTH",
"356 76 OFFCURVE",
"356 61 QCURVE SMOOTH",
"356 23 OFFCURVE",
"394 -10 OFFCURVE",
"434 -10 QCURVE SMOOTH"
);
},
{
closed = 1;
nodes = (
"277 552 LINE",
"278 562 OFFCURVE",
"291 562 QCURVE SMOOTH",
"322 562 LINE SMOOTH",
"363 562 OFFCURVE",
"404 516 OFFCURVE",
"404 466 QCURVE SMOOTH",
"404 395 OFFCURVE",
"347 306 OFFCURVE",
"305 306 QCURVE SMOOTH",
"243 306 LINE"
);
}
);
userData = {
assembly = "NPUSHB[ ]\011/* 82 values pushed */
43 1 9 6 5 1 2 9 31 15 2 0 2 16 1 4 0 4 74 0 9 0 2 0 9 2 103 11 8 2 6 6 7 93 10 1 7 7 17 75 5 3 2 0 0 4 93 0 4 4 21 75 0 1 1 26 1 76 51 50 0 0 55 53 50 60 51 59 0 49 0 48 36 49 17 35 40 36 44 12 7 27 
CALL[ ]\011/* CallFunction */";
};
width = 587;
}
);
note = R;
rightKerningGroup = R;
unicode = 0052;
},
{
glyphname = S;
layers = (
{
anchors = (
{
name = bottom;
position = "{211, 0}";
},
{
name = top;
position = "{294, 597}";
}
);
background = {
paths = (
{
closed = 1;
nodes = (
"226 607 OFFCURVE",
"132 561 OFFCURVE",
"83 484 OFFCURVE",
"83 441 QCURVE SMOOTH",
"83 386 OFFCURVE",
"141 318 OFFCURVE",
"195 288 QCURVE SMOOTH",
"244 261 LINE SMOOTH",
"292 234 OFFCURVE",
"343 176 OFFCURVE",
"343 132 QCURVE SMOOTH",
"343 100 OFFCURVE",
"309 48 OFFCURVE",
"252 18 OFFCURVE",
"221 18 QCURVE SMOOTH",
"66 18 OFFCURVE",
"71 203 QCURVE",
"44 203 LINE",
"45 199 OFFCURVE",
"45 172 QCURVE SMOOTH",
"45 120 OFFCURVE",
"35 48 OFFCURVE",
"21 14 OFFCURVE",
"20 10 QCURVE",
"26 12 OFFCURVE",
"56 18 OFFCURVE",
"69 18 QCURVE SMOOTH",
"80 18 OFFCURVE",
"114 9 QCURVE SMOOTH",
"139 3 LINE SMOOTH",
"189 -10 OFFCURVE",
"228 -10 QCURVE SMOOTH",
"282 -10 OFFCURVE",
"379 37 OFFCURVE",
"438 122 OFFCURVE",
"438 176 QCURVE SMOOTH",
"438 229 OFFCURVE",
"381 300 OFFCURVE",
"329 330 QCURVE SMOOTH",
"267 365 LINE SMOOTH",
"220 392 OFFCURVE",
"171 443 OFFCURVE",
"171 481 QCURVE SMOOTH",
"172 526 OFFCURVE",
"242 580 OFFCURVE",
"297 580 QCURVE SMOOTH",
"352 580 OFFCURVE",
"421 513 OFFCURVE",
"421 458 QCURVE SMOOTH",
"421 450 OFFCURVE",
"419 434 QCURVE",
"447 434 LINE",
"446 439 OFFCURVE",
"446 458 QCURVE SMOOTH",
"446 493 OFFCURVE",
"453 543 OFFCURVE",
"465 577 QCURVE",
"451 572 OFFCURVE",
"434 572 QCURVE SMOOTH",
"424 572 OFFCURVE",
"409 578 QCURVE SMOOTH",
"360 596 OFFCURVE",
"318 607 OFFCURVE",
"289 607 QCURVE SMOOTH"
);
}
);
};
layerId = "9A6463FA-02C3-4660-BEDA-F7CC218AE705";
paths = (
{
closed = 1;
nodes = (
"282 -10 OFFCURVE",
"379 37 OFFCURVE",
"438 122 OFFCURVE",
"438 176 QCURVE SMOOTH",
"438 229 OFFCURVE",
"381 300 OFFCURVE",
"329 330 QCURVE SMOOTH",
"267 365 LINE SMOOTH",
"220 392 OFFCURVE",
"171 443 OFFCURVE",
"171 481 QCURVE SMOOTH",
"172 526 OFFCURVE",
"242 580 OFFCURVE",
"297 580 QCURVE SMOOTH",
"352 580 OFFCURVE",
"421 513 OFFCURVE",
"421 458 QCURVE SMOOTH",
"421 450 OFFCURVE",
"419 434 QCURVE",
"447 434 LINE",
"446 439 OFFCURVE",
"446 458 QCURVE SMOOTH",
"446 493 OFFCURVE",
"453 543 OFFCURVE",
"465 577 QCURVE",
"451 572 OFFCURVE",
"434 572 QCURVE SMOOTH",
"424 572 OFFCURVE",
"409 578 QCURVE SMOOTH",
"360 596 OFFCURVE",
"318 607 OFFCURVE",
"289 607 QCURVE SMOOTH",
"226 607 OFFCURVE",
"132 561 OFFCURVE",
"83 484 OFFCURVE",
"83 441 QCURVE SMOOTH",
"83 386 OFFCURVE",
"141 318 OFFCURVE",
"195 288 QCURVE SMOOTH",
"244 261 LINE SMOOTH",
"292 234 OFFCURVE",
"343 176 OFFCURVE",
"343 132 QCURVE SMOOTH",
"343 84 OFFCURVE",
"269 18 OFFCURVE",
"221 18 QCURVE SMOOTH",
"66 18 OFFCURVE",
"71 203 QCURVE",
"44 203 LINE",
"45 199 OFFCURVE",
"45 172 QCURVE SMOOTH",
"45 64 OFFCURVE",
"20 10 QCURVE",
"26 12 OFFCURVE",
"56 18 OFFCURVE",
"69 18 QCURVE SMOOTH",
"80 18 OFFCURVE",
"114 9 QCURVE SMOOTH",
"176 -7 OFFCURVE",
"206 -10 QCURVE SMOOTH"
);
}
);
userData = {
assembly = "NPUSHB[ ]\011/* 11 values pushed */
6 1 0 1 47 13 2 3 0 2 74 
MPPEM[ ]\011/* MeasurePixelPerEm */
PUSHB[ ]\011/* 1 value pushed */
27 
LT[ ]\011/* LessThan */
IF[ ]\011/* If */
NPUSHB[ ]\011/* 35 values pushed */
0 0 1 3 1 0 3 126 0 1 1 5 95 6 1 5 5 25 75 0 3 3 21 75 0 4 4 2 95 0 2 2 26 2 76 
ELSE[ ]\011/* Else */
NPUSHB[ ]\011/* 37 values pushed */
0 0 1 3 1 0 3 126 0 3 4 1 3 4 124 0 1 1 5 95 6 1 5 5 25 75 0 4 4 2 95 0 2 2 26 2 76 
EIF[ ]\011/* EndIf */
NPUSHB[ ]\011/* 14 values pushed */
0 0 0 64 0 63 42 35 44 44 35 7 7 25 
CALL[ ]\011/* CallFunction */";
};
width = 479;
},
{
anchors = (
{
name = bottom;
position = "{215, 0}";
},
{
name = top;
position = "{298, 597}";
}
);
background = {
paths = (
{
closed = 1;
nodes = (
"231 607 OFFCURVE",
"129 557 OFFCURVE",
"76 472 OFFCURVE",
"76 420 QCURVE SMOOTH",
"76 366 OFFCURVE",
"131 292 OFFCURVE",
"182 265 QCURVE SMOOTH",
"251 229 LINE SMOOTH",
"296 205 OFFCURVE",
"340 156 OFFCURVE",
"340 122 QCURVE SMOOTH",
"340 80 OFFCURVE",
"270 26 OFFCURVE",
"219 26 QCURVE SMOOTH",
"149 26 OFFCURVE",
"70 116 OFFCURVE",
"72 203 QCURVE",
"38 200 LINE",
"40 199 OFFCURVE",
"40 178 QCURVE SMOOTH",
"40 87 OFFCURVE",
"16 12 QCURVE",
"21 14 OFFCURVE",
"48 18 OFFCURVE",
"59 18 QCURVE SMOOTH",
"75 18 OFFCURVE",
"132 3 QCURVE SMOOTH",
"184 -10 OFFCURVE",
"223 -10 QCURVE SMOOTH",
"299 -10 OFFCURVE",
"410 43 OFFCURVE",
"467 134 OFFCURVE",
"467 189 QCURVE SMOOTH",
"467 244 OFFCURVE",
"408 311 OFFCURVE",
"343 347 QCURVE SMOOTH",
"282 382 LINE SMOOTH",
"237 406 OFFCURVE",
"195 452 OFFCURVE",
"195 484 QCURVE SMOOTH",
"195 527 OFFCURVE",
"265 573 OFFCURVE",
"314 573 QCURVE SMOOTH",
"372 573 OFFCURVE",
"443 508 OFFCURVE",
"443 455 QCURVE SMOOTH",
"443 441 OFFCURVE",
"442 434 QCURVE",
"476 434 LINE",
"474 446 OFFCURVE",
"474 459 QCURVE SMOOTH",
"474 490 OFFCURVE",
"485 542 OFFCURVE",
"493 576 QCURVE",
"481 572 OFFCURVE",
"463 572 QCURVE SMOOTH",
"452 572 OFFCURVE",
"435 578 QCURVE SMOOTH",
"381 597 OFFCURVE",
"336 607 OFFCURVE",
"303 607 QCURVE SMOOTH"
);
}
);
};
layerId = "EC024578-EFD3-4C50-A1DE-0E38CDD8AD0F";
paths = (
{
closed = 1;
nodes = (
"299 -10 OFFCURVE",
"410 43 OFFCURVE",
"467 134 OFFCURVE",
"467 189 QCURVE SMOOTH",
"467 244 OFFCURVE",
"408 311 OFFCURVE",
"343 347 QCURVE SMOOTH",
"282 382 LINE SMOOTH",
"237 406 OFFCURVE",
"195 452 OFFCURVE",
"195 484 QCURVE SMOOTH",
"195 527 OFFCURVE",
"265 573 OFFCURVE",
"314 573 QCURVE SMOOTH",
"372 573 OFFCURVE",
"443 508 OFFCURVE",
"443 455 QCURVE SMOOTH",
"443 441 OFFCURVE",
"442 434 QCURVE",
"476 434 LINE",
"474 446 OFFCURVE",
"474 459 QCURVE SMOOTH",
"474 490 OFFCURVE",
"485 542 OFFCURVE",
"493 576 QCURVE",
"481 572 OFFCURVE",
"463 572 QCURVE SMOOTH",
"452 572 OFFCURVE",
"435 578 QCURVE SMOOTH",
"381 597 OFFCURVE",
"336 607 OFFCURVE",
"303 607 QCURVE SMOOTH",
"231 607 OFFCURVE",
"129 557 OFFCURVE",
"76 472 OFFCURVE",
"76 420 QCURVE SMOOTH",
"76 366 OFFCURVE",
"131 292 OFFCURVE",
"182 265 QCURVE SMOOTH",
"251 229 LINE SMOOTH",
"296 205 OFFCURVE",
"340 156 OFFCURVE",
"340 122 QCURVE SMOOTH",
"340 80 OFFCURVE",
"270 26 OFFCURVE",
"219 26 QCURVE SMOOTH",
"72 26 OFFCURVE",
"72 203 QCURVE",
"38 200 LINE",
"40 199 OFFCURVE",
"40 178 QCURVE SMOOTH",
"40 87 OFFCURVE",
"16 12 QCURVE",
"21 14 OFFCURVE",
"48 18 OFFCURVE",
"59 18 QCURVE SMOOTH",
"75 18 OFFCURVE",
"132 3 QCURVE SMOOTH",
"184 -10 OFFCURVE",
"223 -10 QCURVE SMOOTH"
);
}
);
userData = {
assembly = "NPUSHB[ ]\011/* 10 values pushed */
7 1 2 6 44 1 5 1 2 74 
MPPEM[ ]\011/* MeasurePixelPerEm */
PUSHB[ ]\011/* 1 value pushed */
27 
LT[ ]\011/* LessThan */
IF[ ]\011/* If */
NPUSHB[ ]\011/* 35 values pushed */
0 0 0 1 5 0 1 101 0 2 2 6 95 7 1 6 6 25 75 0 4 4 21 75 0 5 5 3 95 0 3 3 26 3 76 
ELSE[ ]\011/* Else */
NPUSHB[ ]\011/* 38 values pushed */
0 4 5 3 5 4 3 126 0 0 0 1 5 0 1 101 0 2 2 6 95 7 1 6 6 25 75 0 5 5 3 95 0 3 3 26 3 76 
EIF[ ]\011/* EndIf */
NPUSHB[ ]\011/* 15 values pushed */
0 0 0 61 0 60 41 34 44 36 22 36 8 7 26 
CALL[ ]\011/* CallFunction */";
};
width = 496;
}
);
note = S;
unicode = 0053;
},
{
glyphname = Germandbls;
layers = (
{
layerId = "9A6463FA-02C3-4660-BEDA-F7CC218AE705";
paths = (
{
closed = 1;
nodes = (
"169 0 LINE",
"247 556 LINE",
"249 569 OFFCURVE",
"261 569 QCURVE SMOOTH",
"526 569 LINE",
"532 597 LINE",
"102 597 LINE",
"97 567 LINE",
"137 569 LINE",
"139 569 LINE SMOOTH",
"156 569 OFFCURVE",
"153 548 QCURVE SMOOTH",
"83 49 LINE SMOOTH",
"80 27 OFFCURVE",
"62 27 QCURVE",
"22 30 LINE",
"18 0 LINE"
);
},
{
closed = 1;
nodes = (
"429 -10 OFFCURVE",
"545 98 OFFCURVE",
"545 181 QCURVE SMOOTH",
"545 341 OFFCURVE",
"344 340 QCURVE",
"286 340 LINE",
"283 319 LINE",
"393 315 OFFCURVE",
"456 244 OFFCURVE",
"456 179 QCURVE SMOOTH",
"456 94 OFFCURVE",
"392 17 OFFCURVE",
"340 17 QCURVE SMOOTH",
"301 17 OFFCURVE",
"283 50 OFFCURVE",
"290 77 QCURVE SMOOTH",
"293 88 OFFCURVE",
"305 114 OFFCURVE",
"306 126 QCURVE SMOOTH",
"309 143 OFFCURVE",
"287 165 OFFCURVE",
"265 165 QCURVE SMOOTH",
"241 165 OFFCURVE",
"212 138 OFFCURVE",
"209 115 QCURVE SMOOTH",
"201 61 OFFCURVE",
"271 -10 OFFCURVE",
"344 -10 QCURVE SMOOTH"
);
},
{
closed = 1;
nodes = (
"552 569 LINE",
"532 597 LINE",
"286 340 LINE",
"313 325 LINE"
);
}
);
width = 577;
},
{
layerId = "EC024578-EFD3-4C50-A1DE-0E38CDD8AD0F";
paths = (
{
closed = 1;
nodes = (
"201 0 LINE",
"278 549 LINE",
"280 562 OFFCURVE",
"292 562 QCURVE SMOOTH",
"588 562 LINE",
"608 597 LINE",
"93 597 LINE",
"87 560 LINE",
"123 562 LINE",
"125 562 LINE SMOOTH",
"142 562 OFFCURVE",
"139 541 QCURVE SMOOTH",
"71 57 LINE SMOOTH",
"68 35 OFFCURVE",
"50 35 QCURVE",
"14 38 LINE",
"9 0 LINE"
);
},
{
closed = 1;
nodes = (
"527 -10 OFFCURVE",
"646 99 OFFCURVE",
"646 178 QCURVE SMOOTH",
"646 341 OFFCURVE",
"434 340 QCURVE SMOOTH",
"345 340 LINE",
"340 308 LINE",
"454 299 OFFCURVE",
"511 226 OFFCURVE",
"511 161 QCURVE SMOOTH",
"511 116 OFFCURVE",
"450 25 OFFCURVE",
"403 25 QCURVE SMOOTH",
"380 25 OFFCURVE",
"355 52 OFFCURVE",
"359 78 QCURVE SMOOTH",
"360 90 OFFCURVE",
"373 119 OFFCURVE",
"374 126 QCURVE SMOOTH",
"378 149 OFFCURVE",
"349 177 OFFCURVE",
"322 177 QCURVE SMOOTH",
"289 177 OFFCURVE",
"247 140 OFFCURVE",
"243 111 QCURVE SMOOTH",
"234 46 OFFCURVE",
"326 -10 OFFCURVE",
"404 -10 QCURVE SMOOTH"
);
},
{
closed = 1;
nodes = (
"632 562 LINE",
"608 597 LINE",
"345 340 LINE",
"384 325 LINE"
);
}
);
width = 667;
}
);
unicode = 1E9E;
},
{
glyphname = Schwa;
layers = (
{
layerId = "9A6463FA-02C3-4660-BEDA-F7CC218AE705";
paths = (
{
closed = 1;
nodes = (
"430 -10 OFFCURVE",
"602 183 OFFCURVE",
"602 353 QCURVE SMOOTH",
"602 602 OFFCURVE",
"359 606 QCURVE SMOOTH",
"280 606 OFFCURVE",
"143 529 OFFCURVE",
"106 462 QCURVE",
"135 438 LINE",
"164 490 OFFCURVE",
"271 560 OFFCURVE",
"341 560 QCURVE SMOOTH",
"439 560 OFFCURVE",
"516 433 OFFCURVE",
"497 295 QCURVE",
"67 295 LINE",
"61 255 LINE",
"47 131 OFFCURVE",
"156 -10 OFFCURVE",
"273 -10 QCURVE SMOOTH"
);
},
{
closed = 1;
nodes = (
"206 17 OFFCURVE",
"140 117 OFFCURVE",
"155 217 QCURVE SMOOTH",
"159 244 OFFCURVE",
"175 263 OFFCURVE",
"189 263 QCURVE SMOOTH",
"491 263 LINE",
"476 155 OFFCURVE",
"370 17 OFFCURVE",
"281 17 QCURVE SMOOTH"
);
}
);
width = 628;
},
{
layerId = "EC024578-EFD3-4C50-A1DE-0E38CDD8AD0F";
paths = (
{
closed = 1;
nodes = (
"430 -10 OFFCURVE",
"633 178 OFFCURVE",
"633 341 QCURVE SMOOTH",
"633 606 OFFCURVE",
"375 606 QCURVE SMOOTH",
"287 606 OFFCURVE",
"141 531 OFFCURVE",
"99 464 QCURVE",
"123 437 LINE",
"161 484 OFFCURVE",
"265 549 OFFCURVE",
"340 549 QCURVE SMOOTH",
"439 549 OFFCURVE",
"496 435 OFFCURVE",
"478 304 QCURVE",
"51 304 LINE",
"44 253 LINE",
"28 127 OFFCURVE",
"141 -10 OFFCURVE",
"267 -10 QCURVE SMOOTH"
);
},
{
closed = 1;
nodes = (
"203 25 OFFCURVE",
"166 127 OFFCURVE",
"178 213 QCURVE SMOOTH",
"182 239 OFFCURVE",
"199 259 OFFCURVE",
"213 259 QCURVE SMOOTH",
"471 259 LINE",
"457 160 OFFCURVE",
"375 25 OFFCURVE",
"285 25 QCURVE SMOOTH"
);
}
);
width = 649;
}
);
unicode = 018F;
},
{
glyphname = T;
layers = (
{
anchors = (
{
name = bottom;
position = "{227, 0}";
},
{
name = center;
position = "{269, 303}";
},
{
name = top;
position = "{311, 597}";
}
);
layerId = "9A6463FA-02C3-4660-BEDA-F7CC218AE705";
paths = (
{
closed = 1;
nodes = (
"343 0 LINE",
"347 29 LINE",
"294 27 LINE",
"280 27 OFFCURVE",
"280 43 QCURVE SMOOTH",
"280 49 LINE",
"351 558 LINE",
"351 569 OFFCURVE",
"363 569 QCURVE SMOOTH",
"403 569 LINE SMOOTH",
"456 569 OFFCURVE",
"505 525 OFFCURVE",
"505 479 QCURVE SMOOTH",
"505 463 OFFCURVE",
"502 443 QCURVE",
"530 443 LINE",
"552 600 LINE",
"546 597 OFFCURVE",
"512 597 QCURVE SMOOTH",
"108 597 LINE SMOOTH",
"84 597 OFFCURVE",
"68 599 QCURVE",
"46 443 LINE",
"74 443 LINE",
"83 508 OFFCURVE",
"147 569 OFFCURVE",
"210 569 QCURVE SMOOTH",
"250 569 LINE SMOOTH",
"258 569 OFFCURVE",
"258 560 QCURVE SMOOTH",
"258 557 LINE",
"187 52 LINE",
"185 41 OFFCURVE",
"175 27 OFFCURVE",
"167 27 QCURVE",
"113 29 LINE",
"109 0 LINE"
);
}
);
userData = {
assembly = "NPUSHB[ ]\011/* 14 values pushed */
23 1 0 1 11 1 2 0 2 74 37 1 7 72 
MPPEM[ ]\011/* MeasurePixelPerEm */
PUSHB[ ]\011/* 1 value pushed */
10 
LT[ ]\011/* LessThan */
IF[ ]\011/* If */
NPUSHB[ ]\011/* 31 values pushed */
6 1 0 1 2 1 0 112 5 1 1 1 7 93 0 7 7 17 75 4 1 2 2 3 93 0 3 3 21 3 76 
ELSE[ ]\011/* Else */
NPUSHB[ ]\011/* 32 values pushed */
6 1 0 1 2 1 0 2 126 5 1 1 1 7 93 0 7 7 17 75 4 1 2 2 3 93 0 3 3 21 3 76 
EIF[ ]\011/* EndIf */
NPUSHB[ ]\011/* 11 values pushed */
50 18 54 17 17 38 36 16 8 7 28 
CALL[ ]\011/* CallFunction */";
};
width = 512;
},
{
anchors = (
{
name = bottom;
position = "{240, 0}";
},
{
name = center;
position = "{282, 303}";
},
{
name = top;
position = "{324, 597}";
}
);
layerId = "EC024578-EFD3-4C50-A1DE-0E38CDD8AD0F";
paths = (
{
closed = 1;
nodes = (
"381 0 LINE",
"386 37 LINE",
"333 35 LINE",
"317 35 OFFCURVE",
"317 52 QCURVE SMOOTH",
"317 57 LINE",
"386 551 LINE",
"389 562 OFFCURVE",
"400 562 QCURVE SMOOTH",
"419 562 LINE SMOOTH",
"475 562 OFFCURVE",
"525 520 OFFCURVE",
"525 475 QCURVE SMOOTH",
"525 455 OFFCURVE",
"523 444 QCURVE",
"557 444 LINE",
"579 600 LINE",
"569 598 OFFCURVE",
"532 598 QCURVE SMOOTH",
"116 598 LINE SMOOTH",
"87 598 OFFCURVE",
"69 600 QCURVE",
"47 444 LINE",
"81 444 LINE",
"89 505 OFFCURVE",
"156 562 OFFCURVE",
"221 562 QCURVE SMOOTH",
"239 562 LINE SMOOTH",
"248 562 OFFCURVE",
"248 553 QCURVE SMOOTH",
"248 550 LINE",
"180 60 LINE",
"178 50 OFFCURVE",
"166 35 OFFCURVE",
"157 35 QCURVE",
"103 37 LINE",
"99 0 LINE"
);
}
);
userData = {
assembly = "NPUSHB[ ]\011/* 14 values pushed */
22 1 0 1 10 1 2 0 2 74 36 1 7 72 
MPPEM[ ]\011/* MeasurePixelPerEm */
PUSHB[ ]\011/* 1 value pushed */
10 
LT[ ]\011/* LessThan */
IF[ ]\011/* If */
NPUSHB[ ]\011/* 31 values pushed */
6 1 0 1 2 1 0 112 5 1 1 1 7 93 0 7 7 17 75 4 1 2 2 3 93 0 3 3 21 3 76 
ELSE[ ]\011/* Else */
NPUSHB[ ]\011/* 32 values pushed */
6 1 0 1 2 1 0 2 126 5 1 1 1 7 93 0 7 7 17 75 4 1 2 2 3 93 0 3 3 21 3 76 
EIF[ ]\011/* EndIf */
NPUSHB[ ]\011/* 11 values pushed */
50 18 53 33 17 36 52 16 8 7 28 
CALL[ ]\011/* CallFunction */";
};
width = 540;
}
);
leftKerningGroup = T;
note = T;
rightKerningGroup = T;
unicode = 0054;
},
{
glyphname = U;
layers = (
{
anchors = (
{
name = bottom;
position = "{318, 0}";
},
{
name = ogonek;
position = "{394, 0}";
},
{
name = top;
position = "{399, 597}";
},
{
name = topright;
position = "{456, 598}";
}
);
background = {
paths = (
{
closed = 1;
nodes = (
"661 597 LINE",
"503 597 LINE",
"499 567 LINE",
"548 569 LINE",
"561 569 OFFCURVE",
"561 553 QCURVE SMOOTH",
"561 548 LINE",
"512 198 LINE SMOOTH",
"499 110 OFFCURVE",
"409 26 OFFCURVE",
"324 26 QCURVE SMOOTH",
"254 26 OFFCURVE",
"177 98 OFFCURVE",
"177 163 QCURVE SMOOTH",
"177 180 OFFCURVE",
"180 199 QCURVE SMOOTH",
"229 549 LINE SMOOTH",
"232 569 OFFCURVE",
"250 569 QCURVE",
"299 567 LINE",
"303 597 LINE",
"88 597 LINE",
"84 567 LINE",
"123 569 LINE",
"129 569 OFFCURVE",
"136 560 OFFCURVE",
"136 553 QCURVE SMOOTH",
"136 548 LINE",
"87 199 LINE SMOOTH",
"84 180 OFFCURVE",
"84 161 QCURVE SMOOTH",
"84 77 OFFCURVE",
"197 -10 OFFCURVE",
"303 -10 QCURVE SMOOTH",
"412 -10 OFFCURVE",
"534 88 OFFCURVE",
"548 189 QCURVE SMOOTH",
"599 549 LINE SMOOTH",
"602 569 OFFCURVE",
"618 569 QCURVE",
"657 567 LINE"
);
}
);
};
layerId = "9A6463FA-02C3-4660-BEDA-F7CC218AE705";
paths = (
{
closed = 1;
nodes = (
"411 -10 OFFCURVE",
"534 88 OFFCURVE",
"548 189 QCURVE SMOOTH",
"599 549 LINE SMOOTH",
"602 569 OFFCURVE",
"618 569 QCURVE",
"657 567 LINE",
"661 597 LINE",
"503 597 LINE",
"499 567 LINE",
"548 569 LINE",
"561 569 OFFCURVE",
"561 553 QCURVE SMOOTH",
"561 548 LINE",
"512 198 LINE SMOOTH",
"499 110 OFFCURVE",
"409 26 OFFCURVE",
"324 26 QCURVE SMOOTH",
"254 26 OFFCURVE",
"177 98 OFFCURVE",
"177 163 QCURVE SMOOTH",
"177 180 OFFCURVE",
"180 199 QCURVE SMOOTH",
"229 549 LINE SMOOTH",
"232 569 OFFCURVE",
"250 569 QCURVE",
"299 567 LINE",
"303 597 LINE",
"88 597 LINE",
"84 567 LINE",
"123 569 LINE",
"129 569 OFFCURVE",
"136 560 OFFCURVE",
"136 553 QCURVE SMOOTH",
"136 548 LINE",
"87 199 LINE SMOOTH",
"84 180 OFFCURVE",
"84 161 QCURVE SMOOTH",
"84 -10 OFFCURVE",
"303 -10 QCURVE SMOOTH"
);
}
);
userData = {
assembly = "NPUSHB[ ]\011/* 43 values pushed */
34 13 2 5 0 1 74 6 4 2 3 0 0 3 93 7 1 3 3 17 75 0 5 5 1 95 0 1 1 26 1 76 17 37 38 33 17 40 36 32 8 7 28 
CALL[ ]\011/* CallFunction */";
};
width = 631;
},
{
anchors = (
{
name = bottom;
position = "{349, 0}";
},
{
name = ogonek;
position = "{410, 0}";
},
{
name = top;
position = "{430, 597}";
},
{
name = topright;
position = "{487, 598}";
}
);
layerId = "EC024578-EFD3-4C50-A1DE-0E38CDD8AD0F";
paths = (
{
closed = 1;
nodes = (
"437 -10 OFFCURVE",
"554 98 OFFCURVE",
"569 203 QCURVE SMOOTH",
"617 542 LINE SMOOTH",
"620 562 OFFCURVE",
"639 562 QCURVE",
"677 560 LINE",
"683 597 LINE",
"515 597 LINE",
"510 560 LINE",
"559 562 LINE",
"574 562 OFFCURVE",
"574 544 QCURVE SMOOTH",
"574 541 LINE",
"526 203 LINE SMOOTH",
"515 120 OFFCURVE",
"435 32 OFFCURVE",
"356 32 QCURVE SMOOTH",
"292 32 OFFCURVE",
"224 95 OFFCURVE",
"224 159 QCURVE SMOOTH",
"224 178 OFFCURVE",
"227 199 QCURVE SMOOTH",
"276 542 LINE SMOOTH",
"279 562 OFFCURVE",
"298 562 QCURVE",
"346 560 LINE",
"352 597 LINE",
"89 597 LINE",
"83 560 LINE",
"122 562 LINE",
"129 562 OFFCURVE",
"138 551 OFFCURVE",
"138 543 QCURVE SMOOTH",
"138 541 LINE",
"89 199 LINE SMOOTH",
"86 178 OFFCURVE",
"86 160 QCURVE SMOOTH",
"86 -10 OFFCURVE",
"325 -10 QCURVE SMOOTH"
);
}
);
userData = {
assembly = "NPUSHB[ ]\011/* 43 values pushed */
35 13 2 5 0 1 74 6 4 2 3 0 0 3 93 7 1 3 3 17 75 0 5 5 1 95 0 1 1 26 1 76 17 37 39 33 17 39 38 16 8 7 28 
CALL[ ]\011/* CallFunction */";
};
width = 654;
}
);
note = U;
rightKerningGroup = U;
unicode = 0055;
},
{
glyphname = Uhorn;
layers = (
{
anchors = (
{
name = bottom;
position = "{315, 0}";
},
{
name = top;
position = "{396, 597}";
}
);
layerId = "9A6463FA-02C3-4660-BEDA-F7CC218AE705";
paths = (
{
closed = 1;
nodes = (
"411 -10 OFFCURVE",
"534 88 OFFCURVE",
"548 189 QCURVE SMOOTH",
"606 597 LINE",
"503 597 LINE",
"499 567 LINE",
"548 569 LINE",
"561 569 OFFCURVE",
"561 553 QCURVE SMOOTH",
"561 548 LINE",
"512 198 LINE SMOOTH",
"499 110 OFFCURVE",
"409 26 OFFCURVE",
"324 26 QCURVE SMOOTH",
"254 26 OFFCURVE",
"177 98 OFFCURVE",
"177 163 QCURVE SMOOTH",
"177 180 OFFCURVE",
"180 199 QCURVE SMOOTH",
"229 549 LINE SMOOTH",
"232 569 OFFCURVE",
"250 569 QCURVE",
"299 567 LINE",
"303 597 LINE",
"88 597 LINE",
"84 567 LINE",
"123 569 LINE",
"129 569 OFFCURVE",
"136 560 OFFCURVE",
"136 553 QCURVE SMOOTH",
"136 548 LINE",
"87 199 LINE SMOOTH",
"84 180 OFFCURVE",
"84 161 QCURVE SMOOTH",
"84 -10 OFFCURVE",
"303 -10 QCURVE SMOOTH"
);
},
{
closed = 1;
nodes = (
"730 579 OFFCURVE",
"744 679 QCURVE SMOOTH",
"747 702 OFFCURVE",
"724 730 OFFCURVE",
"701 730 QCURVE SMOOTH",
"681 730 OFFCURVE",
"654 708 OFFCURVE",
"652 691 QCURVE SMOOTH",
"649 671 OFFCURVE",
"682 653 OFFCURVE",
"680 639 QCURVE SMOOTH",
"673 594 OFFCURVE",
"597 597 QCURVE",
"599 568 LINE"
);
}
);
width = 661;
},
{
anchors = (
{
name = bottom;
position = "{349, 0}";
},
{
name = top;
position = "{430, 597}";
}
);
layerId = "EC024578-EFD3-4C50-A1DE-0E38CDD8AD0F";
paths = (
{
closed = 1;
nodes = (
"437 -10 OFFCURVE",
"554 98 OFFCURVE",
"569 203 QCURVE SMOOTH",
"625 597 LINE",
"515 597 LINE",
"510 560 LINE",
"559 562 LINE",
"574 562 OFFCURVE",
"574 544 QCURVE SMOOTH",
"574 541 LINE",
"526 203 LINE SMOOTH",
"515 120 OFFCURVE",
"435 32 OFFCURVE",
"356 32 QCURVE SMOOTH",
"292 32 OFFCURVE",
"224 95 OFFCURVE",
"224 159 QCURVE SMOOTH",
"224 178 OFFCURVE",
"227 199 QCURVE SMOOTH",
"276 542 LINE SMOOTH",
"279 562 OFFCURVE",
"298 562 QCURVE",
"346 560 LINE",
"352 597 LINE",
"89 597 LINE",
"83 560 LINE",
"122 562 LINE",
"129 562 OFFCURVE",
"138 551 OFFCURVE",
"138 543 QCURVE SMOOTH",
"138 541 LINE",
"89 199 LINE SMOOTH",
"86 178 OFFCURVE",
"86 160 QCURVE SMOOTH",
"86 -10 OFFCURVE",
"325 -10 QCURVE SMOOTH"
);
},
{
closed = 1;
nodes = (
"763 560 OFFCURVE",
"782 691 QCURVE SMOOTH",
"786 718 OFFCURVE",
"759 753 OFFCURVE",
"732 753 QCURVE SMOOTH",
"710 753 OFFCURVE",
"673 727 OFFCURVE",
"670 702 QCURVE SMOOTH",
"667 677 OFFCURVE",
"703 660 OFFCURVE",
"700 641 QCURVE SMOOTH",
"693 597 OFFCURVE",
"613 597 QCURVE",
"617 558 LINE"
);
}
);
width = 684;
}
);
unicode = 01AF;
},
{
glyphname = V;
layers = (
{
layerId = "9A6463FA-02C3-4660-BEDA-F7CC218AE705";
paths = (
{
closed = 1;
nodes = (
"275 -4 LINE",
"577 546 LINE SMOOTH",
"584 559 OFFCURVE",
"593 569 OFFCURVE",
"599 569 QCURVE",
"635 567 LINE",
"639 597 LINE",
"485 597 LINE",
"481 567 LINE",
"532 569 LINE",
"541 569 OFFCURVE",
"541 561 QCURVE SMOOTH",
"541 554 OFFCURVE",
"536 546 QCURVE",
"311 134 LINE",
"192 545 LINE SMOOTH",
"189 555 OFFCURVE",
"193 569 OFFCURVE",
"202 569 QCURVE SMOOTH",
"255 567 LINE",
"259 597 LINE",
"49 597 LINE",
"45 567 LINE",
"73 569 LINE",
"85 569 OFFCURVE",
"91 546 QCURVE SMOOTH",
"246 -4 LINE"
);
}
);
userData = {
assembly = "NPUSHB[ ]\011/* 43 values pushed */
21 11 2 1 0 1 74 5 4 2 3 0 0 3 93 7 6 2 3 3 17 75 0 1 1 18 1 76 0 0 0 28 0 28 42 17 18 18 20 17 8 7 26 
CALL[ ]\011/* CallFunction */";
};
width = 564;
},
{
layerId = "EC024578-EFD3-4C50-A1DE-0E38CDD8AD0F";
paths = (
{
closed = 1;
nodes = (
"304 -4 LINE",
"612 539 LINE SMOOTH",
"620 553 OFFCURVE",
"629 562 OFFCURVE",
"636 562 QCURVE",
"671 560 LINE",
"677 597 LINE",
"516 597 LINE",
"510 560 LINE",
"559 562 LINE",
"570 562 OFFCURVE",
"570 554 QCURVE SMOOTH",
"570 548 OFFCURVE",
"560 530 QCURVE SMOOTH",
"350 159 LINE",
"239 538 LINE",
"237 547 OFFCURVE",
"245 562 OFFCURVE",
"252 562 QCURVE",
"301 560 LINE",
"306 597 LINE",
"52 597 LINE",
"47 560 LINE",
"75 562 LINE SMOOTH",
"87 563 OFFCURVE",
"94 539 QCURVE SMOOTH",
"251 -4 LINE"
);
}
);
userData = {
assembly = "NPUSHB[ ]\011/* 42 values pushed */
20 1 1 0 1 74 5 4 2 3 0 0 3 93 7 6 2 3 3 17 75 0 1 1 18 1 76 0 0 0 27 0 27 40 17 17 35 20 17 8 7 26 
CALL[ ]\011/* CallFunction */";
};
width = 602;
}
);
leftKerningGroup = V;
note = V;
rightKerningGroup = V;
unicode = 0056;
},
{
glyphname = W;
layers = (
{
anchors = (
{
name = top;
position = "{504, 597}";
}
);
background = {
paths = (
{
closed = 1;
nodes = (
"778 597 LINE",
"774 567 LINE",
"826 569 LINE",
"835 569 OFFCURVE",
"835 561 QCURVE SMOOTH",
"835 555 OFFCURVE",
"832 549 QCURVE",
"657 145 LINE",
"552 547 LINE",
"551 550 OFFCURVE",
"551 569 OFFCURVE",
"561 569 QCURVE",
"605 567 LINE",
"609 597 LINE",
"406 597 LINE",
"402 567 LINE",
"443 569 LINE",
"450 569 OFFCURVE",
"456 563 OFFCURVE",
"458 556 QCURVE",
"284 160 LINE",
"192 547 LINE",
"190 559 LINE",
"190 569 OFFCURVE",
"200 569 QCURVE",
"256 567 LINE",
"260 597 LINE",
"49 597 LINE",
"45 567 LINE",
"75 569 LINE",
"87 569 OFFCURVE",
"91 547 QCURVE",
"221 -10 LINE",
"242 -10 LINE",
"471 505 LINE",
"602 -10 LINE",
"620 -10 LINE",
"869 548 LINE",
"880 569 OFFCURVE",
"894 569 QCURVE",
"925 567 LINE",
"929 597 LINE"
);
}
);
};
layerId = "9A6463FA-02C3-4660-BEDA-F7CC218AE705";
paths = (
{
closed = 1;
nodes = (
"242 -10 LINE",
"471 505 LINE",
"602 -10 LINE",
"620 -10 LINE",
"869 548 LINE",
"880 569 OFFCURVE",
"894 569 QCURVE",
"925 567 LINE",
"929 597 LINE",
"778 597 LINE",
"774 567 LINE",
"826 569 LINE",
"835 569 OFFCURVE",
"835 561 QCURVE SMOOTH",
"835 555 OFFCURVE",
"832 549 QCURVE",
"657 145 LINE",
"539 597 LINE",
"476 597 LINE",
"284 160 LINE",
"192 547 LINE",
"190 559 LINE",
"190 569 OFFCURVE",
"200 569 QCURVE",
"256 567 LINE",
"260 597 LINE",
"49 597 LINE",
"45 567 LINE",
"75 569 LINE",
"87 569 OFFCURVE",
"91 547 QCURVE",
"221 -10 LINE"
);
}
);
userData = {
assembly = "NPUSHB[ ]\011/* 55 values pushed */
36 33 21 19 7 5 1 0 1 74 9 8 6 5 3 5 0 0 4 93 11 10 7 3 4 4 17 75 2 1 1 1 18 1 76 0 0 0 43 0 43 42 40 33 17 39 33 17 34 18 18 33 12 7 29 
CALL[ ]\011/* CallFunction */";
};
width = 854;
},
{
anchors = (
{
name = top;
position = "{534, 597}";
}
);
background = {
paths = (
{
closed = 1;
nodes = (
"819 597 LINE",
"812 560 LINE",
"865 562 LINE",
"875 562 OFFCURVE",
"875 552 QCURVE SMOOTH",
"875 550 OFFCURVE",
"873 542 QCURVE",
"692 159 LINE",
"606 540 LINE",
"604 547 OFFCURVE",
"612 562 OFFCURVE",
"619 562 QCURVE",
"661 560 LINE",
"666 597 LINE",
"420 597 LINE",
"415 560 LINE",
"457 562 LINE",
"466 562 OFFCURVE",
"473 549 OFFCURVE",
"479 526 QCURVE",
"315 183 LINE",
"236 540 LINE",
"235 549 LINE",
"235 562 OFFCURVE",
"249 562 QCURVE",
"300 560 LINE",
"305 597 LINE",
"51 597 LINE",
"46 560 LINE",
"77 562 LINE",
"90 562 OFFCURVE",
"93 540 QCURVE",
"217 -10 LINE",
"267 -10 LINE",
"493 467 LINE",
"609 -10 LINE",
"655 -10 LINE",
"916 541 LINE SMOOTH",
"927 563 OFFCURVE",
"943 562 QCURVE SMOOTH",
"972 560 LINE",
"978 597 LINE"
);
}
);
};
layerId = "EC024578-EFD3-4C50-A1DE-0E38CDD8AD0F";
paths = (
{
closed = 1;
nodes = (
"267 -10 LINE",
"493 467 LINE",
"609 -10 LINE",
"655 -10 LINE",
"916 541 LINE SMOOTH",
"927 563 OFFCURVE",
"943 562 QCURVE SMOOTH",
"972 560 LINE",
"978 597 LINE",
"819 597 LINE",
"812 560 LINE",
"865 562 LINE",
"875 562 OFFCURVE",
"875 552 QCURVE SMOOTH",
"875 550 OFFCURVE",
"873 542 QCURVE",
"692 159 LINE",
"593 597 LINE",
"513 597 LINE",
"315 183 LINE",
"236 540 LINE",
"235 549 LINE",
"235 562 OFFCURVE",
"249 562 QCURVE",
"300 560 LINE",
"305 597 LINE",
"51 597 LINE",
"46 560 LINE",
"77 562 LINE",
"90 562 OFFCURVE",
"93 540 QCURVE",
"217 -10 LINE"
);
}
);
userData = {
assembly = "NPUSHB[ ]\011/* 54 values pushed */
37 23 20 8 4 1 0 1 74 9 8 6 5 3 5 0 0 4 93 11 10 7 3 4 4 17 75 2 1 1 1 18 1 76 0 0 0 44 0 44 43 41 17 17 40 33 17 34 18 19 33 12 7 29 
CALL[ ]\011/* CallFunction */";
};
width = 904;
}
);
leftKerningGroup = V;
note = W;
rightKerningGroup = V;
unicode = 0057;
},
{
glyphname = X;
layers = (
{
layerId = "9A6463FA-02C3-4660-BEDA-F7CC218AE705";
paths = (
{
closed = 1;
nodes = (
"156 0 LINE",
"160 30 LINE",
"114 27 LINE",
"108 27 OFFCURVE",
"108 34 QCURVE SMOOTH",
"108 40 OFFCURVE",
"113 47 QCURVE SMOOTH",
"272 261 LINE",
"362 51 LINE SMOOTH",
"365 44 OFFCURVE",
"365 38 QCURVE SMOOTH",
"365 27 OFFCURVE",
"354 27 QCURVE",
"305 30 LINE",
"301 0 LINE",
"531 0 LINE",
"535 30 LINE",
"496 27 LINE SMOOTH",
"487 26 OFFCURVE",
"474 37 OFFCURVE",
"470 44 QCURVE",
"347 329 LINE",
"511 549 LINE SMOOTH",
"528 571 OFFCURVE",
"543 569 QCURVE",
"574 567 LINE",
"578 597 LINE",
"429 597 LINE",
"425 567 LINE",
"468 569 LINE",
"477 569 OFFCURVE",
"477 562 QCURVE SMOOTH",
"477 557 OFFCURVE",
"471 549 QCURVE SMOOTH",
"332 363 LINE",
"254 548 LINE",
"250 555 OFFCURVE",
"257 569 OFFCURVE",
"269 569 QCURVE",
"311 567 LINE",
"315 597 LINE",
"92 597 LINE",
"88 567 LINE",
"121 569 LINE",
"139 569 OFFCURVE",
"147 550 QCURVE SMOOTH",
"258 295 LINE",
"74 50 LINE SMOOTH",
"58 28 OFFCURVE",
"40 28 QCURVE",
"3 30 LINE",
"-1 0 LINE"
);
}
);
userData = {
assembly = "NPUSHB[ ]\011/* 60 values pushed */
44 32 19 16 10 5 6 2 0 1 74 9 8 6 3 0 0 7 93 11 10 2 7 7 17 75 5 3 2 2 2 1 93 4 1 1 1 21 1 76 0 0 0 52 0 52 51 49 33 17 36 33 17 40 33 25 17 12 7 29 
CALL[ ]\011/* CallFunction */";
};
width = 549;
},
{
layerId = "EC024578-EFD3-4C50-A1DE-0E38CDD8AD0F";
paths = (
{
closed = 1;
nodes = (
"155 0 LINE",
"161 38 LINE",
"115 35 LINE",
"107 35 OFFCURVE",
"107 43 QCURVE SMOOTH",
"107 47 OFFCURVE",
"112 55 QCURVE",
"261 250 LINE",
"347 57 LINE",
"351 47 OFFCURVE",
"351 44 QCURVE SMOOTH",
"351 34 OFFCURVE",
"340 34 QCURVE SMOOTH",
"289 37 LINE",
"284 0 LINE",
"559 0 LINE",
"564 37 LINE",
"532 34 LINE SMOOTH",
"522 33 OFFCURVE",
"509 43 OFFCURVE",
"505 51 QCURVE",
"378 331 LINE",
"539 542 LINE SMOOTH",
"554 562 OFFCURVE",
"572 562 QCURVE",
"606 560 LINE",
"612 597 LINE",
"449 597 LINE",
"444 560 LINE",
"488 562 LINE",
"498 562 OFFCURVE",
"498 555 QCURVE SMOOTH",
"498 550 OFFCURVE",
"492 542 QCURVE SMOOTH",
"362 374 LINE",
"291 541 LINE",
"287 548 OFFCURVE",
"295 562 OFFCURVE",
"307 562 QCURVE",
"349 560 LINE",
"354 597 LINE",
"86 597 LINE",
"81 560 LINE",
"106 562 LINE",
"126 562 OFFCURVE",
"134 543 QCURVE SMOOTH",
"246 293 LINE",
"67 58 LINE SMOOTH",
"51 36 OFFCURVE",
"30 36 QCURVE",
"-5 38 LINE",
"-11 0 LINE"
);
}
);
userData = {
assembly = "NPUSHB[ ]\011/* 61 values pushed */
45 37 33 20 17 10 5 7 2 0 1 74 9 8 6 3 0 0 7 93 11 10 2 7 7 17 75 5 3 2 2 2 1 93 4 1 1 1 21 1 76 0 0 0 52 0 52 51 49 33 18 20 33 17 40 49 24 33 12 7 29 
CALL[ ]\011/* CallFunction */";
};
width = 581;
}
);
note = X;
unicode = 0058;
},
{
glyphname = Y;
layers = (
{
anchors = (
{
name = bottom;
position = "{228, 0}";
},
{
name = top;
position = "{311, 597}";
}
);
layerId = "9A6463FA-02C3-4660-BEDA-F7CC218AE705";
paths = (
{
closed = 1;
nodes = (
"340 0 LINE",
"344 29 LINE",
"296 27 LINE",
"281 27 OFFCURVE",
"281 42 QCURVE SMOOTH",
"281 48 LINE",
"315 288 LINE",
"492 548 LINE SMOOTH",
"507 569 OFFCURVE",
"521 569 QCURVE",
"551 567 LINE",
"555 597 LINE",
"406 597 LINE",
"402 567 LINE",
"453 569 LINE",
"460 569 OFFCURVE",
"460 561 QCURVE SMOOTH",
"460 555 OFFCURVE",
"456 549 QCURVE SMOOTH",
"299 319 LINE",
"200 545 LINE",
"197 554 OFFCURVE",
"197 558 QCURVE SMOOTH",
"197 569 OFFCURVE",
"208 569 QCURVE",
"261 567 LINE",
"265 597 LINE",
"49 597 LINE",
"45 567 LINE",
"73 569 LINE",
"79 569 OFFCURVE",
"87 561 OFFCURVE",
"92 550 QCURVE SMOOTH",
"219 263 LINE",
"189 49 LINE SMOOTH",
"186 27 OFFCURVE",
"169 27 QCURVE",
"120 29 LINE",
"116 0 LINE"
);
}
);
userData = {
assembly = "NPUSHB[ ]\011/* 53 values pushed */
31 28 17 6 4 1 0 1 74 7 6 4 3 0 0 5 93 9 8 2 5 5 17 75 3 1 1 1 2 93 0 2 2 21 2 76 0 0 0 38 0 38 40 33 17 37 33 17 37 33 10 7 28 
CALL[ ]\011/* CallFunction */";
};
width = 491;
},
{
anchors = (
{
name = bottom;
position = "{262, 0}";
},
{
name = top;
position = "{345, 597}";
}
);
layerId = "EC024578-EFD3-4C50-A1DE-0E38CDD8AD0F";
paths = (
{
closed = 1;
nodes = (
"397 0 LINE",
"402 37 LINE",
"354 35 LINE",
"337 35 OFFCURVE",
"337 51 QCURVE SMOOTH",
"337 56 LINE",
"368 274 LINE",
"554 541 LINE SMOOTH",
"569 562 OFFCURVE",
"584 562 QCURVE",
"613 560 LINE",
"619 597 LINE",
"460 597 LINE",
"455 560 LINE",
"507 562 LINE",
"515 562 OFFCURVE",
"515 554 QCURVE SMOOTH",
"515 548 OFFCURVE",
"511 542 QCURVE SMOOTH",
"354 318 LINE",
"254 538 LINE",
"252 544 OFFCURVE",
"252 549 QCURVE SMOOTH",
"252 562 OFFCURVE",
"264 562 QCURVE",
"317 560 LINE",
"322 597 LINE",
"54 597 LINE",
"48 560 LINE",
"77 562 LINE",
"84 562 OFFCURVE",
"92 553 OFFCURVE",
"97 543 QCURVE",
"228 256 LINE",
"200 57 LINE SMOOTH",
"197 35 OFFCURVE",
"178 35 QCURVE",
"129 37 LINE",
"124 0 LINE"
);
}
);
userData = {
assembly = "NPUSHB[ ]\011/* 53 values pushed */
31 28 17 6 4 1 0 1 74 7 6 4 3 0 0 5 93 9 8 2 5 5 17 75 3 1 1 1 2 93 0 2 2 21 2 76 0 0 0 38 0 38 40 33 17 37 33 17 37 33 10 7 28 
CALL[ ]\011/* CallFunction */";
};
width = 555;
}
);
leftKerningGroup = Y;
note = Y;
rightKerningGroup = Y;
unicode = 0059;
},
{
glyphname = Z;
layers = (
{
anchors = (
{
name = top;
position = "{301, 597}";
}
);
layerId = "9A6463FA-02C3-4660-BEDA-F7CC218AE705";
paths = (
{
closed = 1;
nodes = (
"471 168 LINE",
"442 168 LINE",
"433 102 OFFCURVE",
"346 28 OFFCURVE",
"280 28 QCURVE SMOOTH",
"113 28 LINE",
"502 574 LINE",
"505 598 LINE",
"195 598 LINE",
"137 600 LINE",
"88 601 LINE",
"66 444 LINE",
"95 444 LINE",
"104 509 OFFCURVE",
"179 570 OFFCURVE",
"248 570 QCURVE SMOOTH",
"391 570 LINE",
"7 28 LINE",
"3 1 LINE",
"330 1 LINE SMOOTH",
"428 1 OFFCURVE",
"439 -4 QCURVE"
);
}
);
userData = {
assembly = "MPPEM[ ]\011/* MeasurePixelPerEm */
PUSHB[ ]\011/* 1 value pushed */
10 
LT[ ]\011/* LessThan */
IF[ ]\011/* If */
NPUSHB[ ]\011/* 35 values pushed */
0 4 3 1 3 4 112 0 1 0 3 1 0 124 0 3 3 5 93 0 5 5 17 75 0 0 0 2 93 0 2 2 21 2 76 
ELSE[ ]\011/* Else */
NPUSHB[ ]\011/* 36 values pushed */
0 4 3 1 3 4 1 126 0 1 0 3 1 0 124 0 3 3 5 93 0 5 5 17 75 0 0 0 2 93 0 2 2 21 2 76 
EIF[ ]\011/* EndIf */
NPUSHB[ ]\011/* 9 values pushed */
49 18 34 34 18 33 6 7 26 
CALL[ ]\011/* CallFunction */";
};
width = 497;
},
{
anchors = (
{
name = top;
position = "{335, 597}";
}
);
layerId = "EC024578-EFD3-4C50-A1DE-0E38CDD8AD0F";
paths = (
{
closed = 1;
nodes = (
"516 167 LINE",
"481 167 LINE",
"473 105 OFFCURVE",
"383 35 OFFCURVE",
"315 35 QCURVE SMOOTH",
"176 35 LINE",
"558 573 LINE",
"561 597 LINE",
"217 597 LINE SMOOTH",
"145 599 LINE",
"108 600 LINE",
"86 443 LINE",
"121 443 LINE",
"130 504 OFFCURVE",
"207 562 OFFCURVE",
"278 562 QCURVE SMOOTH",
"389 562 LINE",
"5 27 LINE",
"1 0 LINE",
"373 0 LINE SMOOTH",
"473 0 OFFCURVE",
"484 -4 QCURVE"
);
}
);
userData = {
assembly = "MPPEM[ ]\011/* MeasurePixelPerEm */
PUSHB[ ]\011/* 1 value pushed */
10 
LT[ ]\011/* LessThan */
IF[ ]\011/* If */
NPUSHB[ ]\011/* 35 values pushed */
0 4 3 1 3 4 112 0 1 0 3 1 0 124 0 3 3 5 93 0 5 5 17 75 0 0 0 2 93 0 2 2 21 2 76 
ELSE[ ]\011/* Else */
NPUSHB[ ]\011/* 36 values pushed */
0 4 3 1 3 4 1 126 0 1 0 3 1 0 124 0 3 3 5 93 0 5 5 17 75 0 0 0 2 93 0 2 2 21 2 76 
EIF[ ]\011/* EndIf */
NPUSHB[ ]\011/* 9 values pushed */
65 18 34 34 18 33 6 7 26 
CALL[ ]\011/* CallFunction */";
};
width = 543;
}
);
note = Z;
rightKerningGroup = Z;
unicode = 005A;
},
{
glyphname = a;
layers = (
{
anchors = (
{
name = bottom;
position = "{197, 0}";
},
{
name = ogonek;
position = "{352, 0}";
},
{
name = top;
position = "{290, 420}";
}
);
layerId = "9A6463FA-02C3-4660-BEDA-F7CC218AE705";
paths = (
{
closed = 1;
nodes = (
"168 -10 OFFCURVE",
"258 79 OFFCURVE",
"315 187 QCURVE",
"294 65 OFFCURVE",
"294 36 QCURVE SMOOTH",
"294 12 OFFCURVE",
"304 -10 OFFCURVE",
"318 -10 QCURVE SMOOTH",
"343 -10 OFFCURVE",
"410 24 OFFCURVE",
"440 60 QCURVE",
"428 80 LINE",
"408 67 OFFCURVE",
"390 67 QCURVE SMOOTH",
"377 67 OFFCURVE",
"377 84 QCURVE SMOOTH",
"377 110 OFFCURVE",
"401 250 OFFCURVE",
"419 330 QCURVE SMOOTH",
"443 429 LINE",
"359 415 LINE",
"353 393 LINE",
"340 410 OFFCURVE",
"299 430 OFFCURVE",
"275 430 QCURVE SMOOTH",
"212 430 OFFCURVE",
"97 331 OFFCURVE",
"28 182 OFFCURVE",
"28 112 QCURVE SMOOTH",
"28 55 OFFCURVE",
"76 -10 OFFCURVE",
"120 -10 QCURVE SMOOTH"
);
},
{
closed = 1;
nodes = (
"139 45 OFFCURVE",
"117 85 OFFCURVE",
"117 123 QCURVE SMOOTH",
"117 180 OFFCURVE",
"131 232 QCURVE SMOOTH",
"148 305 OFFCURVE",
"223 400 OFFCURVE",
"277 400 QCURVE SMOOTH",
"304 400 OFFCURVE",
"340 369 OFFCURVE",
"340 346 QCURVE SMOOTH",
"340 297 OFFCURVE",
"274 153 OFFCURVE",
"185 45 OFFCURVE",
"156 45 QCURVE SMOOTH"
);
}
);
userData = {
assembly = "NPUSHB[ ]\011/* 68 values pushed */
25 1 4 2 23 10 1 3 3 4 2 1 5 3 3 74 6 1 3 4 5 4 3 5 126 0 4 4 2 95 0 2 2 20 75 7 1 5 5 0 95 1 1 0 0 26 0 76 32 32 0 0 32 46 32 45 39 37 0 31 0 30 37 38 36 8 7 23 
CALL[ ]\011/* CallFunction */";
};
width = 466;
},
{
anchors = (
{
name = bottom;
position = "{212, 0}";
},
{
name = ogonek;
position = "{377, 0}";
},
{
name = top;
position = "{306, 425}";
}
);
layerId = "EC024578-EFD3-4C50-A1DE-0E38CDD8AD0F";
paths = (
{
closed = 1;
nodes = (
"170 -10 OFFCURVE",
"269 73 OFFCURVE",
"311 165 QCURVE",
"293 61 OFFCURVE",
"293 36 QCURVE SMOOTH",
"293 11 OFFCURVE",
"308 -10 OFFCURVE",
"329 -10 QCURVE SMOOTH",
"365 -10 OFFCURVE",
"453 30 OFFCURVE",
"484 60 QCURVE",
"473 88 LINE",
"454 75 OFFCURVE",
"435 75 QCURVE SMOOTH",
"422 75 OFFCURVE",
"422 92 QCURVE SMOOTH",
"422 119 OFFCURVE",
"447 264 OFFCURVE",
"465 338 QCURVE SMOOTH",
"488 434 LINE",
"359 420 LINE",
"353 397 LINE",
"342 415 OFFCURVE",
"302 435 OFFCURVE",
"279 435 QCURVE SMOOTH",
"210 435 OFFCURVE",
"94 342 OFFCURVE",
"26 192 OFFCURVE",
"26 112 QCURVE SMOOTH",
"26 55 OFFCURVE",
"74 -10 OFFCURVE",
"118 -10 QCURVE SMOOTH"
);
},
{
closed = 1;
nodes = (
"177 68 OFFCURVE",
"160 100 OFFCURVE",
"160 131 QCURVE SMOOTH",
"160 186 OFFCURVE",
"176 241 QCURVE SMOOTH",
"194 312 OFFCURVE",
"257 398 OFFCURVE",
"294 398 QCURVE SMOOTH",
"316 398 OFFCURVE",
"340 373 OFFCURVE",
"340 353 QCURVE SMOOTH",
"340 306 OFFCURVE",
"286 170 OFFCURVE",
"215 68 OFFCURVE",
"192 68 QCURVE SMOOTH"
);
}
);
userData = {
assembly = "MPPEM[ ]\011/* MeasurePixelPerEm */
PUSHB[ ]\011/* 1 value pushed */
34 
LT[ ]\011/* LessThan */
IF[ ]\011/* If */
NPUSHB[ ]\011/* 16 values pushed */
27 1 4 2 25 12 1 3 3 4 2 1 0 3 3 74 
ELSE[ ]\011/* Else */
NPUSHB[ ]\011/* 16 values pushed */
27 1 4 2 25 12 1 3 3 4 2 1 0 5 3 74 
EIF[ ]\011/* EndIf */
MPPEM[ ]\011/* MeasurePixelPerEm */
PUSHB[ ]\011/* 1 value pushed */
34 
LT[ ]\011/* LessThan */
IF[ ]\011/* If */
NPUSHB[ ]\011/* 28 values pushed */
7 5 6 3 3 4 0 4 3 0 126 0 4 4 2 95 0 2 2 20 75 1 1 0 0 26 0 76 
ELSE[ ]\011/* Else */
NPUSHB[ ]\011/* 34 values pushed */
6 1 3 4 5 4 3 5 126 7 1 5 0 4 5 0 124 0 4 4 2 95 0 2 2 20 75 1 1 0 0 26 0 76 
EIF[ ]\011/* EndIf */
NPUSHB[ ]\011/* 20 values pushed */
34 34 0 0 34 48 34 47 41 39 0 33 0 32 37 40 36 8 7 23 
CALL[ ]\011/* CallFunction */";
};
width = 511;
}
);
leftKerningGroup = a;
note = a;
unicode = 0061;
},
{
glyphname = ae;
layers = (
{
anchors = (
{
name = top;
position = "{412, 420}";
}
);
layerId = "9A6463FA-02C3-4660-BEDA-F7CC218AE705";
paths = (
{
closed = 1;
nodes = (
"204 -10 OFFCURVE",
"271 130 QCURVE",
"276 67 OFFCURVE",
"354 -9 OFFCURVE",
"411 -9 QCURVE SMOOTH",
"457 -9 OFFCURVE",
"550 43 OFFCURVE",
"590 84 QCURVE",
"568 100 LINE",
"481 45 OFFCURVE",
"436 45 QCURVE SMOOTH",
"402 45 OFFCURVE",
"359 104 OFFCURVE",
"359 154 QCURVE SMOOTH",
"360 181 LINE",
"455 188 OFFCURVE",
"578 233 OFFCURVE",
"634 297 OFFCURVE",
"634 332 QCURVE SMOOTH",
"634 373 OFFCURVE",
"562 430 OFFCURVE",
"508 430 QCURVE SMOOTH",
"463 430 OFFCURVE",
"420 406 QCURVE",
"404 410 OFFCURVE",
"376 410 QCURVE SMOOTH",
"285 410 OFFCURVE",
"117 318 OFFCURVE",
"13 175 OFFCURVE",
"13 103 QCURVE SMOOTH",
"13 54 OFFCURVE",
"62 -10 OFFCURVE",
"106 -10 QCURVE SMOOTH"
);
},
{
closed = 1;
nodes = (
"122 45 OFFCURVE",
"102 89 OFFCURVE",
"102 115 QCURVE SMOOTH",
"102 190 OFFCURVE",
"155 261 QCURVE SMOOTH",
"194 314 OFFCURVE",
"306 380 OFFCURVE",
"382 380 QCURVE",
"340 345 OFFCURVE",
"283 245 OFFCURVE",
"274 191 QCURVE",
"247 130 OFFCURVE",
"173 45 OFFCURVE",
"141 45 QCURVE SMOOTH"
);
},
{
closed = 1;
nodes = (
"371 268 OFFCURVE",
"397 319 QCURVE SMOOTH",
"440 400 OFFCURVE",
"506 400 QCURVE SMOOTH",
"534 400 OFFCURVE",
"563 364 OFFCURVE",
"563 338 QCURVE SMOOTH",
"563 289 OFFCURVE",
"459 220 OFFCURVE",
"364 213 QCURVE"
);
}
);
userData = {
assembly = "NPUSHB[ ]\011/* 13 values pushed */
29 1 5 3 41 17 11 10 4 0 6 2 74 
MPPEM[ ]\011/* MeasurePixelPerEm */
PUSHB[ ]\011/* 1 value pushed */
25 
LT[ ]\011/* LessThan */
IF[ ]\011/* If */
NPUSHB[ ]\011/* 33 values pushed */
0 5 5 4 95 0 4 4 20 75 0 6 6 3 95 0 3 3 20 75 7 1 0 0 1 95 2 1 1 1 26 1 76 
ELSE[ ]\011/* Else */
NPUSHB[ ]\011/* 31 values pushed */
0 3 0 6 0 3 6 103 0 5 5 4 95 0 4 4 20 75 7 1 0 0 1 95 2 1 1 1 26 1 76 
EIF[ ]\011/* EndIf */
NPUSHB[ ]\011/* 11 values pushed */
39 41 36 34 37 36 36 39 8 7 28 
CALL[ ]\011/* CallFunction */";
};
width = 643;
},
{
anchors = (
{
name = top;
position = "{382, 425}";
}
);
layerId = "EC024578-EFD3-4C50-A1DE-0E38CDD8AD0F";
paths = (
{
closed = 1;
nodes = (
"193 -10 OFFCURVE",
"260 93 QCURVE",
"275 44 OFFCURVE",
"352 -9 OFFCURVE",
"408 -9 QCURVE SMOOTH",
"464 -9 OFFCURVE",
"571 46 OFFCURVE",
"606 92 QCURVE",
"584 112 LINE",
"530 62 OFFCURVE",
"462 62 QCURVE SMOOTH",
"426 62 OFFCURVE",
"385 115 OFFCURVE",
"385 168 QCURVE SMOOTH",
"385 183 LINE",
"475 192 OFFCURVE",
"592 241 OFFCURVE",
"646 306 OFFCURVE",
"646 341 QCURVE SMOOTH",
"646 383 OFFCURVE",
"569 435 OFFCURVE",
"506 435 QCURVE SMOOTH",
"444 435 OFFCURVE",
"388 401 QCURVE",
"364 415 OFFCURVE",
"329 415 QCURVE SMOOTH",
"244 415 OFFCURVE",
"98 327 OFFCURVE",
"12 186 OFFCURVE",
"12 110 QCURVE SMOOTH",
"12 54 OFFCURVE",
"61 -10 OFFCURVE",
"105 -10 QCURVE SMOOTH"
);
},
{
closed = 1;
nodes = (
"161 68 OFFCURVE",
"143 101 OFFCURVE",
"143 129 QCURVE SMOOTH",
"143 189 OFFCURVE",
"169 248 QCURVE",
"191 305 OFFCURVE",
"280 378 OFFCURVE",
"352 376 QCURVE",
"305 336 OFFCURVE",
"251 223 OFFCURVE",
"252 139 QCURVE",
"232 106 OFFCURVE",
"194 68 OFFCURVE",
"179 68 QCURVE SMOOTH"
);
},
{
closed = 1;
nodes = (
"394 270 OFFCURVE",
"415 319 QCURVE SMOOTH",
"449 400 OFFCURVE",
"500 400 QCURVE SMOOTH",
"520 400 OFFCURVE",
"539 375 OFFCURVE",
"539 355 QCURVE SMOOTH",
"539 302 OFFCURVE",
"462 229 OFFCURVE",
"388 216 QCURVE"
);
}
);
userData = {
assembly = "MPPEM[ ]\011/* MeasurePixelPerEm */
PUSHB[ ]\011/* 1 value pushed */
38 
LT[ ]\011/* LessThan */
IF[ ]\011/* If */
NPUSHB[ ]\011/* 16 values pushed */
28 1 5 3 59 46 37 17 11 10 3 7 0 6 2 74 
ELSE[ ]\011/* Else */
NPUSHB[ ]\011/* 16 values pushed */
28 1 5 3 59 46 37 17 11 10 3 7 7 6 2 74 
EIF[ ]\011/* EndIf */
MPPEM[ ]\011/* MeasurePixelPerEm */
PUSHB[ ]\011/* 1 value pushed */
24 
LT[ ]\011/* LessThan */
IF[ ]\011/* If */
NPUSHB[ ]\011/* 34 values pushed */
8 1 5 5 4 95 0 4 4 20 75 0 6 6 3 95 0 3 3 20 75 7 1 0 0 1 95 2 1 1 1 26 1 76 
ELSE[ ]\011/* Else */
MPPEM[ ]\011/* MeasurePixelPerEm */
PUSHB[ ]\011/* 1 value pushed */
38 
LT[ ]\011/* LessThan */
IF[ ]\011/* If */
NPUSHB[ ]\011/* 32 values pushed */
0 3 0 6 0 3 6 103 8 1 5 5 4 95 0 4 4 20 75 7 1 0 0 1 95 2 1 1 1 26 1 76 
ELSE[ ]\011/* Else */
NPUSHB[ ]\011/* 42 values pushed */
0 3 0 6 7 3 6 103 8 1 5 5 4 95 0 4 4 20 75 0 7 7 1 95 2 1 1 1 26 75 0 0 0 1 95 2 1 1 1 26 1 76 
EIF[ ]\011/* EndIf */
EIF[ ]\011/* EndIf */
NPUSHB[ ]\011/* 18 values pushed */
34 34 57 55 49 47 34 43 34 42 34 37 35 37 38 9 7 25 
CALL[ ]\011/* CallFunction */";
};
width = 636;
}
);
leftKerningGroup = ae;
note = ae;
rightKerningGroup = ae;
unicode = 00E6;
},
{
glyphname = b;
layers = (
{
background = {
paths = (
{
closed = 1;
nodes = (
"172 245 OFFCURVE",
"178 251 OFFCURVE",
"178 259 CURVE SMOOTH",
"178 266 OFFCURVE",
"172 272 OFFCURVE",
"165 272 CURVE SMOOTH",
"158 272 OFFCURVE",
"152 266 OFFCURVE",
"152 259 CURVE SMOOTH",
"152 251 OFFCURVE",
"158 245 OFFCURVE",
"165 245 CURVE SMOOTH"
);
}
);
};
layerId = "9A6463FA-02C3-4660-BEDA-F7CC218AE705";
paths = (
{
closed = 1;
nodes = (
"244 -7 OFFCURVE",
"366 87 OFFCURVE",
"435 230 OFFCURVE",
"435 301 QCURVE SMOOTH",
"435 359 OFFCURVE",
"381 430 OFFCURVE",
"335 430 QCURVE SMOOTH",
"275 430 OFFCURVE",
"178 328 OFFCURVE",
"140 239 QCURVE",
"155 333 OFFCURVE",
"194 585 QCURVE SMOOTH",
"212 701 OFFCURVE",
"213 708 QCURVE SMOOTH",
"213 720 OFFCURVE",
"196 730 OFFCURVE",
"175 730 QCURVE SMOOTH",
"153 730 OFFCURVE",
"87 714 OFFCURVE",
"57 698 QCURVE",
"63 673 LINE",
"78 676 OFFCURVE",
"89 676 QCURVE SMOOTH",
"103 676 OFFCURVE",
"120 663 OFFCURVE",
"120 651 QCURVE SMOOTH",
"120 623 OFFCURVE",
"88 385 QCURVE SMOOTH",
"75 293 OFFCURVE",
"53 118 OFFCURVE",
"53 84 QCURVE SMOOTH",
"53 40 OFFCURVE",
"112 -7 OFFCURVE",
"168 -7 QCURVE SMOOTH"
);
},
{
closed = 1;
nodes = (
"152 23 OFFCURVE",
"125 55 OFFCURVE",
"125 81 QCURVE SMOOTH",
"125 169 OFFCURVE",
"247 375 OFFCURVE",
"294 375 QCURVE SMOOTH",
"327 375 OFFCURVE",
"346 322 OFFCURVE",
"346 279 QCURVE SMOOTH",
"346 233 OFFCURVE",
"331 174 QCURVE SMOOTH",
"314 110 OFFCURVE",
"245 23 OFFCURVE",
"184 23 QCURVE SMOOTH"
);
}
);
userData = {
assembly = "NPUSHB[ ]\011/* 15 values pushed */
31 2 2 2 3 30 1 0 2 6 1 4 5 3 74 
MPPEM[ ]\011/* MeasurePixelPerEm */
PUSHB[ ]\011/* 1 value pushed */
10 
LT[ ]\011/* LessThan */
IF[ ]\011/* If */
NPUSHB[ ]\011/* 36 values pushed */
0 2 3 0 3 2 0 126 6 1 3 3 19 75 7 1 5 5 0 95 0 0 0 20 75 0 4 4 1 95 0 1 1 18 1 76 
ELSE[ ]\011/* Else */
NPUSHB[ ]\011/* 36 values pushed */
0 2 3 0 3 2 0 126 6 1 3 3 19 75 7 1 5 5 0 95 0 0 0 20 75 0 4 4 1 95 0 1 1 26 1 76 
EIF[ ]\011/* EndIf */
NPUSHB[ ]\011/* 20 values pushed */
35 35 0 0 35 49 35 48 42 40 0 34 0 33 42 37 40 8 7 23 
CALL[ ]\011/* CallFunction */";
};
width = 457;
},
{
background = {
paths = (
{
closed = 1;
nodes = (
"210 247 OFFCURVE",
"216 253 OFFCURVE",
"216 261 CURVE SMOOTH",
"216 268 OFFCURVE",
"210 274 OFFCURVE",
"203 274 CURVE SMOOTH",
"195 274 OFFCURVE",
"189 268 OFFCURVE",
"189 261 CURVE SMOOTH",
"189 253 OFFCURVE",
"195 247 OFFCURVE",
"203 247 CURVE SMOOTH"
);
}
);
};
layerId = "EC024578-EFD3-4C50-A1DE-0E38CDD8AD0F";
paths = (
{
closed = 1;
nodes = (
"263 -7 OFFCURVE",
"399 90 OFFCURVE",
"476 238 OFFCURVE",
"476 309 QCURVE SMOOTH",
"476 367 OFFCURVE",
"421 435 OFFCURVE",
"374 435 QCURVE SMOOTH",
"314 435 OFFCURVE",
"222 338 OFFCURVE",
"181 246 QCURVE",
"197 358 OFFCURVE",
"236 586 QCURVE SMOOTH",
"255 695 OFFCURVE",
"254 703 QCURVE SMOOTH",
"254 719 OFFCURVE",
"231 730 OFFCURVE",
"208 730 QCURVE SMOOTH",
"178 730 OFFCURVE",
"95 714 OFFCURVE",
"53 698 QCURVE",
"59 666 LINE",
"73 668 OFFCURVE",
"83 668 QCURVE SMOOTH",
"100 668 OFFCURVE",
"116 655 OFFCURVE",
"116 639 QCURVE SMOOTH",
"116 587 OFFCURVE",
"83 372 QCURVE SMOOTH",
"67 263 OFFCURVE",
"50 129 OFFCURVE",
"50 102 QCURVE SMOOTH",
"50 53 OFFCURVE",
"111 -7 OFFCURVE",
"179 -7 QCURVE SMOOTH"
);
},
{
closed = 1;
nodes = (
"192 28 OFFCURVE",
"164 56 OFFCURVE",
"164 78 QCURVE SMOOTH",
"164 151 OFFCURVE",
"266 358 OFFCURVE",
"309 358 QCURVE SMOOTH",
"323 358 OFFCURVE",
"342 324 OFFCURVE",
"342 290 QCURVE SMOOTH",
"342 236 OFFCURVE",
"324 176 QCURVE SMOOTH",
"307 115 OFFCURVE",
"248 28 OFFCURVE",
"211 28 QCURVE SMOOTH"
);
}
);
userData = {
assembly = "NPUSHB[ ]\011/* 15 values pushed */
32 2 2 2 3 31 1 0 2 7 1 4 5 3 74 
MPPEM[ ]\011/* MeasurePixelPerEm */
PUSHB[ ]\011/* 1 value pushed */
10 
LT[ ]\011/* LessThan */
IF[ ]\011/* If */
NPUSHB[ ]\011/* 36 values pushed */
0 2 3 0 3 2 0 126 6 1 3 3 19 75 7 1 5 5 0 95 0 0 0 20 75 0 4 4 1 95 0 1 1 18 1 76 
ELSE[ ]\011/* Else */
NPUSHB[ ]\011/* 36 values pushed */
0 2 3 0 3 2 0 126 6 1 3 3 19 75 7 1 5 5 0 95 0 0 0 20 75 0 4 4 1 95 0 1 1 26 1 76 
EIF[ ]\011/* EndIf */
NPUSHB[ ]\011/* 20 values pushed */
36 36 0 0 36 50 36 49 43 41 0 35 0 34 42 37 41 8 7 23 
CALL[ ]\011/* CallFunction */";
};
width = 487;
}
);
leftKerningGroup = b;
note = b;
rightKerningGroup = b;
unicode = 0062;
},
{
glyphname = c;
layers = (
{
anchors = (
{
name = bottom;
position = "{187, 0}";
},
{
name = top;
position = "{248, 420}";
}
);
layerId = "9A6463FA-02C3-4660-BEDA-F7CC218AE705";
paths = (
{
closed = 1;
nodes = (
"214 -9 OFFCURVE",
"307 43 OFFCURVE",
"346 84 QCURVE",
"324 100 LINE",
"283 75 OFFCURVE",
"219 45 OFFCURVE",
"192 45 QCURVE SMOOTH",
"156 45 OFFCURVE",
"115 106 OFFCURVE",
"115 158 QCURVE SMOOTH",
"115 237 OFFCURVE",
"149 307 QCURVE SMOOTH",
"195 400 OFFCURVE",
"263 400 QCURVE SMOOTH",
"286 400 OFFCURVE",
"316 378 OFFCURVE",
"316 358 QCURVE SMOOTH",
"316 345 OFFCURVE",
"308 329 QCURVE SMOOTH",
"300 313 OFFCURVE",
"300 304 QCURVE SMOOTH",
"300 278 OFFCURVE",
"332 278 QCURVE SMOOTH",
"360 278 OFFCURVE",
"387 314 OFFCURVE",
"387 337 QCURVE SMOOTH",
"387 376 OFFCURVE",
"317 430 OFFCURVE",
"265 430 QCURVE SMOOTH",
"204 430 OFFCURVE",
"94 349 OFFCURVE",
"26 217 OFFCURVE",
"26 145 QCURVE SMOOTH",
"26 76 OFFCURVE",
"104 -9 OFFCURVE",
"171 -9 QCURVE SMOOTH"
);
}
);
userData = {
assembly = "PUSHB[ ]\011/* 7 values pushed */
25 24 2 2 0 1 74 
MPPEM[ ]\011/* MeasurePixelPerEm */
PUSHB[ ]\011/* 1 value pushed */
10 
LT[ ]\011/* LessThan */
IF[ ]\011/* If */
NPUSHB[ ]\011/* 29 values pushed */
0 0 1 2 1 0 112 0 1 1 4 95 5 1 4 4 20 75 0 2 2 3 95 0 3 3 26 3 76 
ELSE[ ]\011/* Else */
NPUSHB[ ]\011/* 30 values pushed */
0 0 1 2 1 0 2 126 0 1 1 4 95 5 1 4 4 20 75 0 2 2 3 95 0 3 3 26 3 76 
EIF[ ]\011/* EndIf */
NPUSHB[ ]\011/* 13 values pushed */
0 0 0 35 0 34 37 37 39 36 6 7 24 
CALL[ ]\011/* CallFunction */";
};
width = 406;
},
{
anchors = (
{
name = bottom;
position = "{197, 0}";
},
{
name = top;
position = "{258, 425}";
}
);
background = {
paths = (
{
closed = 1;
nodes = (
"211 435 OFFCURVE",
"91 361 OFFCURVE",
"18 234 OFFCURVE",
"18 158 QCURVE SMOOTH",
"18 79 OFFCURVE",
"101 -9 OFFCURVE",
"176 -9 QCURVE SMOOTH",
"231 -9 OFFCURVE",
"338 47 OFFCURVE",
"373 92 QCURVE",
"351 112 LINE",
"323 89 OFFCURVE",
"257 62 OFFCURVE",
"229 62 QCURVE SMOOTH",
"193 62 OFFCURVE",
"152 116 OFFCURVE",
"152 169 QCURVE SMOOTH",
"152 248 OFFCURVE",
"181 316 QCURVE SMOOTH",
"216 400 OFFCURVE",
"268 400 QCURVE SMOOTH",
"286 400 OFFCURVE",
"309 380 OFFCURVE",
"309 362 QCURVE SMOOTH",
"309 351 OFFCURVE",
"301 335 QCURVE",
"293 317 OFFCURVE",
"293 306 QCURVE SMOOTH",
"293 285 OFFCURVE",
"322 268 OFFCURVE",
"342 268 QCURVE SMOOTH",
"376 268 OFFCURVE",
"415 310 OFFCURVE",
"415 339 QCURVE SMOOTH",
"415 381 OFFCURVE",
"337 435 OFFCURVE",
"278 435 QCURVE SMOOTH"
);
}
);
};
layerId = "EC024578-EFD3-4C50-A1DE-0E38CDD8AD0F";
paths = (
{
closed = 1;
nodes = (
"231 -9 OFFCURVE",
"338 47 OFFCURVE",
"373 92 QCURVE",
"351 112 LINE",
"323 89 OFFCURVE",
"257 62 OFFCURVE",
"229 62 QCURVE SMOOTH",
"193 62 OFFCURVE",
"152 116 OFFCURVE",
"152 169 QCURVE SMOOTH",
"152 248 OFFCURVE",
"181 316 QCURVE SMOOTH",
"216 400 OFFCURVE",
"268 400 QCURVE SMOOTH",
"286 400 OFFCURVE",
"309 380 OFFCURVE",
"309 362 QCURVE SMOOTH",
"309 351 OFFCURVE",
"301 335 QCURVE",
"293 317 OFFCURVE",
"293 306 QCURVE SMOOTH",
"293 268 OFFCURVE",
"342 268 QCURVE SMOOTH",
"376 268 OFFCURVE",
"415 310 OFFCURVE",
"415 339 QCURVE SMOOTH",
"415 381 OFFCURVE",
"337 435 OFFCURVE",
"278 435 QCURVE SMOOTH",
"211 435 OFFCURVE",
"91 361 OFFCURVE",
"18 234 OFFCURVE",
"18 158 QCURVE SMOOTH",
"18 79 OFFCURVE",
"101 -9 OFFCURVE",
"176 -9 QCURVE SMOOTH"
);
}
);
userData = {
assembly = "PUSHB[ ]\011/* 7 values pushed */
26 25 2 2 0 1 74 
MPPEM[ ]\011/* MeasurePixelPerEm */
PUSHB[ ]\011/* 1 value pushed */
10 
LT[ ]\011/* LessThan */
IF[ ]\011/* If */
NPUSHB[ ]\011/* 29 values pushed */
0 0 1 2 1 0 112 0 1 1 4 95 5 1 4 4 20 75 0 2 2 3 95 0 3 3 26 3 76 
ELSE[ ]\011/* Else */
NPUSHB[ ]\011/* 30 values pushed */
0 0 1 2 1 0 2 126 0 1 1 4 95 5 1 4 4 20 75 0 2 2 3 95 0 3 3 26 3 76 
EIF[ ]\011/* EndIf */
NPUSHB[ ]\011/* 13 values pushed */
0 0 0 36 0 35 37 37 40 36 6 7 24 
CALL[ ]\011/* CallFunction */";
};
width = 416;
}
);
leftKerningGroup = c;
note = c;
unicode = 0063;
},
{
glyphname = d;
layers = (
{
anchors = (
{
name = center;
position = "{389, 568}";
},
{
name = topright;
position = "{414, 545}";
}
);
layerId = "9A6463FA-02C3-4660-BEDA-F7CC218AE705";
paths = (
{
closed = 1;
nodes = (
"172 -10 OFFCURVE",
"272 85 OFFCURVE",
"316 186 QCURVE",
"301 100 OFFCURVE",
"301 39 QCURVE SMOOTH",
"301 16 OFFCURVE",
"314 -10 OFFCURVE",
"331 -10 QCURVE SMOOTH",
"354 -10 OFFCURVE",
"419 24 OFFCURVE",
"453 60 QCURVE",
"441 80 LINE",
"421 67 OFFCURVE",
"404 67 QCURVE SMOOTH",
"387 67 OFFCURVE",
"387 94 QCURVE SMOOTH",
"387 162 OFFCURVE",
"427 440 OFFCURVE",
"457 617 QCURVE SMOOTH",
"463 651 LINE SMOOTH",
"470 693 OFFCURVE",
"470 708 QCURVE SMOOTH",
"470 721 OFFCURVE",
"452 730 OFFCURVE",
"432 730 QCURVE SMOOTH",
"370 730 OFFCURVE",
"313 698 QCURVE",
"319 673 LINE",
"328 675 OFFCURVE",
"343 675 QCURVE SMOOTH",
"378 675 OFFCURVE",
"378 651 QCURVE SMOOTH",
"378 640 OFFCURVE",
"355 440 OFFCURVE",
"346 391 QCURVE",
"332 408 OFFCURVE",
"284 430 OFFCURVE",
"253 430 QCURVE SMOOTH",
"191 430 OFFCURVE",
"85 336 OFFCURVE",
"23 191 OFFCURVE",
"23 120 QCURVE SMOOTH",
"23 61 OFFCURVE",
"77 -10 OFFCURVE",
"123 -10 QCURVE SMOOTH"
);
},
{
closed = 1;
nodes = (
"139 45 OFFCURVE",
"111 98 OFFCURVE",
"111 144 QCURVE SMOOTH",
"111 193 OFFCURVE",
"124 245 QCURVE SMOOTH",
"140 311 OFFCURVE",
"208 400 OFFCURVE",
"257 400 QCURVE SMOOTH",
"285 400 OFFCURVE",
"334 368 OFFCURVE",
"334 326 QCURVE SMOOTH",
"334 279 OFFCURVE",
"271 145 OFFCURVE",
"187 45 OFFCURVE",
"159 45 QCURVE SMOOTH"
);
}
);
userData = {
assembly = "NPUSHB[ ]\011/* 77 values pushed */
39 1 4 5 38 1 3 4 31 18 9 3 0 6 10 1 7 0 4 74 0 0 6 7 6 0 7 126 0 4 4 5 95 0 5 5 19 75 0 6 6 3 95 0 3 3 20 75 8 1 7 7 1 95 2 1 1 1 26 1 76 45 45 45 59 45 58 40 35 38 37 38 36 38 9 7 27 
CALL[ ]\011/* CallFunction */";
};
width = 476;
},
{
anchors = (
{
name = center;
position = "{404, 568}";
},
{
name = topright;
position = "{454, 535}";
}
);
layerId = "EC024578-EFD3-4C50-A1DE-0E38CDD8AD0F";
paths = (
{
closed = 1;
nodes = (
"165 -10 OFFCURVE",
"268 79 OFFCURVE",
"304 175 QCURVE",
"291 95 OFFCURVE",
"291 37 QCURVE SMOOTH",
"291 15 OFFCURVE",
"316 -10 OFFCURVE",
"339 -10 QCURVE SMOOTH",
"368 -10 OFFCURVE",
"447 26 OFFCURVE",
"485 59 QCURVE",
"473 86 LINE",
"456 75 OFFCURVE",
"441 75 QCURVE SMOOTH",
"422 75 OFFCURVE",
"422 102 QCURVE",
"424 159 OFFCURVE",
"459 398 OFFCURVE",
"486 567 QCURVE SMOOTH",
"492 601 LINE SMOOTH",
"508 690 OFFCURVE",
"508 701 QCURVE SMOOTH",
"508 718 OFFCURVE",
"487 730 OFFCURVE",
"464 730 QCURVE SMOOTH",
"390 730 OFFCURVE",
"307 698 QCURVE",
"312 666 LINE",
"321 668 OFFCURVE",
"336 668 QCURVE SMOOTH",
"370 668 OFFCURVE",
"370 644 QCURVE SMOOTH",
"370 622 OFFCURVE",
"352 474 OFFCURVE",
"340 393 QCURVE",
"331 413 OFFCURVE",
"288 435 OFFCURVE",
"261 435 QCURVE SMOOTH",
"193 435 OFFCURVE",
"79 343 OFFCURVE",
"13 194 OFFCURVE",
"13 114 QCURVE SMOOTH",
"13 58 OFFCURVE",
"71 -10 OFFCURVE",
"114 -10 QCURVE SMOOTH"
);
},
{
closed = 1;
nodes = (
"165 68 OFFCURVE",
"146 103 OFFCURVE",
"146 136 QCURVE SMOOTH",
"146 185 OFFCURVE",
"162 244 QCURVE SMOOTH",
"181 314 OFFCURVE",
"241 398 OFFCURVE",
"277 398 QCURVE SMOOTH",
"298 398 OFFCURVE",
"327 372 OFFCURVE",
"327 348 QCURVE SMOOTH",
"327 302 OFFCURVE",
"274 168 OFFCURVE",
"204 68 OFFCURVE",
"181 68 QCURVE SMOOTH"
);
}
);
userData = {
assembly = "MPPEM[ ]\011/* MeasurePixelPerEm */
PUSHB[ ]\011/* 1 value pushed */
34 
LT[ ]\011/* LessThan */
IF[ ]\011/* If */
NPUSHB[ ]\011/* 20 values pushed */
40 1 4 5 39 1 3 4 32 19 10 3 0 6 11 1 1 0 4 74 
ELSE[ ]\011/* Else */
NPUSHB[ ]\011/* 20 values pushed */
40 1 4 5 39 1 3 4 32 19 10 3 0 6 11 1 1 7 4 74 
EIF[ ]\011/* EndIf */
MPPEM[ ]\011/* MeasurePixelPerEm */
PUSHB[ ]\011/* 1 value pushed */
34 
LT[ ]\011/* LessThan */
IF[ ]\011/* If */
NPUSHB[ ]\011/* 40 values pushed */
0 4 5 3 5 4 3 126 8 7 2 0 6 1 6 0 1 126 0 5 5 19 75 0 6 6 3 95 0 3 3 20 75 2 1 1 1 26 1 76 
ELSE[ ]\011/* Else */
NPUSHB[ ]\011/* 46 values pushed */
0 4 5 3 5 4 3 126 0 0 6 7 6 0 7 126 8 1 7 1 6 7 1 124 0 5 5 19 75 0 6 6 3 95 0 3 3 20 75 2 1 1 1 26 1 76 
EIF[ ]\011/* EndIf */
NPUSHB[ ]\011/* 16 values pushed */
46 46 46 60 46 59 40 35 38 37 38 36 39 9 7 27 
CALL[ ]\011/* CallFunction */";
};
width = 511;
}
);
leftKerningGroup = d;
note = d;
unicode = 0064;
},
{
glyphname = eth;
layers = (
{
layerId = "9A6463FA-02C3-4660-BEDA-F7CC218AE705";
paths = (
{
closed = 1;
nodes = (
"244 -10 OFFCURVE",
"357 64 OFFCURVE",
"422 192 OFFCURVE",
"422 269 QCURVE SMOOTH",
"422 358 OFFCURVE",
"364 501 OFFCURVE",
"310 546 QCURVE",
"396 594 LINE",
"386 621 LINE",
"286 566 LINE",
"237 601 OFFCURVE",
"158 607 QCURVE",
"136 585 LINE",
"177 585 OFFCURVE",
"235 538 QCURVE",
"134 483 LINE",
"145 456 LINE",
"256 517 LINE",
"297 476 OFFCURVE",
"317 411 QCURVE",
"288 430 OFFCURVE",
"250 430 QCURVE SMOOTH",
"198 430 OFFCURVE",
"95 358 OFFCURVE",
"28 231 OFFCURVE",
"28 151 QCURVE SMOOTH",
"28 83 OFFCURVE",
"97 -10 OFFCURVE",
"175 -10 QCURVE SMOOTH"
);
},
{
closed = 1;
nodes = (
"157 22 OFFCURVE",
"116 88 OFFCURVE",
"116 149 QCURVE SMOOTH",
"116 232 OFFCURVE",
"148 300 QCURVE SMOOTH",
"193 396 OFFCURVE",
"259 402 QCURVE SMOOTH",
"334 402 OFFCURVE",
"334 276 QCURVE SMOOTH",
"334 235 OFFCURVE",
"315 152 OFFCURVE",
"300 119 QCURVE SMOOTH",
"255 22 OFFCURVE",
"192 22 QCURVE SMOOTH"
);
}
);
userData = {
assembly = "NPUSHB[ ]\011/* 63 values pushed */
29 1 2 3 30 27 21 20 19 18 6 1 2 15 1 4 1 3 74 28 1 3 72 0 2 2 3 95 0 3 3 25 75 0 4 4 1 95 0 1 1 20 75 0 5 5 0 95 0 0 0 26 0 76 38 42 17 24 37 37 6 7 26 
CALL[ ]\011/* CallFunction */";
};
width = 449;
},
{
layerId = "EC024578-EFD3-4C50-A1DE-0E38CDD8AD0F";
paths = (
{
closed = 1;
nodes = (
"262 -10 OFFCURVE",
"382 66 OFFCURVE",
"444 193 OFFCURVE",
"444 268 QCURVE SMOOTH",
"444 366 OFFCURVE",
"374 509 OFFCURVE",
"313 552 QCURVE",
"384 590 LINE",
"372 620 LINE",
"281 571 LINE",
"215 605 OFFCURVE",
"139 607 QCURVE",
"116 578 LINE",
"160 573 OFFCURVE",
"212 535 QCURVE",
"115 483 LINE",
"129 453 LINE",
"238 512 LINE",
"272 480 OFFCURVE",
"290 433 QCURVE",
"276 435 OFFCURVE",
"269 435 QCURVE SMOOTH",
"193 435 OFFCURVE",
"79 359 OFFCURVE",
"18 232 OFFCURVE",
"18 157 QCURVE SMOOTH",
"18 84 OFFCURVE",
"98 -10 OFFCURVE",
"179 -10 QCURVE SMOOTH"
);
},
{
closed = 1;
nodes = (
"176 33 OFFCURVE",
"149 82 OFFCURVE",
"149 133 QCURVE SMOOTH",
"149 209 OFFCURVE",
"171 281 QCURVE SMOOTH",
"206 394 OFFCURVE",
"262 394 QCURVE SMOOTH",
"313 394 OFFCURVE",
"313 293 QCURVE SMOOTH",
"313 257 OFFCURVE",
"301 178 OFFCURVE",
"290 144 QCURVE SMOOTH",
"258 33 OFFCURVE",
"200 33 QCURVE SMOOTH"
);
}
);
userData = {
assembly = "NPUSHB[ ]\011/* 55 values pushed */
28 27 25 22 20 19 18 17 8 1 2 15 1 3 1 2 74 26 1 2 72 0 2 2 25 75 0 3 3 1 95 0 1 1 20 75 0 4 4 0 95 0 0 0 26 0 76 37 40 26 21 37 5 7 25 
CALL[ ]\011/* CallFunction */";
};
width = 462;
}
);
leftKerningGroup = eth;
note = eth;
rightKerningGroup = eth;
unicode = 00F0;
},
{
glyphname = e;
layers = (
{
anchors = (
{
name = bottom;
position = "{181, 0}";
},
{
name = ogonek;
position = "{217, 0}";
},
{
name = top;
position = "{263, 420}";
}
);
layerId = "9A6463FA-02C3-4660-BEDA-F7CC218AE705";
paths = (
{
closed = 1;
nodes = (
"213 -9 OFFCURVE",
"306 43 OFFCURVE",
"346 84 QCURVE",
"324 100 LINE",
"237 45 OFFCURVE",
"192 45 QCURVE SMOOTH",
"158 45 OFFCURVE",
"115 104 OFFCURVE",
"115 154 QCURVE SMOOTH",
"116 181 LINE",
"211 188 OFFCURVE",
"334 233 OFFCURVE",
"390 297 OFFCURVE",
"390 332 QCURVE SMOOTH",
"390 373 OFFCURVE",
"318 430 OFFCURVE",
"264 430 QCURVE SMOOTH",
"203 430 OFFCURVE",
"93 346 OFFCURVE",
"26 214 OFFCURVE",
"26 147 QCURVE SMOOTH",
"26 77 OFFCURVE",
"106 -9 OFFCURVE",
"167 -9 QCURVE SMOOTH"
);
},
{
closed = 1;
nodes = (
"127 268 OFFCURVE",
"153 319 QCURVE SMOOTH",
"196 400 OFFCURVE",
"262 400 QCURVE SMOOTH",
"290 400 OFFCURVE",
"319 364 OFFCURVE",
"319 338 QCURVE SMOOTH",
"319 289 OFFCURVE",
"215 220 OFFCURVE",
"120 213 QCURVE"
);
}
);
userData = {
assembly = "NPUSHB[ ]\011/* 42 values pushed */
28 11 10 3 0 3 1 74 4 1 3 3 2 95 0 2 2 20 75 0 0 0 1 95 0 1 1 26 1 76 25 25 25 34 25 33 37 36 39 5 7 23 
CALL[ ]\011/* CallFunction */";
};
width = 399;
},
{
anchors = (
{
name = bottom;
position = "{189, 0}";
},
{
name = ogonek;
position = "{235, 0}";
},
{
name = top;
position = "{254, 425}";
}
);
background = {
paths = (
{
closed = 1;
nodes = (
"413 383 OFFCURVE",
"336 435 OFFCURVE",
"273 435 QCURVE SMOOTH",
"208 435 OFFCURVE",
"90 361 OFFCURVE",
"18 233 OFFCURVE",
"18 158 QCURVE SMOOTH",
"18 80 OFFCURVE",
"101 -9 OFFCURVE",
"175 -9 QCURVE SMOOTH",
"231 -9 OFFCURVE",
"338 46 OFFCURVE",
"373 92 QCURVE",
"351 112 LINE",
"321 88 OFFCURVE",
"257 62 OFFCURVE",
"229 62 QCURVE SMOOTH",
"193 62 OFFCURVE",
"152 115 OFFCURVE",
"152 168 QCURVE SMOOTH",
"152 183 LINE",
"242 192 OFFCURVE",
"359 241 OFFCURVE",
"413 306 OFFCURVE",
"413 341 QCURVE SMOOTH"
);
},
{
closed = 1;
nodes = (
"287 400 OFFCURVE",
"306 375 OFFCURVE",
"306 355 QCURVE SMOOTH",
"306 302 OFFCURVE",
"229 229 OFFCURVE",
"155 216 QCURVE",
"161 270 OFFCURVE",
"182 319 QCURVE SMOOTH",
"216 400 OFFCURVE",
"267 400 QCURVE SMOOTH"
);
}
);
};
layerId = "EC024578-EFD3-4C50-A1DE-0E38CDD8AD0F";
paths = (
{
closed = 1;
nodes = (
"231 -9 OFFCURVE",
"338 46 OFFCURVE",
"373 92 QCURVE",
"351 112 LINE",
"286 62 OFFCURVE",
"229 62 QCURVE SMOOTH",
"193 62 OFFCURVE",
"152 115 OFFCURVE",
"152 168 QCURVE SMOOTH",
"152 183 LINE",
"242 192 OFFCURVE",
"359 241 OFFCURVE",
"413 306 OFFCURVE",
"413 341 QCURVE SMOOTH",
"413 383 OFFCURVE",
"336 435 OFFCURVE",
"273 435 QCURVE SMOOTH",
"208 435 OFFCURVE",
"90 361 OFFCURVE",
"18 233 OFFCURVE",
"18 158 QCURVE SMOOTH",
"18 80 OFFCURVE",
"101 -9 OFFCURVE",
"175 -9 QCURVE SMOOTH"
);
},
{
closed = 1;
nodes = (
"161 270 OFFCURVE",
"182 319 QCURVE SMOOTH",
"216 400 OFFCURVE",
"267 400 QCURVE SMOOTH",
"287 400 OFFCURVE",
"306 375 OFFCURVE",
"306 355 QCURVE SMOOTH",
"306 302 OFFCURVE",
"229 229 OFFCURVE",
"155 216 QCURVE"
);
}
);
userData = {
assembly = "NPUSHB[ ]\011/* 43 values pushed */
28 11 10 3 4 0 3 1 74 4 1 3 3 2 95 0 2 2 20 75 0 0 0 1 95 0 1 1 26 1 76 25 25 25 34 25 33 37 37 38 5 7 23 
CALL[ ]\011/* CallFunction */";
};
width = 408;
}
);
leftKerningGroup = c;
note = e;
rightKerningGroup = ae;
unicode = 0065;
},
{
glyphname = schwa;
layers = (
{
layerId = "9A6463FA-02C3-4660-BEDA-F7CC218AE705";
paths = (
{
closed = 1;
nodes = (
"196 -10 OFFCURVE",
"306 74 OFFCURVE",
"373 206 OFFCURVE",
"373 273 QCURVE SMOOTH",
"373 343 OFFCURVE",
"293 429 OFFCURVE",
"232 429 QCURVE SMOOTH",
"186 429 OFFCURVE",
"93 377 OFFCURVE",
"53 336 QCURVE",
"75 320 LINE",
"162 375 OFFCURVE",
"207 375 QCURVE SMOOTH",
"241 375 OFFCURVE",
"284 316 OFFCURVE",
"284 266 QCURVE SMOOTH",
"283 239 LINE",
"188 232 OFFCURVE",
"65 187 OFFCURVE",
"9 123 OFFCURVE",
"9 88 QCURVE SMOOTH",
"9 47 OFFCURVE",
"81 -10 OFFCURVE",
"135 -10 QCURVE SMOOTH"
);
},
{
closed = 1;
nodes = (
"109 20 OFFCURVE",
"80 56 OFFCURVE",
"80 82 QCURVE SMOOTH",
"80 131 OFFCURVE",
"184 200 OFFCURVE",
"279 207 QCURVE",
"272 152 OFFCURVE",
"246 101 QCURVE SMOOTH",
"203 20 OFFCURVE",
"137 20 QCURVE SMOOTH"
);
}
);
width = 399;
},
{
layerId = "EC024578-EFD3-4C50-A1DE-0E38CDD8AD0F";
paths = (
{
closed = 1;
nodes = (
"200 -10 OFFCURVE",
"318 64 OFFCURVE",
"390 192 OFFCURVE",
"390 267 QCURVE SMOOTH",
"390 345 OFFCURVE",
"307 434 OFFCURVE",
"233 434 QCURVE SMOOTH",
"177 434 OFFCURVE",
"70 379 OFFCURVE",
"35 333 QCURVE",
"57 313 LINE",
"122 363 OFFCURVE",
"179 363 QCURVE SMOOTH",
"215 363 OFFCURVE",
"256 310 OFFCURVE",
"256 257 QCURVE SMOOTH",
"256 242 LINE",
"166 233 OFFCURVE",
"49 184 OFFCURVE",
"-5 119 OFFCURVE",
"-5 84 QCURVE SMOOTH",
"-5 42 OFFCURVE",
"72 -10 OFFCURVE",
"135 -10 QCURVE SMOOTH"
);
},
{
closed = 1;
nodes = (
"121 25 OFFCURVE",
"102 50 OFFCURVE",
"102 70 QCURVE SMOOTH",
"102 123 OFFCURVE",
"179 196 OFFCURVE",
"253 209 QCURVE",
"247 155 OFFCURVE",
"226 106 QCURVE SMOOTH",
"192 25 OFFCURVE",
"141 25 QCURVE SMOOTH"
);
}
);
width = 408;
}
);
unicode = 0259;
},
{
glyphname = f;
layers = (
{
background = {
paths = (
{
closed = 1;
nodes = (
"240 730 OFFCURVE",
"135 568 OFFCURVE",
"121 440 QCURVE SMOOTH",
"119 420 LINE",
"56 420 LINE",
"29 389 LINE",
"115 389 LINE",
"80 72 LINE SMOOTH",
"68 -32 OFFCURVE",
"42 -156 OFFCURVE",
"2 -218 OFFCURVE",
"-29 -218 QCURVE SMOOTH",
"-43 -218 OFFCURVE",
"-60 -205 OFFCURVE",
"-60 -193 QCURVE SMOOTH",
"-60 -188 OFFCURVE",
"-54 -168 OFFCURVE",
"-54 -162 QCURVE SMOOTH",
"-54 -147 OFFCURVE",
"-76 -134 OFFCURVE",
"-91 -134 QCURVE SMOOTH",
"-113 -134 OFFCURVE",
"-136 -160 OFFCURVE",
"-136 -178 QCURVE SMOOTH",
"-136 -208 OFFCURVE",
"-78 -245 OFFCURVE",
"-37 -245 QCURVE SMOOTH",
"131 -245 OFFCURVE",
"170 102 QCURVE SMOOTH",
"202 389 LINE",
"281 389 LINE",
"310 405 LINE",
"310 420 LINE",
"205 420 LINE",
"209 454 LINE SMOOTH",
"225 594 OFFCURVE",
"279 703 OFFCURVE",
"319 703 QCURVE SMOOTH",
"341 703 OFFCURVE",
"359 680 OFFCURVE",
"359 663 QCURVE SMOOTH",
"359 650 OFFCURVE",
"354 638 QCURVE",
"350 624 OFFCURVE",
"350 617 QCURVE SMOOTH",
"350 588 OFFCURVE",
"386 588 QCURVE SMOOTH",
"410 588 OFFCURVE",
"433 617 OFFCURVE",
"433 639 QCURVE SMOOTH",
"433 678 OFFCURVE",
"372 730 OFFCURVE",
"324 730 QCURVE SMOOTH"
);
}
);
};
layerId = "9A6463FA-02C3-4660-BEDA-F7CC218AE705";
paths = (
{
closed = 1;
nodes = (
"131 -245 OFFCURVE",
"170 102 QCURVE SMOOTH",
"202 389 LINE",
"281 389 LINE",
"295 420 LINE",
"205 420 LINE",
"209 454 LINE SMOOTH",
"238 703 OFFCURVE",
"319 703 QCURVE SMOOTH",
"359 703 OFFCURVE",
"359 663 QCURVE SMOOTH",
"359 650 OFFCURVE",
"354 638 QCURVE",
"350 624 OFFCURVE",
"350 617 QCURVE SMOOTH",
"350 588 OFFCURVE",
"386 588 QCURVE SMOOTH",
"410 588 OFFCURVE",
"433 617 OFFCURVE",
"433 639 QCURVE SMOOTH",
"433 678 OFFCURVE",
"372 730 OFFCURVE",
"324 730 QCURVE SMOOTH",
"240 730 OFFCURVE",
"135 568 OFFCURVE",
"121 440 QCURVE SMOOTH",
"119 420 LINE",
"41 420 LINE",
"29 389 LINE",
"115 389 LINE",
"80 72 LINE SMOOTH",
"66 -51 OFFCURVE",
"22 -218 OFFCURVE",
"-29 -218 QCURVE SMOOTH",
"-60 -218 OFFCURVE",
"-60 -193 QCURVE SMOOTH",
"-60 -188 OFFCURVE",
"-54 -168 OFFCURVE",
"-54 -162 QCURVE SMOOTH",
"-54 -147 OFFCURVE",
"-76 -134 OFFCURVE",
"-91 -134 QCURVE SMOOTH",
"-113 -134 OFFCURVE",
"-136 -160 OFFCURVE",
"-136 -178 QCURVE SMOOTH",
"-136 -208 OFFCURVE",
"-78 -245 OFFCURVE",
"-37 -245 QCURVE SMOOTH"
);
}
);
userData = {
assembly = "NPUSHB[ ]\011/* 14 values pushed */
7 1 0 1 20 1 3 2 34 1 6 5 3 74 
MPPEM[ ]\011/* MeasurePixelPerEm */
PUSHB[ ]\011/* 1 value pushed */
10 
LT[ ]\011/* LessThan */
IF[ ]\011/* If */
NPUSHB[ ]\011/* 49 values pushed */
0 0 1 2 1 0 112 0 5 3 6 3 5 6 126 0 1 1 9 95 10 1 9 9 19 75 7 1 3 3 2 93 8 1 2 2 20 75 0 6 6 4 95 0 4 4 30 4 76 
ELSE[ ]\011/* Else */
MPPEM[ ]\011/* MeasurePixelPerEm */
PUSHB[ ]\011/* 1 value pushed */
50 
LT[ ]\011/* LessThan */
IF[ ]\011/* If */
NPUSHB[ ]\011/* 50 values pushed */
0 0 1 2 1 0 2 126 0 5 3 6 3 5 6 126 0 1 1 9 95 10 1 9 9 19 75 7 1 3 3 2 93 8 1 2 2 20 75 0 6 6 4 95 0 4 4 30 4 76 
ELSE[ ]\011/* Else */
NPUSHB[ ]\011/* 48 values pushed */
0 0 1 2 1 0 2 126 0 5 3 6 3 5 6 126 8 1 2 7 1 3 5 2 3 101 0 1 1 9 95 10 1 9 9 19 75 0 6 6 4 95 0 4 4 30 4 76 
EIF[ ]\011/* EndIf */
EIF[ ]\011/* EndIf */
NPUSHB[ ]\011/* 18 values pushed */
0 0 0 52 0 51 17 20 39 36 34 18 19 39 36 11 7 29 
CALL[ ]\011/* CallFunction */";
};
width = 284;
},
{
background = {
paths = (
{
closed = 1;
nodes = (
"244 730 OFFCURVE",
"122 569 OFFCURVE",
"108 440 QCURVE SMOOTH",
"107 428 LINE",
"51 428 LINE",
"33 389 LINE",
"102 389 LINE",
"67 72 LINE SMOOTH",
"55 -80 OFFCURVE",
"17 -211 OFFCURVE",
"-19 -211 QCURVE SMOOTH",
"-47 -211 OFFCURVE",
"-47 -181 QCURVE SMOOTH",
"-47 -168 OFFCURVE",
"-39 -152 QCURVE",
"-33 -136 OFFCURVE",
"-33 -128 QCURVE SMOOTH",
"-33 -110 OFFCURVE",
"-61 -91 OFFCURVE",
"-83 -91 QCURVE SMOOTH",
"-117 -91 OFFCURVE",
"-154 -132 OFFCURVE",
"-154 -159 QCURVE SMOOTH",
"-154 -196 OFFCURVE",
"-83 -245 OFFCURVE",
"-32 -245 QCURVE SMOOTH",
"67 -245 OFFCURVE",
"182 -54 OFFCURVE",
"202 102 QCURVE SMOOTH",
"234 389 LINE",
"293 389 LINE",
"314 405 LINE",
"314 428 LINE",
"238 428 LINE",
"241 454 LINE",
"259 696 OFFCURVE",
"330 696 QCURVE SMOOTH",
"358 696 OFFCURVE",
"358 666 QCURVE SMOOTH",
"358 655 OFFCURVE",
"350 635 QCURVE",
"343 621 OFFCURVE",
"343 609 QCURVE SMOOTH",
"343 593 OFFCURVE",
"371 573 OFFCURVE",
"394 573 QCURVE SMOOTH",
"429 573 OFFCURVE",
"465 615 OFFCURVE",
"465 641 QCURVE SMOOTH",
"465 678 OFFCURVE",
"395 730 OFFCURVE",
"340 730 QCURVE SMOOTH"
);
}
);
};
layerId = "EC024578-EFD3-4C50-A1DE-0E38CDD8AD0F";
paths = (
{
closed = 1;
nodes = (
"163 -245 OFFCURVE",
"203 113 QCURVE SMOOTH",
"234 389 LINE",
"293 389 LINE",
"309 428 LINE",
"238 428 LINE",
"241 454 LINE",
"259 696 OFFCURVE",
"330 696 QCURVE SMOOTH",
"358 696 OFFCURVE",
"358 666 QCURVE SMOOTH",
"358 655 OFFCURVE",
"350 635 QCURVE",
"343 621 OFFCURVE",
"343 609 QCURVE SMOOTH",
"343 573 OFFCURVE",
"394 573 QCURVE SMOOTH",
"429 573 OFFCURVE",
"465 615 OFFCURVE",
"465 641 QCURVE SMOOTH",
"465 678 OFFCURVE",
"395 730 OFFCURVE",
"340 730 QCURVE SMOOTH",
"244 730 OFFCURVE",
"122 569 OFFCURVE",
"108 440 QCURVE SMOOTH",
"107 428 LINE",
"46 428 LINE",
"33 389 LINE",
"102 389 LINE",
"67 72 LINE SMOOTH",
"55 -80 OFFCURVE",
"17 -211 OFFCURVE",
"-19 -211 QCURVE SMOOTH",
"-47 -211 OFFCURVE",
"-47 -181 QCURVE SMOOTH",
"-47 -168 OFFCURVE",
"-33 -136 OFFCURVE",
"-33 -128 QCURVE SMOOTH",
"-33 -110 OFFCURVE",
"-61 -91 OFFCURVE",
"-83 -91 QCURVE SMOOTH",
"-117 -91 OFFCURVE",
"-154 -132 OFFCURVE",
"-154 -159 QCURVE SMOOTH",
"-154 -196 OFFCURVE",
"-83 -245 OFFCURVE",
"-32 -245 QCURVE SMOOTH"
);
}
);
userData = {
assembly = "NPUSHB[ ]\011/* 10 values pushed */
19 1 3 2 34 1 6 5 2 74 
MPPEM[ ]\011/* MeasurePixelPerEm */
PUSHB[ ]\011/* 1 value pushed */
10 
LT[ ]\011/* LessThan */
IF[ ]\011/* If */
NPUSHB[ ]\011/* 48 values pushed */
0 0 1 2 1 0 112 0 5 3 6 6 5 112 0 1 1 9 95 10 1 9 9 19 75 7 1 3 3 2 93 8 1 2 2 20 75 0 6 6 4 96 0 4 4 30 4 76 
ELSE[ ]\011/* Else */
NPUSHB[ ]\011/* 50 values pushed */
0 0 1 2 1 0 2 126 0 5 3 6 3 5 6 126 0 1 1 9 95 10 1 9 9 19 75 7 1 3 3 2 93 8 1 2 2 20 75 0 6 6 4 96 0 4 4 30 4 76 
EIF[ ]\011/* EndIf */
NPUSHB[ ]\011/* 18 values pushed */
0 0 0 51 0 50 17 19 39 36 35 18 18 39 36 11 7 29 
CALL[ ]\011/* CallFunction */";
};
width = 301;
}
);
leftKerningGroup = f;
note = f;
rightKerningGroup = f;
unicode = 0066;
},
{
glyphname = g;
layers = (
{
anchors = (
{
name = top;
position = "{237, 420}";
}
);
background = {
anchors = (
{
name = top;
position = "{237, 420}";
}
);
paths = (
{
closed = 1;
nodes = (
"390 505 OFFCURVE",
"307 423 QCURVE",
"281 430 OFFCURVE",
"253 430 QCURVE SMOOTH",
"195 430 OFFCURVE",
"97 378 OFFCURVE",
"41 291 OFFCURVE",
"41 241 QCURVE SMOOTH",
"41 176 OFFCURVE",
"88 148 QCURVE",
"81 143 LINE SMOOTH",
"54 125 OFFCURVE",
"25 92 OFFCURVE",
"25 71 QCURVE SMOOTH",
"25 49 OFFCURVE",
"57 16 OFFCURVE",
"87 3 QCURVE",
"32 -25 OFFCURVE",
"-36 -97 OFFCURVE",
"-36 -140 QCURVE SMOOTH",
"-36 -245 OFFCURVE",
"126 -245 QCURVE SMOOTH",
"233 -245 OFFCURVE",
"377 -171 OFFCURVE",
"377 -102 QCURVE SMOOTH",
"377 -61 OFFCURVE",
"334 -9 OFFCURVE",
"276 18 OFFCURVE",
"221 37 QCURVE SMOOTH",
"174 52 LINE SMOOTH",
"132 65 OFFCURVE",
"91 84 OFFCURVE",
"91 101 QCURVE SMOOTH",
"91 114 OFFCURVE",
"111 138 QCURVE",
"135 130 OFFCURVE",
"165 130 QCURVE SMOOTH",
"223 130 OFFCURVE",
"322 182 OFFCURVE",
"379 269 OFFCURVE",
"379 319 QCURVE SMOOTH",
"379 385 OFFCURVE",
"328 414 QCURVE",
"343 428 OFFCURVE",
"383 447 OFFCURVE",
"392 447 QCURVE SMOOTH",
"399 447 OFFCURVE",
"409 431 OFFCURVE",
"420 424 OFFCURVE",
"432 424 QCURVE SMOOTH",
"448 424 OFFCURVE",
"471 452 OFFCURVE",
"471 467 QCURVE SMOOTH",
"471 482 OFFCURVE",
"452 505 OFFCURVE",
"430 505 QCURVE SMOOTH"
);
},
{
closed = 1;
nodes = (
"263 193 OFFCURVE",
"219 157 OFFCURVE",
"187 157 QCURVE SMOOTH",
"127 157 OFFCURVE",
"127 226 QCURVE SMOOTH",
"127 283 OFFCURVE",
"143 330 QCURVE SMOOTH",
"168 403 OFFCURVE",
"233 403 QCURVE SMOOTH",
"293 403 OFFCURVE",
"293 334 QCURVE SMOOTH",
"293 274 OFFCURVE",
"277 230 QCURVE SMOOTH"
);
},
{
closed = 1;
nodes = (
"308 -167 OFFCURVE",
"204 -219 OFFCURVE",
"129 -219 QCURVE SMOOTH",
"16 -219 OFFCURVE",
"16 -138 QCURVE SMOOTH",
"16 -94 OFFCURVE",
"79 -25 OFFCURVE",
"120 -9 QCURVE",
"181 -27 LINE SMOOTH",
"242 -46 OFFCURVE",
"308 -88 OFFCURVE",
"308 -125 QCURVE SMOOTH"
);
}
);
};
layerId = "9A6463FA-02C3-4660-BEDA-F7CC218AE705";
paths = (
{
closed = 1;
nodes = (
"233 -245 OFFCURVE",
"377 -171 OFFCURVE",
"377 -102 QCURVE SMOOTH",
"377 -61 OFFCURVE",
"334 -9 OFFCURVE",
"276 18 OFFCURVE",
"221 37 QCURVE SMOOTH",
"174 52 LINE SMOOTH",
"132 65 OFFCURVE",
"91 84 OFFCURVE",
"91 101 QCURVE SMOOTH",
"91 114 OFFCURVE",
"111 138 QCURVE",
"135 130 OFFCURVE",
"165 130 QCURVE SMOOTH",
"223 130 OFFCURVE",
"322 182 OFFCURVE",
"379 269 OFFCURVE",
"379 319 QCURVE SMOOTH",
"379 373 OFFCURVE",
"311 430 OFFCURVE",
"253 430 QCURVE SMOOTH",
"195 430 OFFCURVE",
"97 378 OFFCURVE",
"41 291 OFFCURVE",
"41 241 QCURVE SMOOTH",
"41 176 OFFCURVE",
"88 148 QCURVE",
"81 143 LINE SMOOTH",
"54 125 OFFCURVE",
"25 92 OFFCURVE",
"25 71 QCURVE SMOOTH",
"25 49 OFFCURVE",
"57 16 OFFCURVE",
"87 3 QCURVE",
"32 -25 OFFCURVE",
"-36 -97 OFFCURVE",
"-36 -140 QCURVE SMOOTH",
"-36 -245 OFFCURVE",
"126 -245 QCURVE SMOOTH"
);
},
{
closed = 1;
nodes = (
"16 -219 OFFCURVE",
"16 -138 QCURVE SMOOTH",
"16 -94 OFFCURVE",
"79 -25 OFFCURVE",
"120 -9 QCURVE",
"181 -27 LINE SMOOTH",
"242 -46 OFFCURVE",
"308 -88 OFFCURVE",
"308 -125 QCURVE SMOOTH",
"308 -167 OFFCURVE",
"204 -219 OFFCURVE",
"129 -219 QCURVE SMOOTH"
);
},
{
closed = 1;
nodes = (
"127 157 OFFCURVE",
"127 226 QCURVE SMOOTH",
"127 283 OFFCURVE",
"143 330 QCURVE SMOOTH",
"168 403 OFFCURVE",
"233 403 QCURVE SMOOTH",
"293 403 OFFCURVE",
"293 334 QCURVE SMOOTH",
"293 274 OFFCURVE",
"277 230 QCURVE SMOOTH",
"263 193 OFFCURVE",
"219 157 OFFCURVE",
"187 157 QCURVE SMOOTH"
);
},
{
closed = 1;
nodes = (
"437 404 OFFCURVE",
"448 486 QCURVE SMOOTH",
"455 537 OFFCURVE",
"410 537 QCURVE SMOOTH",
"369 537 OFFCURVE",
"364 498 QCURVE SMOOTH",
"362 482 OFFCURVE",
"388 464 OFFCURVE",
"386 453 QCURVE SMOOTH",
"381 427 OFFCURVE",
"336 410 OFFCURVE",
"307 422 QCURVE",
"340 393 LINE"
);
}
);
userData = {
assembly = "NPUSHB[ ]\011/* 84 values pushed */
55 12 2 6 0 47 20 2 2 7 80 40 2 8 2 3 74 0 1 5 4 5 1 4 126 9 1 5 0 0 6 5 0 103 0 7 0 2 8 7 2 103 0 6 6 4 95 0 4 4 20 75 0 8 8 3 95 0 3 3 30 3 76 0 0 86 84 74 72 65 63 0 58 0 57 54 52 47 39 34 36 10 7 24 
CALL[ ]\011/* CallFunction */";
};
width = 428;
},
{
anchors = (
{
name = top;
position = "{268, 425}";
}
);
background = {
paths = (
{
closed = 1;
nodes = (
"413 510 OFFCURVE",
"342 430 QCURVE",
"315 435 OFFCURVE",
"286 435 QCURVE SMOOTH",
"209 435 OFFCURVE",
"98 382 OFFCURVE",
"42 294 OFFCURVE",
"42 243 QCURVE SMOOTH",
"42 210 OFFCURVE",
"73 160 OFFCURVE",
"104 145 QCURVE",
"78 125 LINE SMOOTH",
"48 102 OFFCURVE",
"20 60 OFFCURVE",
"20 38 QCURVE SMOOTH",
"20 11 OFFCURVE",
"57 -24 OFFCURVE",
"91 -36 QCURVE",
"34 -56 OFFCURVE",
"-31 -116 OFFCURVE",
"-31 -152 QCURVE SMOOTH",
"-31 -197 OFFCURVE",
"64 -245 OFFCURVE",
"158 -245 QCURVE SMOOTH",
"283 -245 OFFCURVE",
"437 -164 OFFCURVE",
"437 -90 QCURVE SMOOTH",
"437 -46 OFFCURVE",
"386 6 OFFCURVE",
"312 32 OFFCURVE",
"256 43 QCURVE SMOOTH",
"230 48 LINE SMOOTH",
"174 58 OFFCURVE",
"123 78 OFFCURVE",
"123 98 QCURVE SMOOTH",
"123 114 OFFCURVE",
"141 132 QCURVE",
"169 127 OFFCURVE",
"197 127 QCURVE SMOOTH",
"273 127 OFFCURVE",
"383 180 OFFCURVE",
"440 268 OFFCURVE",
"440 320 QCURVE SMOOTH",
"440 354 OFFCURVE",
"406 406 OFFCURVE",
"372 420 QCURVE",
"385 434 OFFCURVE",
"416 449 OFFCURVE",
"426 449 QCURVE SMOOTH",
"434 449 OFFCURVE",
"442 442 OFFCURVE",
"447 434 QCURVE SMOOTH",
"453 424 OFFCURVE",
"467 414 OFFCURVE",
"481 414 QCURVE SMOOTH",
"505 414 OFFCURVE",
"530 447 OFFCURVE",
"530 465 QCURVE SMOOTH",
"530 487 OFFCURVE",
"501 510 OFFCURVE",
"476 510 QCURVE SMOOTH"
);
},
{
closed = 1;
nodes = (
"281 199 OFFCURVE",
"244 158 OFFCURVE",
"216 158 QCURVE SMOOTH",
"173 158 OFFCURVE",
"173 223 QCURVE SMOOTH",
"173 278 OFFCURVE",
"188 326 QCURVE SMOOTH",
"214 405 OFFCURVE",
"267 405 QCURVE SMOOTH",
"308 405 OFFCURVE",
"308 339 QCURVE SMOOTH",
"308 276 OFFCURVE",
"294 237 QCURVE SMOOTH"
);
},
{
closed = 1;
nodes = (
"322 -152 OFFCURVE",
"283 -189 OFFCURVE",
"213 -212 OFFCURVE",
"168 -212 QCURVE SMOOTH",
"114 -212 OFFCURVE",
"63 -175 OFFCURVE",
"63 -144 QCURVE SMOOTH",
"63 -114 OFFCURVE",
"102 -59 OFFCURVE",
"128 -46 QCURVE",
"146 -50 OFFCURVE",
"195 -59 QCURVE SMOOTH",
"258 -71 OFFCURVE",
"322 -100 OFFCURVE",
"322 -130 QCURVE SMOOTH"
);
}
);
};
layerId = "EC024578-EFD3-4C50-A1DE-0E38CDD8AD0F";
paths = (
{
closed = 1;
nodes = (
"283 -245 OFFCURVE",
"437 -164 OFFCURVE",
"437 -90 QCURVE SMOOTH",
"437 -46 OFFCURVE",
"386 6 OFFCURVE",
"312 32 OFFCURVE",
"256 43 QCURVE SMOOTH",
"230 48 LINE SMOOTH",
"174 58 OFFCURVE",
"123 78 OFFCURVE",
"123 98 QCURVE SMOOTH",
"123 114 OFFCURVE",
"141 132 QCURVE",
"169 127 OFFCURVE",
"197 127 QCURVE SMOOTH",
"273 127 OFFCURVE",
"383 180 OFFCURVE",
"440 268 OFFCURVE",
"440 320 QCURVE SMOOTH",
"440 376 OFFCURVE",
"356 435 OFFCURVE",
"286 435 QCURVE SMOOTH",
"209 435 OFFCURVE",
"98 382 OFFCURVE",
"42 294 OFFCURVE",
"42 243 QCURVE SMOOTH",
"42 174 OFFCURVE",
"104 145 QCURVE",
"78 125 LINE SMOOTH",
"48 102 OFFCURVE",
"20 60 OFFCURVE",
"20 38 QCURVE SMOOTH",
"20 11 OFFCURVE",
"57 -24 OFFCURVE",
"91 -36 QCURVE",
"34 -56 OFFCURVE",
"-31 -116 OFFCURVE",
"-31 -152 QCURVE SMOOTH",
"-31 -245 OFFCURVE",
"158 -245 QCURVE SMOOTH"
);
},
{
closed = 1;
nodes = (
"63 -211 OFFCURVE",
"63 -143 QCURVE SMOOTH",
"63 -114 OFFCURVE",
"102 -59 OFFCURVE",
"128 -46 QCURVE",
"195 -59 LINE",
"258 -71 OFFCURVE",
"322 -100 OFFCURVE",
"322 -130 QCURVE SMOOTH",
"322 -164 OFFCURVE",
"233 -212 OFFCURVE",
"168 -212 QCURVE SMOOTH"
);
},
{
closed = 1;
nodes = (
"173 158 OFFCURVE",
"173 223 QCURVE SMOOTH",
"173 278 OFFCURVE",
"188 326 QCURVE SMOOTH",
"214 405 OFFCURVE",
"267 405 QCURVE SMOOTH",
"308 405 OFFCURVE",
"308 339 QCURVE SMOOTH",
"308 276 OFFCURVE",
"294 237 QCURVE SMOOTH",
"281 199 OFFCURVE",
"244 158 OFFCURVE",
"216 158 QCURVE SMOOTH"
);
},
{
closed = 1;
nodes = (
"499 400 OFFCURVE",
"512 496 QCURVE SMOOTH",
"520 555 OFFCURVE",
"468 555 QCURVE SMOOTH",
"421 555 OFFCURVE",
"414 510 QCURVE SMOOTH",
"411 492 OFFCURVE",
"441 472 OFFCURVE",
"439 459 QCURVE SMOOTH",
"435 431 OFFCURVE",
"382 416 OFFCURVE",
"351 427 QCURVE",
"390 389 LINE"
);
}
);
userData = {
assembly = "NPUSHB[ ]\011/* 17 values pushed */
58 14 2 0 4 49 23 2 2 7 78 42 2 8 2 3 74 
MPPEM[ ]\011/* MeasurePixelPerEm */
PUSHB[ ]\011/* 1 value pushed */
36 
LT[ ]\011/* LessThan */
IF[ ]\011/* If */
NPUSHB[ ]\011/* 45 values pushed */
0 0 4 6 1 0 112 9 1 5 0 1 4 5 1 103 0 7 0 2 8 7 2 103 0 6 6 4 95 0 4 4 20 75 0 8 8 3 95 0 3 3 30 3 76 
ELSE[ ]\011/* Else */
NPUSHB[ ]\011/* 46 values pushed */
0 0 4 6 4 0 6 126 9 1 5 0 1 4 5 1 103 0 7 0 2 8 7 2 103 0 6 6 4 95 0 4 4 20 75 0 8 8 3 95 0 3 3 30 3 76 
EIF[ ]\011/* EndIf */
NPUSHB[ ]\011/* 21 values pushed */
0 0 85 83 71 69 65 63 0 60 0 59 57 55 45 40 36 36 10 7 24 
CALL[ ]\011/* CallFunction */";
};
width = 481;
}
);
leftKerningGroup = g;
note = g;
unicode = 0067;
},
{
glyphname = gcircumflex;
layers = (
{
layerId = "9A6463FA-02C3-4660-BEDA-F7CC218AE705";
paths = (
{
closed = 1;
nodes = (
"233 -245 OFFCURVE",
"377 -171 OFFCURVE",
"377 -102 QCURVE SMOOTH",
"377 -61 OFFCURVE",
"334 -9 OFFCURVE",
"276 18 OFFCURVE",
"221 37 QCURVE SMOOTH",
"174 52 LINE SMOOTH",
"132 65 OFFCURVE",
"91 84 OFFCURVE",
"91 101 QCURVE SMOOTH",
"91 114 OFFCURVE",
"111 138 QCURVE",
"135 130 OFFCURVE",
"165 130 QCURVE SMOOTH",
"223 130 OFFCURVE",
"322 182 OFFCURVE",
"379 269 OFFCURVE",
"379 319 QCURVE SMOOTH",
"379 373 OFFCURVE",
"311 430 OFFCURVE",
"253 430 QCURVE SMOOTH",
"195 430 OFFCURVE",
"97 378 OFFCURVE",
"41 291 OFFCURVE",
"41 241 QCURVE SMOOTH",
"41 176 OFFCURVE",
"88 148 QCURVE",
"81 143 LINE SMOOTH",
"54 125 OFFCURVE",
"25 92 OFFCURVE",
"25 71 QCURVE SMOOTH",
"25 49 OFFCURVE",
"57 16 OFFCURVE",
"87 3 QCURVE",
"32 -25 OFFCURVE",
"-36 -97 OFFCURVE",
"-36 -140 QCURVE SMOOTH",
"-36 -245 OFFCURVE",
"126 -245 QCURVE SMOOTH"
);
},
{
closed = 1;
nodes = (
"16 -219 OFFCURVE",
"16 -138 QCURVE SMOOTH",
"16 -94 OFFCURVE",
"79 -25 OFFCURVE",
"120 -9 QCURVE",
"181 -27 LINE SMOOTH",
"242 -46 OFFCURVE",
"308 -88 OFFCURVE",
"308 -125 QCURVE SMOOTH",
"308 -167 OFFCURVE",
"204 -219 OFFCURVE",
"129 -219 QCURVE SMOOTH"
);
},
{
closed = 1;
nodes = (
"127 157 OFFCURVE",
"127 226 QCURVE SMOOTH",
"127 283 OFFCURVE",
"143 330 QCURVE SMOOTH",
"168 403 OFFCURVE",
"233 403 QCURVE SMOOTH",
"293 403 OFFCURVE",
"293 334 QCURVE SMOOTH",
"293 274 OFFCURVE",
"277 230 QCURVE SMOOTH",
"263 193 OFFCURVE",
"219 157 OFFCURVE",
"187 157 QCURVE SMOOTH"
);
},
{
closed = 1;
nodes = (
"153 493 OFFCURVE",
"167 505 QCURVE SMOOTH",
"250 578 LINE",
"318 505 LINE SMOOTH",
"330 492 OFFCURVE",
"338 493 QCURVE SMOOTH",
"348 493 OFFCURVE",
"348 500 QCURVE SMOOTH",
"348 505 OFFCURVE",
"318 557 OFFCURVE",
"267 649 OFFCURVE",
"259 649 QCURVE SMOOTH",
"250 649 OFFCURVE",
"185 568 OFFCURVE",
"134 506 OFFCURVE",
"134 500 QCURVE SMOOTH",
"134 493 OFFCURVE",
"143 493 QCURVE SMOOTH"
);
},
{
closed = 1;
nodes = (
"437 404 OFFCURVE",
"448 486 QCURVE SMOOTH",
"455 537 OFFCURVE",
"410 537 QCURVE SMOOTH",
"369 537 OFFCURVE",
"364 498 QCURVE SMOOTH",
"362 482 OFFCURVE",
"388 464 OFFCURVE",
"386 453 QCURVE SMOOTH",
"381 427 OFFCURVE",
"336 410 OFFCURVE",
"307 422 QCURVE",
"340 393 LINE"
);
}
);
width = 428;
},
{
layerId = "EC024578-EFD3-4C50-A1DE-0E38CDD8AD0F";
paths = (
{
closed = 1;
nodes = (
"283 -245 OFFCURVE",
"437 -164 OFFCURVE",
"437 -90 QCURVE SMOOTH",
"437 -46 OFFCURVE",
"386 6 OFFCURVE",
"312 32 OFFCURVE",
"256 43 QCURVE SMOOTH",
"230 48 LINE SMOOTH",
"174 58 OFFCURVE",
"123 78 OFFCURVE",
"123 98 QCURVE SMOOTH",
"123 114 OFFCURVE",
"141 132 QCURVE",
"169 127 OFFCURVE",
"197 127 QCURVE SMOOTH",
"273 127 OFFCURVE",
"383 180 OFFCURVE",
"440 268 OFFCURVE",
"440 320 QCURVE SMOOTH",
"440 376 OFFCURVE",
"356 435 OFFCURVE",
"286 435 QCURVE SMOOTH",
"209 435 OFFCURVE",
"98 382 OFFCURVE",
"42 294 OFFCURVE",
"42 243 QCURVE SMOOTH",
"42 174 OFFCURVE",
"104 145 QCURVE",
"78 125 LINE SMOOTH",
"48 102 OFFCURVE",
"20 60 OFFCURVE",
"20 38 QCURVE SMOOTH",
"20 11 OFFCURVE",
"57 -24 OFFCURVE",
"91 -36 QCURVE",
"34 -56 OFFCURVE",
"-31 -116 OFFCURVE",
"-31 -152 QCURVE SMOOTH",
"-31 -245 OFFCURVE",
"158 -245 QCURVE SMOOTH"
);
},
{
closed = 1;
nodes = (
"63 -211 OFFCURVE",
"63 -143 QCURVE SMOOTH",
"63 -114 OFFCURVE",
"102 -59 OFFCURVE",
"128 -46 QCURVE",
"195 -59 LINE",
"258 -71 OFFCURVE",
"322 -100 OFFCURVE",
"322 -130 QCURVE SMOOTH",
"322 -164 OFFCURVE",
"233 -212 OFFCURVE",
"168 -212 QCURVE SMOOTH"
);
},
{
closed = 1;
nodes = (
"173 158 OFFCURVE",
"173 223 QCURVE SMOOTH",
"173 278 OFFCURVE",
"188 326 QCURVE SMOOTH",
"214 405 OFFCURVE",
"267 405 QCURVE SMOOTH",
"308 405 OFFCURVE",
"308 339 QCURVE SMOOTH",
"308 276 OFFCURVE",
"294 237 QCURVE SMOOTH",
"281 199 OFFCURVE",
"244 158 OFFCURVE",
"216 158 QCURVE SMOOTH"
);
},
{
closed = 1;
nodes = (
"170 492 OFFCURVE",
"185 504 QCURVE",
"277 570 LINE",
"355 504 LINE SMOOTH",
"369 492 OFFCURVE",
"380 492 QCURVE SMOOTH",
"391 492 OFFCURVE",
"391 501 QCURVE SMOOTH",
"391 508 OFFCURVE",
"359 555 OFFCURVE",
"300 648 OFFCURVE",
"286 648 QCURVE SMOOTH",
"271 648 OFFCURVE",
"197 560 OFFCURVE",
"149 505 OFFCURVE",
"149 499 QCURVE SMOOTH",
"149 492 OFFCURVE",
"158 492 QCURVE SMOOTH"
);
},
{
closed = 1;
nodes = (
"499 400 OFFCURVE",
"512 496 QCURVE SMOOTH",
"520 555 OFFCURVE",
"468 555 QCURVE SMOOTH",
"421 555 OFFCURVE",
"414 510 QCURVE SMOOTH",
"411 492 OFFCURVE",
"441 472 OFFCURVE",
"439 459 QCURVE SMOOTH",
"435 431 OFFCURVE",
"382 416 OFFCURVE",
"351 427 QCURVE",
"390 389 LINE"
);
}
);
width = 481;
}
);
unicode = 011D;
},
{
glyphname = h;
layers = (
{
anchors = (
{
name = bottom;
position = "{217, 0}";
},
{
name = center;
position = "{178, 544}";
},
{
name = top;
position = "{167, 677}";
}
);
background = {
paths = (
{
closed = 1;
nodes = (
"454 80 LINE",
"434 67 OFFCURVE",
"417 67 QCURVE SMOOTH",
"406 67 OFFCURVE",
"398 82 OFFCURVE",
"398 90 QCURVE SMOOTH",
"398 105 OFFCURVE",
"417 183 QCURVE SMOOTH",
"419 192 OFFCURVE",
"433 253 OFFCURVE",
"446 318 OFFCURVE",
"446 340 QCURVE SMOOTH",
"446 380 OFFCURVE",
"398 430 OFFCURVE",
"357 430 QCURVE SMOOTH",
"293 430 OFFCURVE",
"190 309 OFFCURVE",
"152 222 QCURVE",
"187 464 LINE",
"207 581 OFFCURVE",
"216 643 QCURVE SMOOTH",
"226 697 OFFCURVE",
"226 708 QCURVE SMOOTH",
"226 721 OFFCURVE",
"208 730 OFFCURVE",
"188 730 QCURVE SMOOTH",
"167 730 OFFCURVE",
"103 714 OFFCURVE",
"70 698 QCURVE",
"76 673 LINE",
"85 675 OFFCURVE",
"100 675 QCURVE SMOOTH",
"115 675 OFFCURVE",
"133 663 OFFCURVE",
"133 651 QCURVE SMOOTH",
"133 605 OFFCURVE",
"64 119 OFFCURVE",
"45 0 QCURVE",
"124 0 LINE",
"138 112 LINE",
"153 171 OFFCURVE",
"216 294 OFFCURVE",
"291 375 OFFCURVE",
"321 375 QCURVE SMOOTH",
"341 375 OFFCURVE",
"364 347 OFFCURVE",
"364 324 QCURVE SMOOTH",
"364 284 OFFCURVE",
"338 166 QCURVE SMOOTH",
"330 126 OFFCURVE",
"316 52 OFFCURVE",
"316 35 QCURVE SMOOTH",
"316 14 OFFCURVE",
"334 -10 OFFCURVE",
"348 -10 QCURVE SMOOTH",
"370 -10 OFFCURVE",
"435 28 OFFCURVE",
"466 60 QCURVE"
);
}
);
};
layerId = "9A6463FA-02C3-4660-BEDA-F7CC218AE705";
paths = (
{
closed = 1;
nodes = (
"370 -10 OFFCURVE",
"435 28 OFFCURVE",
"466 60 QCURVE",
"454 80 LINE",
"434 67 OFFCURVE",
"417 67 QCURVE SMOOTH",
"406 67 OFFCURVE",
"398 82 OFFCURVE",
"398 90 QCURVE SMOOTH",
"398 105 OFFCURVE",
"417 183 QCURVE SMOOTH",
"433 253 OFFCURVE",
"446 318 OFFCURVE",
"446 340 QCURVE SMOOTH",
"446 380 OFFCURVE",
"398 430 OFFCURVE",
"357 430 QCURVE SMOOTH",
"293 430 OFFCURVE",
"190 309 OFFCURVE",
"152 222 QCURVE",
"187 464 LINE",
"207 581 OFFCURVE",
"216 643 QCURVE SMOOTH",
"226 697 OFFCURVE",
"226 708 QCURVE SMOOTH",
"226 721 OFFCURVE",
"208 730 OFFCURVE",
"188 730 QCURVE SMOOTH",
"167 730 OFFCURVE",
"103 714 OFFCURVE",
"70 698 QCURVE",
"76 673 LINE",
"85 675 OFFCURVE",
"100 675 QCURVE SMOOTH",
"115 675 OFFCURVE",
"133 663 OFFCURVE",
"133 651 QCURVE SMOOTH",
"133 605 OFFCURVE",
"64 119 OFFCURVE",
"45 0 QCURVE",
"124 0 LINE",
"138 112 LINE",
"153 171 OFFCURVE",
"216 294 OFFCURVE",
"290 375 OFFCURVE",
"321 375 QCURVE SMOOTH",
"364 375 OFFCURVE",
"364 324 QCURVE SMOOTH",
"364 284 OFFCURVE",
"338 166 QCURVE SMOOTH",
"316 52 OFFCURVE",
"316 35 QCURVE SMOOTH",
"316 14 OFFCURVE",
"334 -10 OFFCURVE",
"348 -10 QCURVE SMOOTH"
);
}
);
userData = {
assembly = "NPUSHB[ ]\011/* 68 values pushed */
29 1 3 4 28 1 5 3 59 54 42 3 6 1 3 74 0 3 4 5 4 3 5 126 0 6 1 2 1 6 2 126 0 4 4 19 75 0 1 1 5 95 0 5 5 20 75 0 2 2 21 75 0 0 0 26 0 76 42 43 36 37 20 41 34 7 7 27 
CALL[ ]\011/* CallFunction */";
};
width = 499;
},
{
anchors = (
{
name = bottom;
position = "{227, 0}";
},
{
name = center;
position = "{177, 544}";
},
{
name = top;
position = "{177, 677}";
}
);
layerId = "EC024578-EFD3-4C50-A1DE-0E38CDD8AD0F";
paths = (
{
closed = 1;
nodes = (
"370 -10 OFFCURVE",
"456 28 OFFCURVE",
"496 60 QCURVE",
"485 88 LINE",
"465 75 OFFCURVE",
"448 75 QCURVE SMOOTH",
"437 75 OFFCURVE",
"429 90 OFFCURVE",
"429 98 QCURVE SMOOTH",
"429 117 OFFCURVE",
"450 197 QCURVE SMOOTH",
"464 257 OFFCURVE",
"478 323 OFFCURVE",
"478 345 QCURVE SMOOTH",
"478 385 OFFCURVE",
"430 435 OFFCURVE",
"389 435 QCURVE SMOOTH",
"326 435 OFFCURVE",
"224 326 OFFCURVE",
"187 247 QCURVE",
"218 464 LINE SMOOTH",
"235 579 OFFCURVE",
"247 640 QCURVE SMOOTH",
"257 690 OFFCURVE",
"257 701 QCURVE SMOOTH",
"257 719 OFFCURVE",
"234 730 OFFCURVE",
"208 730 QCURVE SMOOTH",
"180 730 OFFCURVE",
"98 714 OFFCURVE",
"56 698 QCURVE",
"61 666 LINE",
"70 668 OFFCURVE",
"85 668 QCURVE SMOOTH",
"100 668 OFFCURVE",
"118 656 OFFCURVE",
"118 644 QCURVE SMOOTH",
"118 598 OFFCURVE",
"49 113 OFFCURVE",
"31 0 QCURVE",
"155 0 LINE",
"169 119 LINE",
"182 171 OFFCURVE",
"234 279 OFFCURVE",
"294 350 OFFCURVE",
"319 350 QCURVE SMOOTH",
"348 350 OFFCURVE",
"348 316 QCURVE SMOOTH",
"348 299 OFFCURVE",
"324 178 QCURVE SMOOTH",
"299 66 OFFCURVE",
"299 35 QCURVE SMOOTH",
"299 14 OFFCURVE",
"323 -10 OFFCURVE",
"341 -10 QCURVE SMOOTH"
);
}
);
userData = {
assembly = "NPUSHB[ ]\011/* 64 values pushed */
27 1 5 3 55 50 39 3 6 1 2 74 0 3 4 5 4 3 5 126 0 6 1 2 1 6 2 126 0 4 4 19 75 0 1 1 5 95 0 5 5 20 75 0 2 2 21 75 0 0 0 26 0 76 41 41 36 37 20 40 34 7 7 27 
CALL[ ]\011/* CallFunction */";
};
width = 520;
}
);
leftKerningGroup = h;
note = h;
rightKerningGroup = h;
unicode = 0068;
},
{
glyphname = i;
layers = (
{
anchors = (
{
name = bottom;
position = "{100, 0}";
},
{
name = ogonek;
position = "{123, 0}";
}
);
layerId = "9A6463FA-02C3-4660-BEDA-F7CC218AE705";
paths = (
{
closed = 1;
nodes = (
"124 -10 OFFCURVE",
"181 27 OFFCURVE",
"213 60 QCURVE",
"201 80 LINE",
"181 67 OFFCURVE",
"165 67 QCURVE SMOOTH",
"148 67 OFFCURVE",
"148 94 QCURVE SMOOTH",
"148 139 OFFCURVE",
"164 230 QCURVE SMOOTH",
"165 235 OFFCURVE",
"184 334 QCURVE SMOOTH",
"196 396 OFFCURVE",
"196 404 QCURVE SMOOTH",
"196 417 OFFCURVE",
"180 426 OFFCURVE",
"165 426 QCURVE SMOOTH",
"114 426 OFFCURVE",
"51 400 QCURVE",
"56 371 LINE",
"64 373 OFFCURVE",
"72 373 QCURVE SMOOTH",
"103 373 OFFCURVE",
"103 347 QCURVE SMOOTH",
"103 310 OFFCURVE",
"90 223 QCURVE SMOOTH",
"78 147 LINE SMOOTH",
"76 134 OFFCURVE",
"64 53 OFFCURVE",
"64 36 QCURVE SMOOTH",
"64 13 OFFCURVE",
"84 -10 OFFCURVE",
"102 -10 QCURVE SMOOTH"
);
},
{
closed = 1;
nodes = (
"191 548 OFFCURVE",
"225 577 OFFCURVE",
"225 602 QCURVE SMOOTH",
"225 621 OFFCURVE",
"200 643 OFFCURVE",
"178 643 QCURVE SMOOTH",
"152 643 OFFCURVE",
"116 613 OFFCURVE",
"116 589 QCURVE SMOOTH",
"116 570 OFFCURVE",
"143 548 OFFCURVE",
"164 548 QCURVE SMOOTH"
);
}
);
userData = {
assembly = "NPUSHB[ ]\011/* 69 values pushed */
34 29 2 3 4 44 28 2 5 3 45 1 2 5 3 74 0 3 4 5 4 3 5 126 0 5 2 4 5 2 124 6 1 1 0 0 4 1 0 103 0 4 4 20 75 0 2 2 26 2 76 0 0 43 41 32 30 26 25 15 13 0 11 0 10 36 7 7 21 
CALL[ ]\011/* CallFunction */";
};
width = 260;
},
{
anchors = (
{
name = bottom;
position = "{115, 0}";
},
{
name = ogonek;
position = "{136, 0}";
}
);
layerId = "EC024578-EFD3-4C50-A1DE-0E38CDD8AD0F";
paths = (
{
closed = 1;
nodes = (
"128 -10 OFFCURVE",
"203 27 OFFCURVE",
"245 60 QCURVE",
"233 88 LINE",
"213 75 OFFCURVE",
"197 75 QCURVE SMOOTH",
"180 75 OFFCURVE",
"180 102 QCURVE SMOOTH",
"180 144 OFFCURVE",
"196 230 QCURVE SMOOTH",
"199 246 OFFCURVE",
"216 333 QCURVE SMOOTH",
"228 393 OFFCURVE",
"228 402 QCURVE SMOOTH",
"228 420 OFFCURVE",
"207 431 OFFCURVE",
"187 431 QCURVE SMOOTH",
"121 431 OFFCURVE",
"38 405 QCURVE",
"43 369 LINE",
"51 371 OFFCURVE",
"59 371 QCURVE SMOOTH",
"89 371 OFFCURVE",
"89 346 QCURVE SMOOTH",
"89 313 OFFCURVE",
"77 223 QCURVE SMOOTH",
"65 147 LINE SMOOTH",
"63 134 OFFCURVE",
"51 53 OFFCURVE",
"51 36 QCURVE SMOOTH",
"51 13 OFFCURVE",
"77 -10 OFFCURVE",
"100 -10 QCURVE SMOOTH"
);
},
{
closed = 1;
nodes = (
"208 532 OFFCURVE",
"256 570 OFFCURVE",
"256 604 QCURVE SMOOTH",
"256 628 OFFCURVE",
"218 657 OFFCURVE",
"186 657 QCURVE SMOOTH",
"149 657 OFFCURVE",
"100 617 OFFCURVE",
"100 585 QCURVE SMOOTH",
"100 561 OFFCURVE",
"138 532 OFFCURVE",
"169 532 QCURVE SMOOTH"
);
}
);
userData = {
assembly = "NPUSHB[ ]\011/* 68 values pushed */
28 1 3 4 43 27 2 5 3 44 1 2 5 3 74 0 3 4 5 4 3 5 126 0 5 2 4 5 2 124 6 1 1 0 0 4 1 0 103 0 4 4 20 75 0 2 2 26 2 76 0 0 42 40 31 29 25 24 15 13 0 11 0 10 36 7 7 21 
CALL[ ]\011/* CallFunction */";
};
width = 276;
}
);
leftKerningGroup = i;
note = i;
unicode = 0069;
},
{
glyphname = idotless;
layers = (
{
anchors = (
{
name = bottom;
position = "{97, 0}";
},
{
name = top;
position = "{156, 420}";
}
);
layerId = "9A6463FA-02C3-4660-BEDA-F7CC218AE705";
paths = (
{
closed = 1;
nodes = (
"124 -10 OFFCURVE",
"181 27 OFFCURVE",
"213 60 QCURVE",
"201 80 LINE",
"181 67 OFFCURVE",
"165 67 QCURVE SMOOTH",
"148 67 OFFCURVE",
"148 94 QCURVE SMOOTH",
"148 139 OFFCURVE",
"164 230 QCURVE SMOOTH",
"165 235 OFFCURVE",
"184 334 QCURVE SMOOTH",
"196 396 OFFCURVE",
"196 404 QCURVE SMOOTH",
"196 417 OFFCURVE",
"180 426 OFFCURVE",
"165 426 QCURVE SMOOTH",
"114 426 OFFCURVE",
"51 400 QCURVE",
"56 371 LINE",
"64 373 OFFCURVE",
"72 373 QCURVE SMOOTH",
"103 373 OFFCURVE",
"103 347 QCURVE SMOOTH",
"103 310 OFFCURVE",
"90 223 QCURVE SMOOTH",
"78 147 LINE SMOOTH",
"76 134 OFFCURVE",
"64 53 OFFCURVE",
"64 36 QCURVE SMOOTH",
"64 13 OFFCURVE",
"84 -10 OFFCURVE",
"102 -10 QCURVE SMOOTH"
);
}
);
userData = {
assembly = "NPUSHB[ ]\011/* 49 values pushed */
22 17 2 1 2 32 16 2 3 1 33 1 0 3 3 74 0 1 2 3 2 1 3 126 0 3 0 2 3 0 124 0 2 2 20 75 0 0 0 26 0 76 41 36 26 33 4 7 24 
CALL[ ]\011/* CallFunction */";
};
width = 256;
},
{
anchors = (
{
name = bottom;
position = "{113, 0}";
},
{
name = top;
position = "{172, 425}";
}
);
layerId = "EC024578-EFD3-4C50-A1DE-0E38CDD8AD0F";
paths = (
{
closed = 1;
nodes = (
"128 -10 OFFCURVE",
"203 27 OFFCURVE",
"245 60 QCURVE",
"233 88 LINE",
"213 75 OFFCURVE",
"197 75 QCURVE SMOOTH",
"180 75 OFFCURVE",
"180 102 QCURVE SMOOTH",
"180 144 OFFCURVE",
"196 230 QCURVE SMOOTH",
"199 246 OFFCURVE",
"216 333 QCURVE SMOOTH",
"228 393 OFFCURVE",
"228 402 QCURVE SMOOTH",
"228 420 OFFCURVE",
"207 431 OFFCURVE",
"187 431 QCURVE SMOOTH",
"121 431 OFFCURVE",
"38 405 QCURVE",
"43 369 LINE",
"51 371 OFFCURVE",
"59 371 QCURVE SMOOTH",
"89 371 OFFCURVE",
"89 346 QCURVE SMOOTH",
"89 313 OFFCURVE",
"77 223 QCURVE SMOOTH",
"65 147 LINE SMOOTH",
"63 134 OFFCURVE",
"51 53 OFFCURVE",
"51 36 QCURVE SMOOTH",
"51 13 OFFCURVE",
"77 -10 OFFCURVE",
"100 -10 QCURVE SMOOTH"
);
}
);
userData = {
assembly = "NPUSHB[ ]\011/* 48 values pushed */
16 1 1 2 31 15 2 3 1 32 1 0 3 3 74 0 1 2 3 2 1 3 126 0 3 0 2 3 0 124 0 2 2 20 75 0 0 0 26 0 76 41 36 25 33 4 7 24 
CALL[ ]\011/* CallFunction */";
};
width = 275;
}
);
note = dotlessi;
unicode = 0131;
},
{
glyphname = j;
layers = (
{
layerId = "9A6463FA-02C3-4660-BEDA-F7CC218AE705";
paths = (
{
closed = 1;
nodes = (
"37 -245 OFFCURVE",
"117 -115 OFFCURVE",
"134 11 QCURVE SMOOTH",
"141 66 OFFCURVE",
"185 355 OFFCURVE",
"193 403 QCURVE",
"193 417 OFFCURVE",
"177 426 OFFCURVE",
"162 426 QCURVE SMOOTH",
"111 426 OFFCURVE",
"48 400 QCURVE",
"53 371 LINE",
"61 373 OFFCURVE",
"70 373 QCURVE SMOOTH",
"100 373 OFFCURVE",
"100 342 QCURVE SMOOTH",
"100 321 OFFCURVE",
"87 225 QCURVE SMOOTH",
"66 72 LINE SMOOTH",
"50 -45 OFFCURVE",
"29 -157 OFFCURVE",
"-3 -218 OFFCURVE",
"-30 -218 QCURVE SMOOTH",
"-43 -218 OFFCURVE",
"-60 -205 OFFCURVE",
"-60 -193 QCURVE SMOOTH",
"-60 -188 OFFCURVE",
"-54 -168 OFFCURVE",
"-54 -162 QCURVE SMOOTH",
"-54 -147 OFFCURVE",
"-76 -134 OFFCURVE",
"-91 -134 QCURVE SMOOTH",
"-113 -134 OFFCURVE",
"-136 -160 OFFCURVE",
"-136 -178 QCURVE SMOOTH",
"-136 -208 OFFCURVE",
"-78 -245 OFFCURVE",
"-37 -245 QCURVE SMOOTH"
);
},
{
closed = 1;
nodes = (
"192 548 OFFCURVE",
"226 577 OFFCURVE",
"226 602 QCURVE SMOOTH",
"226 621 OFFCURVE",
"201 643 OFFCURVE",
"179 643 QCURVE SMOOTH",
"153 643 OFFCURVE",
"117 613 OFFCURVE",
"117 589 QCURVE SMOOTH",
"117 570 OFFCURVE",
"144 548 OFFCURVE",
"165 548 QCURVE SMOOTH"
);
}
);
userData = {
assembly = "NPUSHB[ ]\011/* 80 values pushed */
47 14 2 5 6 46 1 3 5 29 1 4 3 3 74 0 5 6 3 6 5 3 126 0 3 4 6 3 4 124 7 1 1 0 0 6 1 0 103 8 1 6 6 20 75 0 4 4 2 95 0 2 2 30 2 76 12 12 0 0 12 49 12 48 45 43 36 34 27 25 21 19 0 11 0 10 36 9 7 21 
CALL[ ]\011/* CallFunction */";
};
width = 242;
},
{
background = {
paths = (
{
closed = 1;
nodes = (
"149 657 OFFCURVE",
"100 617 OFFCURVE",
"100 585 QCURVE SMOOTH",
"100 561 OFFCURVE",
"138 532 OFFCURVE",
"169 532 QCURVE SMOOTH",
"207 532 OFFCURVE",
"255 570 OFFCURVE",
"255 604 QCURVE SMOOTH",
"255 628 OFFCURVE",
"217 657 OFFCURVE",
"186 657 QCURVE SMOOTH"
);
},
{
closed = 1;
nodes = (
"119 431 OFFCURVE",
"36 405 QCURVE",
"41 369 LINE",
"49 371 OFFCURVE",
"57 371 QCURVE SMOOTH",
"70 371 OFFCURVE",
"87 360 OFFCURVE",
"87 344 QCURVE SMOOTH",
"87 319 OFFCURVE",
"73 224 QCURVE SMOOTH",
"47 36 LINE SMOOTH",
"34 -74 OFFCURVE",
"18 -170 OFFCURVE",
"-3 -211 OFFCURVE",
"-23 -211 QCURVE SMOOTH",
"-34 -211 OFFCURVE",
"-50 -197 OFFCURVE",
"-50 -181 QCURVE SMOOTH",
"-50 -168 OFFCURVE",
"-42 -152 QCURVE",
"-36 -136 OFFCURVE",
"-36 -128 QCURVE SMOOTH",
"-36 -110 OFFCURVE",
"-64 -91 OFFCURVE",
"-86 -91 QCURVE SMOOTH",
"-120 -91 OFFCURVE",
"-157 -132 OFFCURVE",
"-157 -159 QCURVE SMOOTH",
"-157 -196 OFFCURVE",
"-86 -245 OFFCURVE",
"-35 -245 QCURVE SMOOTH",
"54 -245 OFFCURVE",
"160 -73 OFFCURVE",
"178 73 QCURVE SMOOTH",
"191 169 OFFCURVE",
"212 303 QCURVE SMOOTH",
"226 396 OFFCURVE",
"226 402 QCURVE SMOOTH",
"226 420 OFFCURVE",
"205 431 OFFCURVE",
"185 431 QCURVE SMOOTH"
);
}
);
};
layerId = "EC024578-EFD3-4C50-A1DE-0E38CDD8AD0F";
paths = (
{
closed = 1;
nodes = (
"54 -245 OFFCURVE",
"160 -73 OFFCURVE",
"178 73 QCURVE SMOOTH",
"191 169 OFFCURVE",
"226 396 OFFCURVE",
"226 402 QCURVE SMOOTH",
"226 420 OFFCURVE",
"205 431 OFFCURVE",
"185 431 QCURVE SMOOTH",
"119 431 OFFCURVE",
"36 405 QCURVE",
"41 369 LINE",
"49 371 OFFCURVE",
"57 371 QCURVE SMOOTH",
"87 371 OFFCURVE",
"87 344 QCURVE SMOOTH",
"87 319 OFFCURVE",
"73 224 QCURVE SMOOTH",
"47 36 LINE SMOOTH",
"34 -74 OFFCURVE",
"18 -170 OFFCURVE",
"-3 -211 OFFCURVE",
"-23 -211 QCURVE SMOOTH",
"-34 -211 OFFCURVE",
"-50 -197 OFFCURVE",
"-50 -181 QCURVE SMOOTH",
"-50 -168 OFFCURVE",
"-36 -136 OFFCURVE",
"-36 -128 QCURVE SMOOTH",
"-36 -110 OFFCURVE",
"-64 -91 OFFCURVE",
"-86 -91 QCURVE SMOOTH",
"-120 -91 OFFCURVE",
"-157 -132 OFFCURVE",
"-157 -159 QCURVE SMOOTH",
"-157 -196 OFFCURVE",
"-86 -245 OFFCURVE",
"-35 -245 QCURVE SMOOTH"
);
},
{
closed = 1;
nodes = (
"207 532 OFFCURVE",
"255 570 OFFCURVE",
"255 604 QCURVE SMOOTH",
"255 628 OFFCURVE",
"217 657 OFFCURVE",
"186 657 QCURVE SMOOTH",
"149 657 OFFCURVE",
"100 617 OFFCURVE",
"100 585 QCURVE SMOOTH",
"100 561 OFFCURVE",
"138 532 OFFCURVE",
"169 532 QCURVE SMOOTH"
);
}
);
userData = {
assembly = "NPUSHB[ ]\011/* 15 values pushed */
50 14 2 5 6 49 1 3 5 30 1 4 3 3 74 
MPPEM[ ]\011/* MeasurePixelPerEm */
PUSHB[ ]\011/* 1 value pushed */
10 
LT[ ]\011/* LessThan */
IF[ ]\011/* If */
NPUSHB[ ]\011/* 40 values pushed */
0 5 6 3 6 5 3 126 0 3 4 4 3 110 7 1 1 0 0 6 1 0 103 8 1 6 6 20 75 0 4 4 2 96 0 2 2 30 2 76 
ELSE[ ]\011/* Else */
NPUSHB[ ]\011/* 41 values pushed */
0 5 6 3 6 5 3 126 0 3 4 6 3 4 124 7 1 1 0 0 6 1 0 103 8 1 6 6 20 75 0 4 4 2 96 0 2 2 30 2 76 
EIF[ ]\011/* EndIf */
NPUSHB[ ]\011/* 24 values pushed */
12 12 0 0 12 52 12 51 47 46 38 36 28 26 22 20 0 11 0 10 36 9 7 21 
CALL[ ]\011/* CallFunction */";
};
width = 263;
}
);
note = j;
rightKerningGroup = j;
unicode = 006A;
},
{
glyphname = jdotless;
layers = (
{
anchors = (
{
name = top;
position = "{149, 420}";
}
);
layerId = "9A6463FA-02C3-4660-BEDA-F7CC218AE705";
paths = (
{
closed = 1;
nodes = (
"37 -245 OFFCURVE",
"117 -115 OFFCURVE",
"134 11 QCURVE SMOOTH",
"141 66 OFFCURVE",
"185 355 OFFCURVE",
"193 403 QCURVE",
"193 417 OFFCURVE",
"177 426 OFFCURVE",
"162 426 QCURVE SMOOTH",
"111 426 OFFCURVE",
"48 400 QCURVE",
"53 371 LINE",
"61 373 OFFCURVE",
"70 373 QCURVE SMOOTH",
"100 373 OFFCURVE",
"100 342 QCURVE SMOOTH",
"100 321 OFFCURVE",
"87 225 QCURVE SMOOTH",
"66 72 LINE SMOOTH",
"50 -45 OFFCURVE",
"29 -157 OFFCURVE",
"-3 -218 OFFCURVE",
"-30 -218 QCURVE SMOOTH",
"-43 -218 OFFCURVE",
"-60 -205 OFFCURVE",
"-60 -193 QCURVE SMOOTH",
"-60 -188 OFFCURVE",
"-54 -168 OFFCURVE",
"-54 -162 QCURVE SMOOTH",
"-54 -147 OFFCURVE",
"-76 -134 OFFCURVE",
"-91 -134 QCURVE SMOOTH",
"-113 -134 OFFCURVE",
"-136 -160 OFFCURVE",
"-136 -178 QCURVE SMOOTH",
"-136 -208 OFFCURVE",
"-78 -245 OFFCURVE",
"-37 -245 QCURVE SMOOTH"
);
}
);
userData = {
assembly = "NPUSHB[ ]\011/* 60 values pushed */
35 2 2 3 4 34 1 1 3 17 1 2 1 3 74 0 3 4 1 4 3 1 126 0 1 2 4 1 2 124 5 1 4 4 20 75 0 2 2 0 95 0 0 0 30 0 76 0 0 0 37 0 36 39 39 36 39 6 7 24 
CALL[ ]\011/* CallFunction */";
};
width = 242;
},
{
anchors = (
{
name = top;
position = "{159, 425}";
}
);
layerId = "EC024578-EFD3-4C50-A1DE-0E38CDD8AD0F";
paths = (
{
closed = 1;
nodes = (
"54 -245 OFFCURVE",
"160 -73 OFFCURVE",
"178 73 QCURVE SMOOTH",
"191 169 OFFCURVE",
"226 396 OFFCURVE",
"226 402 QCURVE SMOOTH",
"226 420 OFFCURVE",
"205 431 OFFCURVE",
"185 431 QCURVE SMOOTH",
"119 431 OFFCURVE",
"36 405 QCURVE",
"41 369 LINE",
"49 371 OFFCURVE",
"57 371 QCURVE SMOOTH",
"87 371 OFFCURVE",
"87 344 QCURVE SMOOTH",
"87 319 OFFCURVE",
"73 224 QCURVE SMOOTH",
"47 36 LINE SMOOTH",
"34 -74 OFFCURVE",
"18 -170 OFFCURVE",
"-3 -211 OFFCURVE",
"-23 -211 QCURVE SMOOTH",
"-34 -211 OFFCURVE",
"-50 -197 OFFCURVE",
"-50 -181 QCURVE SMOOTH",
"-50 -168 OFFCURVE",
"-36 -136 OFFCURVE",
"-36 -128 QCURVE SMOOTH",
"-36 -110 OFFCURVE",
"-64 -91 OFFCURVE",
"-86 -91 QCURVE SMOOTH",
"-120 -91 OFFCURVE",
"-157 -132 OFFCURVE",
"-157 -159 QCURVE SMOOTH",
"-157 -196 OFFCURVE",
"-86 -245 OFFCURVE",
"-35 -245 QCURVE SMOOTH"
);
}
);
userData = {
assembly = "NPUSHB[ ]\011/* 15 values pushed */
38 2 2 3 4 37 1 1 3 18 1 2 1 3 74 
MPPEM[ ]\011/* MeasurePixelPerEm */
PUSHB[ ]\011/* 1 value pushed */
10 
LT[ ]\011/* LessThan */
IF[ ]\011/* If */
NPUSHB[ ]\011/* 31 values pushed */
0 3 4 1 4 3 1 126 0 1 2 2 1 110 5 1 4 4 20 75 0 2 2 0 96 0 0 0 30 0 76 
ELSE[ ]\011/* Else */
NPUSHB[ ]\011/* 32 values pushed */
0 3 4 1 4 3 1 126 0 1 2 4 1 2 124 5 1 4 4 20 75 0 2 2 0 96 0 0 0 30 0 76 
EIF[ ]\011/* EndIf */
NPUSHB[ ]\011/* 13 values pushed */
0 0 0 40 0 39 24 40 36 40 6 7 24 
CALL[ ]\011/* CallFunction */";
};
width = 263;
}
);
note = uni0237;
unicode = 0237;
},
{
glyphname = k;
layers = (
{
anchors = (
{
name = bottom;
position = "{208, 0}";
}
);
background = {
paths = (
{
closed = 1;
nodes = (
"436 80 LINE",
"419 69 OFFCURVE",
"390 60 OFFCURVE",
"382 60 QCURVE SMOOTH",
"365 60 OFFCURVE",
"357 85 QCURVE",
"307 219 LINE",
"368 246 OFFCURVE",
"437 320 OFFCURVE",
"437 357 QCURVE SMOOTH",
"437 388 OFFCURVE",
"393 430 OFFCURVE",
"357 430 QCURVE SMOOTH",
"246 430 OFFCURVE",
"152 222 QCURVE",
"187 464 LINE",
"217 641 OFFCURVE",
"226 699 QCURVE SMOOTH",
"226 721 OFFCURVE",
"208 730 OFFCURVE",
"188 730 QCURVE SMOOTH",
"167 730 OFFCURVE",
"103 714 OFFCURVE",
"70 698 QCURVE",
"76 673 LINE",
"85 675 OFFCURVE",
"100 675 QCURVE SMOOTH",
"115 675 OFFCURVE",
"133 663 OFFCURVE",
"133 651 QCURVE SMOOTH",
"133 605 OFFCURVE",
"64 119 OFFCURVE",
"45 0 QCURVE",
"124 0 LINE",
"138 112 LINE",
"153 171 OFFCURVE",
"216 294 OFFCURVE",
"291 375 OFFCURVE",
"321 375 QCURVE SMOOTH",
"334 375 OFFCURVE",
"353 353 OFFCURVE",
"353 333 QCURVE SMOOTH",
"353 297 OFFCURVE",
"291 227 OFFCURVE",
"229 206 QCURVE",
"286 40 LINE SMOOTH",
"294 15 OFFCURVE",
"319 -10 OFFCURVE",
"342 -10 QCURVE SMOOTH",
"363 -10 OFFCURVE",
"419 27 OFFCURVE",
"448 60 QCURVE"
);
}
);
};
layerId = "9A6463FA-02C3-4660-BEDA-F7CC218AE705";
paths = (
{
closed = 1;
nodes = (
"363 -10 OFFCURVE",
"419 27 OFFCURVE",
"448 60 QCURVE",
"436 80 LINE",
"404 60 OFFCURVE",
"382 60 QCURVE SMOOTH",
"365 60 OFFCURVE",
"357 85 QCURVE",
"307 219 LINE",
"368 246 OFFCURVE",
"437 320 OFFCURVE",
"437 357 QCURVE SMOOTH",
"437 388 OFFCURVE",
"393 430 OFFCURVE",
"357 430 QCURVE SMOOTH",
"246 430 OFFCURVE",
"152 222 QCURVE",
"187 464 LINE",
"217 641 OFFCURVE",
"226 699 QCURVE SMOOTH",
"226 721 OFFCURVE",
"208 730 OFFCURVE",
"188 730 QCURVE SMOOTH",
"167 730 OFFCURVE",
"103 714 OFFCURVE",
"70 698 QCURVE",
"76 673 LINE",
"85 675 OFFCURVE",
"100 675 QCURVE SMOOTH",
"115 675 OFFCURVE",
"133 663 OFFCURVE",
"133 651 QCURVE SMOOTH",
"133 605 OFFCURVE",
"64 119 OFFCURVE",
"45 0 QCURVE",
"124 0 LINE",
"138 112 LINE",
"153 171 OFFCURVE",
"216 294 OFFCURVE",
"291 375 OFFCURVE",
"321 375 QCURVE SMOOTH",
"353 375 OFFCURVE",
"353 333 QCURVE SMOOTH",
"353 297 OFFCURVE",
"291 227 OFFCURVE",
"229 206 QCURVE",
"286 40 LINE SMOOTH",
"294 15 OFFCURVE",
"319 -10 OFFCURVE",
"342 -10 QCURVE SMOOTH"
);
}
);
userData = {
assembly = "NPUSHB[ ]\011/* 69 values pushed */
28 1 3 4 27 1 5 3 56 50 41 7 4 6 1 3 74 0 3 4 5 4 3 5 126 0 6 1 2 1 6 2 126 0 4 4 19 75 0 1 1 5 95 0 5 5 20 75 0 2 2 21 75 0 0 0 26 0 76 23 43 36 37 20 40 34 7 7 27 
CALL[ ]\011/* CallFunction */";
};
width = 481;
},
{
anchors = (
{
name = bottom;
position = "{227, 0}";
}
);
layerId = "EC024578-EFD3-4C50-A1DE-0E38CDD8AD0F";
paths = (
{
closed = 1;
nodes = (
"386 -6 OFFCURVE",
"457 32 OFFCURVE",
"495 65 QCURVE",
"480 91 LINE",
"447 74 OFFCURVE",
"426 74 QCURVE SMOOTH",
"409 75 OFFCURVE",
"401 96 QCURVE SMOOTH",
"352 228 LINE",
"414 256 OFFCURVE",
"484 325 OFFCURVE",
"484 362 QCURVE SMOOTH",
"484 393 OFFCURVE",
"437 435 OFFCURVE",
"399 435 QCURVE SMOOTH",
"273 435 OFFCURVE",
"189 258 QCURVE",
"218 464 LINE SMOOTH",
"255 688 OFFCURVE",
"257 694 QCURVE SMOOTH",
"257 719 OFFCURVE",
"234 730 OFFCURVE",
"208 730 QCURVE SMOOTH",
"180 730 OFFCURVE",
"98 714 OFFCURVE",
"56 698 QCURVE",
"61 666 LINE",
"70 668 OFFCURVE",
"85 668 QCURVE SMOOTH",
"100 668 OFFCURVE",
"118 656 OFFCURVE",
"118 644 QCURVE SMOOTH",
"118 598 OFFCURVE",
"49 113 OFFCURVE",
"31 0 QCURVE",
"155 0 LINE",
"173 148 LINE",
"187 201 OFFCURVE",
"244 301 OFFCURVE",
"309 364 OFFCURVE",
"336 364 QCURVE SMOOTH",
"359 364 OFFCURVE",
"359 335 QCURVE SMOOTH",
"359 302 OFFCURVE",
"300 224 OFFCURVE",
"236 196 QCURVE",
"288 45 LINE",
"298 19 OFFCURVE",
"329 -6 OFFCURVE",
"359 -6 QCURVE SMOOTH"
);
}
);
userData = {
assembly = "NPUSHB[ ]\011/* 17 values pushed */
34 1 3 4 27 1 5 3 54 48 40 7 4 6 1 3 74 
MPPEM[ ]\011/* MeasurePixelPerEm */
PUSHB[ ]\011/* 1 value pushed */
38 
LT[ ]\011/* LessThan */
IF[ ]\011/* If */
NPUSHB[ ]\011/* 38 values pushed */
0 3 4 5 4 3 5 126 0 6 1 0 1 6 0 126 0 4 4 19 75 0 1 1 5 95 0 5 5 20 75 2 1 0 0 18 0 76 
ELSE[ ]\011/* Else */
NPUSHB[ ]\011/* 42 values pushed */
0 3 4 5 4 3 5 126 0 6 1 2 1 6 2 126 0 4 4 19 75 0 1 1 5 95 0 5 5 20 75 0 2 2 21 75 0 0 0 18 0 76 
EIF[ ]\011/* EndIf */
NPUSHB[ ]\011/* 10 values pushed */
40 41 36 37 21 39 34 7 7 27 
CALL[ ]\011/* CallFunction */";
};
width = 506;
}
);
leftKerningGroup = k;
note = k;
rightKerningGroup = k;
unicode = 006B;
},
{
glyphname = kgreenlandic;
layers = (
{
layerId = "9A6463FA-02C3-4660-BEDA-F7CC218AE705";
paths = (
{
closed = 1;
nodes = (
"363 -10 OFFCURVE",
"419 27 OFFCURVE",
"448 60 QCURVE",
"436 80 LINE",
"404 60 OFFCURVE",
"382 60 QCURVE SMOOTH",
"365 60 OFFCURVE",
"357 85 QCURVE",
"307 219 LINE",
"368 246 OFFCURVE",
"437 320 OFFCURVE",
"437 357 QCURVE SMOOTH",
"437 388 OFFCURVE",
"393 430 OFFCURVE",
"357 430 QCURVE SMOOTH",
"246 430 OFFCURVE",
"152 222 QCURVE",
"167 291 OFFCURVE",
"192 410 QCURVE SMOOTH",
"194 421 OFFCURVE",
"174 430 OFFCURVE",
"154 430 QCURVE SMOOTH",
"133 430 OFFCURVE",
"69 414 OFFCURVE",
"36 398 QCURVE",
"42 373 LINE",
"51 375 OFFCURVE",
"66 375 QCURVE SMOOTH",
"81 375 OFFCURVE",
"99 363 OFFCURVE",
"99 351 QCURVE SMOOTH",
"99 305 OFFCURVE",
"68 119 OFFCURVE",
"45 0 QCURVE",
"124 0 LINE",
"138 112 LINE",
"153 171 OFFCURVE",
"216 294 OFFCURVE",
"291 375 OFFCURVE",
"321 375 QCURVE SMOOTH",
"353 375 OFFCURVE",
"353 333 QCURVE SMOOTH",
"353 297 OFFCURVE",
"291 227 OFFCURVE",
"229 206 QCURVE",
"286 40 LINE SMOOTH",
"294 15 OFFCURVE",
"319 -10 OFFCURVE",
"342 -10 QCURVE SMOOTH"
);
}
);
width = 481;
},
{
layerId = "EC024578-EFD3-4C50-A1DE-0E38CDD8AD0F";
paths = (
{
closed = 1;
nodes = (
"386 -6 OFFCURVE",
"457 32 OFFCURVE",
"495 65 QCURVE",
"480 91 LINE",
"447 74 OFFCURVE",
"426 74 QCURVE SMOOTH",
"409 75 OFFCURVE",
"401 96 QCURVE SMOOTH",
"352 228 LINE",
"414 256 OFFCURVE",
"484 325 OFFCURVE",
"484 362 QCURVE SMOOTH",
"484 393 OFFCURVE",
"437 435 OFFCURVE",
"399 435 QCURVE SMOOTH",
"273 435 OFFCURVE",
"189 258 QCURVE",
"203 343 OFFCURVE",
"218 411 QCURVE SMOOTH",
"221 424 OFFCURVE",
"195 435 OFFCURVE",
"169 435 QCURVE SMOOTH",
"141 435 OFFCURVE",
"59 419 OFFCURVE",
"17 403 QCURVE",
"22 371 LINE",
"31 373 OFFCURVE",
"46 373 QCURVE SMOOTH",
"61 373 OFFCURVE",
"79 361 OFFCURVE",
"79 349 QCURVE SMOOTH",
"79 303 OFFCURVE",
"52 113 OFFCURVE",
"31 0 QCURVE",
"155 0 LINE",
"173 148 LINE",
"187 201 OFFCURVE",
"244 301 OFFCURVE",
"309 364 OFFCURVE",
"336 364 QCURVE SMOOTH",
"359 364 OFFCURVE",
"359 335 QCURVE SMOOTH",
"359 302 OFFCURVE",
"300 224 OFFCURVE",
"236 196 QCURVE",
"288 45 LINE",
"298 19 OFFCURVE",
"329 -6 OFFCURVE",
"359 -6 QCURVE SMOOTH"
);
}
);
width = 506;
}
);
unicode = 0138;
},
{
glyphname = l;
layers = (
{
anchors = (
{
name = bottom;
position = "{74, 0}";
},
{
name = center;
position = "{127, 371}";
},
{
name = top;
position = "{164, 688}";
},
{
name = topright;
position = "{147, 548}";
}
);
layerId = "9A6463FA-02C3-4660-BEDA-F7CC218AE705";
paths = (
{
closed = 1;
nodes = (
"106 -10 OFFCURVE",
"171 27 OFFCURVE",
"202 60 QCURVE",
"190 80 LINE",
"179 73 OFFCURVE",
"156 67 OFFCURVE",
"149 67 QCURVE SMOOTH",
"137 67 OFFCURVE",
"130 82 OFFCURVE",
"130 94 QCURVE",
"132 149 OFFCURVE",
"189 539 QCURVE SMOOTH",
"208 649 OFFCURVE",
"216 697 QCURVE SMOOTH",
"216 721 OFFCURVE",
"199 730 OFFCURVE",
"183 730 QCURVE SMOOTH",
"127 730 OFFCURVE",
"60 698 QCURVE",
"66 673 LINE",
"75 675 OFFCURVE",
"90 675 QCURVE SMOOTH",
"105 675 OFFCURVE",
"123 663 OFFCURVE",
"123 651 QCURVE SMOOTH",
"123 599 OFFCURVE",
"89 370 QCURVE SMOOTH",
"76 279 LINE SMOOTH",
"43 63 OFFCURVE",
"43 36 QCURVE SMOOTH",
"43 13 OFFCURVE",
"64 -10 OFFCURVE",
"82 -10 QCURVE SMOOTH"
);
}
);
userData = {
assembly = "NPUSHB[ ]\011/* 48 values pushed */
5 1 0 1 22 4 2 2 0 23 1 3 2 3 74 0 0 1 2 1 0 2 126 0 2 3 1 2 3 124 0 1 1 19 75 0 3 3 26 3 76 38 26 35 33 4 7 24 
CALL[ ]\011/* CallFunction */";
};
width = 236;
},
{
anchors = (
{
name = bottom;
position = "{93, 0}";
},
{
name = center;
position = "{146, 371}";
},
{
name = top;
position = "{182, 692}";
},
{
name = topright;
position = "{198, 532}";
}
);
layerId = "EC024578-EFD3-4C50-A1DE-0E38CDD8AD0F";
paths = (
{
closed = 1;
nodes = (
"118 -10 OFFCURVE",
"201 27 OFFCURVE",
"241 60 QCURVE",
"228 88 LINE",
"217 81 OFFCURVE",
"194 75 OFFCURVE",
"187 75 QCURVE SMOOTH",
"175 75 OFFCURVE",
"168 90 OFFCURVE",
"168 102 QCURVE",
"172 196 OFFCURVE",
"228 539 QCURVE SMOOTH",
"245 634 OFFCURVE",
"255 701 QCURVE SMOOTH",
"255 718 OFFCURVE",
"233 730 OFFCURVE",
"212 730 QCURVE SMOOTH",
"141 730 OFFCURVE",
"54 698 QCURVE",
"59 666 LINE",
"68 668 OFFCURVE",
"83 668 QCURVE SMOOTH",
"98 668 OFFCURVE",
"116 656 OFFCURVE",
"116 644 QCURVE SMOOTH",
"116 599 OFFCURVE",
"83 370 QCURVE SMOOTH",
"70 279 LINE SMOOTH",
"37 63 OFFCURVE",
"37 36 QCURVE SMOOTH",
"37 14 OFFCURVE",
"64 -10 OFFCURVE",
"87 -10 QCURVE SMOOTH"
);
}
);
userData = {
assembly = "NPUSHB[ ]\011/* 49 values pushed */
10 5 2 0 1 23 4 2 2 0 24 1 3 2 3 74 0 0 1 2 1 0 2 126 0 2 3 1 2 3 124 0 1 1 19 75 0 3 3 26 3 76 38 27 35 33 4 7 24 
CALL[ ]\011/* CallFunction */";
};
width = 261;
}
);
leftKerningGroup = l;
note = l;
unicode = 006C;
},
{
glyphname = ldot;
layers = (
{
layerId = "9A6463FA-02C3-4660-BEDA-F7CC218AE705";
paths = (
{
closed = 1;
nodes = (
"106 -10 OFFCURVE",
"171 27 OFFCURVE",
"202 60 QCURVE",
"190 80 LINE",
"179 73 OFFCURVE",
"156 67 OFFCURVE",
"149 67 QCURVE SMOOTH",
"137 67 OFFCURVE",
"130 82 OFFCURVE",
"130 94 QCURVE",
"132 149 OFFCURVE",
"189 539 QCURVE SMOOTH",
"208 649 OFFCURVE",
"216 697 QCURVE SMOOTH",
"216 721 OFFCURVE",
"199 730 OFFCURVE",
"183 730 QCURVE SMOOTH",
"127 730 OFFCURVE",
"60 698 QCURVE",
"66 673 LINE",
"75 675 OFFCURVE",
"90 675 QCURVE SMOOTH",
"105 675 OFFCURVE",
"123 663 OFFCURVE",
"123 651 QCURVE SMOOTH",
"123 599 OFFCURVE",
"89 370 QCURVE SMOOTH",
"76 279 LINE SMOOTH",
"43 63 OFFCURVE",
"43 36 QCURVE SMOOTH",
"43 13 OFFCURVE",
"64 -10 OFFCURVE",
"82 -10 QCURVE SMOOTH"
);
},
{
closed = 1;
nodes = (
"260 313 OFFCURVE",
"295 347 OFFCURVE",
"295 373 QCURVE SMOOTH",
"295 393 OFFCURVE",
"270 418 OFFCURVE",
"250 418 QCURVE SMOOTH",
"225 418 OFFCURVE",
"189 383 OFFCURVE",
"189 358 QCURVE SMOOTH",
"189 339 OFFCURVE",
"215 313 OFFCURVE",
"234 313 QCURVE SMOOTH"
);
}
);
userData = {
assembly = "NPUSHB[ ]\011/* 62 values pushed */
5 1 0 1 4 1 4 0 22 1 2 5 23 1 3 2 4 74 0 0 1 4 1 0 4 126 0 2 5 3 5 2 3 126 0 4 0 5 2 4 5 103 0 1 1 19 75 0 3 3 26 3 76 36 41 38 26 35 33 6 7 26 
CALL[ ]\011/* CallFunction */";
};
width = 236;
},
{
layerId = "EC024578-EFD3-4C50-A1DE-0E38CDD8AD0F";
paths = (
{
closed = 1;
nodes = (
"118 -10 OFFCURVE",
"201 27 OFFCURVE",
"241 60 QCURVE",
"228 88 LINE",
"217 81 OFFCURVE",
"194 75 OFFCURVE",
"187 75 QCURVE SMOOTH",
"175 75 OFFCURVE",
"168 90 OFFCURVE",
"168 102 QCURVE",
"172 196 OFFCURVE",
"228 539 QCURVE SMOOTH",
"245 634 OFFCURVE",
"255 701 QCURVE SMOOTH",
"255 718 OFFCURVE",
"233 730 OFFCURVE",
"212 730 QCURVE SMOOTH",
"141 730 OFFCURVE",
"54 698 QCURVE",
"59 666 LINE",
"68 668 OFFCURVE",
"83 668 QCURVE SMOOTH",
"98 668 OFFCURVE",
"116 656 OFFCURVE",
"116 644 QCURVE SMOOTH",
"116 599 OFFCURVE",
"83 370 QCURVE SMOOTH",
"70 279 LINE SMOOTH",
"37 63 OFFCURVE",
"37 36 QCURVE SMOOTH",
"37 14 OFFCURVE",
"64 -10 OFFCURVE",
"87 -10 QCURVE SMOOTH"
);
},
{
closed = 1;
nodes = (
"298 306 OFFCURVE",
"332 343 OFFCURVE",
"332 373 QCURVE SMOOTH",
"332 396 OFFCURVE",
"307 426 OFFCURVE",
"287 426 QCURVE SMOOTH",
"260 426 OFFCURVE",
"226 388 OFFCURVE",
"226 358 QCURVE SMOOTH",
"226 335 OFFCURVE",
"252 306 OFFCURVE",
"271 306 QCURVE SMOOTH"
);
}
);
userData = {
assembly = "NPUSHB[ ]\011/* 63 values pushed */
10 5 2 0 1 4 1 4 0 23 1 2 5 24 1 3 2 4 74 0 0 1 4 1 0 4 126 0 2 5 3 5 2 3 126 0 4 0 5 2 4 5 103 0 1 1 19 75 0 3 3 26 3 76 36 41 38 27 35 33 6 7 26 
CALL[ ]\011/* CallFunction */";
};
width = 274;
}
);
note = ldot;
unicode = 0140;
},
{
glyphname = m;
layers = (
{
background = {
paths = (
{
closed = 1;
nodes = (
"716 80 LINE",
"696 67 OFFCURVE",
"679 67 QCURVE SMOOTH",
"668 67 OFFCURVE",
"660 82 OFFCURVE",
"660 90 QCURVE SMOOTH",
"660 105 OFFCURVE",
"679 183 QCURVE SMOOTH",
"681 192 OFFCURVE",
"695 253 OFFCURVE",
"708 318 OFFCURVE",
"708 340 QCURVE SMOOTH",
"708 380 OFFCURVE",
"660 430 OFFCURVE",
"619 430 QCURVE SMOOTH",
"514 430 OFFCURVE",
"429 250 QCURVE",
"441 310 OFFCURVE",
"441 340 QCURVE SMOOTH",
"441 380 OFFCURVE",
"395 430 OFFCURVE",
"360 430 QCURVE SMOOTH",
"297 430 OFFCURVE",
"196 315 OFFCURVE",
"159 230 QCURVE",
"184 370 OFFCURVE",
"188 400 QCURVE SMOOTH",
"188 426 OFFCURVE",
"151 426 QCURVE SMOOTH",
"126 426 OFFCURVE",
"77 412 OFFCURVE",
"48 400 QCURVE",
"53 371 LINE",
"61 373 OFFCURVE",
"69 373 QCURVE SMOOTH",
"98 373 OFFCURVE",
"98 341 QCURVE SMOOTH",
"98 303 OFFCURVE",
"76 148 OFFCURVE",
"51 0 QCURVE",
"129 0 LINE",
"144 125 LINE",
"144 127 LINE",
"161 184 OFFCURVE",
"224 300 OFFCURVE",
"295 375 OFFCURVE",
"324 375 QCURVE SMOOTH",
"341 375 OFFCURVE",
"360 350 OFFCURVE",
"360 328 QCURVE SMOOTH",
"360 288 OFFCURVE",
"335 125 OFFCURVE",
"314 0 QCURVE",
"392 0 LINE",
"406 113 LINE",
"420 171 OFFCURVE",
"481 294 OFFCURVE",
"553 375 OFFCURVE",
"583 375 QCURVE SMOOTH",
"603 375 OFFCURVE",
"626 347 OFFCURVE",
"626 324 QCURVE SMOOTH",
"626 284 OFFCURVE",
"600 166 QCURVE SMOOTH",
"592 126 OFFCURVE",
"578 52 OFFCURVE",
"578 35 QCURVE SMOOTH",
"578 14 OFFCURVE",
"594 -10 OFFCURVE",
"610 -10 QCURVE SMOOTH",
"632 -10 OFFCURVE",
"697 28 OFFCURVE",
"728 60 QCURVE"
);
}
);
};
layerId = "9A6463FA-02C3-4660-BEDA-F7CC218AE705";
paths = (
{
closed = 1;
nodes = (
"632 -10 OFFCURVE",
"697 28 OFFCURVE",
"728 60 QCURVE",
"716 80 LINE",
"696 67 OFFCURVE",
"679 67 QCURVE SMOOTH",
"668 67 OFFCURVE",
"660 82 OFFCURVE",
"660 90 QCURVE SMOOTH",
"660 105 OFFCURVE",
"679 183 QCURVE SMOOTH",
"695 253 OFFCURVE",
"708 318 OFFCURVE",
"708 340 QCURVE SMOOTH",
"708 380 OFFCURVE",
"660 430 OFFCURVE",
"619 430 QCURVE SMOOTH",
"514 430 OFFCURVE",
"429 250 QCURVE",
"441 310 OFFCURVE",
"441 340 QCURVE SMOOTH",
"441 380 OFFCURVE",
"395 430 OFFCURVE",
"360 430 QCURVE SMOOTH",
"297 430 OFFCURVE",
"196 315 OFFCURVE",
"159 230 QCURVE",
"184 370 OFFCURVE",
"188 400 QCURVE SMOOTH",
"188 426 OFFCURVE",
"151 426 QCURVE SMOOTH",
"126 426 OFFCURVE",
"77 412 OFFCURVE",
"48 400 QCURVE",
"53 371 LINE",
"61 373 OFFCURVE",
"69 373 QCURVE SMOOTH",
"98 373 OFFCURVE",
"98 341 QCURVE SMOOTH",
"98 303 OFFCURVE",
"76 148 OFFCURVE",
"51 0 QCURVE",
"129 0 LINE",
"144 127 LINE",
"161 184 OFFCURVE",
"224 300 OFFCURVE",
"295 375 OFFCURVE",
"324 375 QCURVE SMOOTH",
"360 375 OFFCURVE",
"360 328 QCURVE SMOOTH",
"360 288 OFFCURVE",
"314 0 QCURVE",
"392 0 LINE",
"406 113 LINE",
"420 171 OFFCURVE",
"481 294 OFFCURVE",
"553 375 OFFCURVE",
"583 375 QCURVE SMOOTH",
"603 375 OFFCURVE",
"626 347 OFFCURVE",
"626 324 QCURVE SMOOTH",
"626 284 OFFCURVE",
"600 166 QCURVE SMOOTH",
"578 51 OFFCURVE",
"578 35 QCURVE SMOOTH",
"578 -10 OFFCURVE",
"610 -10 QCURVE SMOOTH"
);
}
);
userData = {
assembly = "NPUSHB[ ]\011/* 62 values pushed */
43 1 1 6 77 72 61 53 42 5 9 1 2 74 0 9 1 2 1 9 2 126 5 3 2 1 1 6 95 8 7 2 6 6 20 75 4 1 2 2 21 75 0 0 0 26 0 76 76 74 37 40 37 22 21 37 20 41 34 10 7 29 
CALL[ ]\011/* CallFunction */";
};
width = 761;
},
{
layerId = "EC024578-EFD3-4C50-A1DE-0E38CDD8AD0F";
paths = (
{
closed = 1;
nodes = (
"633 -10 OFFCURVE",
"718 28 OFFCURVE",
"757 60 QCURVE",
"746 88 LINE",
"726 75 OFFCURVE",
"709 75 QCURVE SMOOTH",
"698 75 OFFCURVE",
"690 90 OFFCURVE",
"690 98 QCURVE SMOOTH",
"690 113 OFFCURVE",
"710 196 QCURVE",
"724 255 OFFCURVE",
"738 322 OFFCURVE",
"738 345 QCURVE SMOOTH",
"738 385 OFFCURVE",
"690 435 OFFCURVE",
"649 435 QCURVE SMOOTH",
"546 435 OFFCURVE",
"463 278 QCURVE",
"471 320 OFFCURVE",
"471 345 QCURVE SMOOTH",
"471 385 OFFCURVE",
"425 435 OFFCURVE",
"390 435 QCURVE SMOOTH",
"329 435 OFFCURVE",
"230 334 OFFCURVE",
"193 257 QCURVE",
"218 397 OFFCURVE",
"218 405 QCURVE SMOOTH",
"218 431 OFFCURVE",
"169 431 QCURVE SMOOTH",
"136 431 OFFCURVE",
"71 417 OFFCURVE",
"33 405 QCURVE",
"37 369 LINE",
"45 371 OFFCURVE",
"53 371 QCURVE SMOOTH",
"82 371 OFFCURVE",
"82 339 QCURVE SMOOTH",
"82 299 OFFCURVE",
"56 125 OFFCURVE",
"35 0 QCURVE",
"158 0 LINE",
"175 134 LINE SMOOTH",
"189 185 OFFCURVE",
"239 285 OFFCURVE",
"294 350 OFFCURVE",
"317 350 QCURVE SMOOTH",
"343 350 OFFCURVE",
"343 311 QCURVE SMOOTH",
"343 246 OFFCURVE",
"298 0 QCURVE",
"421 0 LINE",
"436 119 LINE",
"448 172 OFFCURVE",
"497 280 OFFCURVE",
"555 350 OFFCURVE",
"580 350 QCURVE SMOOTH",
"594 350 OFFCURVE",
"609 331 OFFCURVE",
"609 314 QCURVE SMOOTH",
"609 289 OFFCURVE",
"585 177 QCURVE SMOOTH",
"560 65 OFFCURVE",
"560 35 QCURVE SMOOTH",
"560 -10 OFFCURVE",
"604 -10 QCURVE SMOOTH"
);
}
);
userData = {
assembly = "NPUSHB[ ]\011/* 72 values pushed */
42 1 5 6 36 1 1 5 70 65 54 46 4 9 1 3 74 0 5 6 1 6 5 1 126 0 9 1 2 1 9 2 126 3 1 1 1 6 95 8 7 2 6 6 20 75 4 1 2 2 21 75 0 0 0 26 0 76 69 67 37 39 37 20 21 35 20 39 34 10 7 29 
CALL[ ]\011/* CallFunction */";
};
width = 781;
}
);
leftKerningGroup = m;
note = m;
rightKerningGroup = m;
unicode = 006D;
},
{
glyphname = n;
layers = (
{
anchors = (
{
name = bottom;
position = "{236, 0}";
},
{
name = top;
position = "{292, 420}";
},
{
name = topright;
position = "{107, 420}";
}
);
background = {
paths = (
{
closed = 1;
nodes = (
"459 80 LINE",
"439 67 OFFCURVE",
"422 67 QCURVE SMOOTH",
"411 67 OFFCURVE",
"403 82 OFFCURVE",
"403 90 QCURVE SMOOTH",
"403 105 OFFCURVE",
"422 183 QCURVE SMOOTH",
"438 253 OFFCURVE",
"451 318 OFFCURVE",
"451 340 QCURVE SMOOTH",
"451 380 OFFCURVE",
"403 430 OFFCURVE",
"362 430 QCURVE SMOOTH",
"298 430 OFFCURVE",
"194 309 OFFCURVE",
"158 222 QCURVE",
"158 222 OFFCURVE",
"188 395 OFFCURVE",
"188 407 QCURVE SMOOTH",
"188 426 OFFCURVE",
"151 426 QCURVE SMOOTH",
"126 426 OFFCURVE",
"77 412 OFFCURVE",
"48 400 QCURVE",
"53 371 LINE",
"61 373 OFFCURVE",
"69 373 QCURVE SMOOTH",
"98 373 OFFCURVE",
"98 341 QCURVE SMOOTH",
"98 303 OFFCURVE",
"51 0 QCURVE",
"129 0 LINE",
"143 114 LINE",
"158 172 OFFCURVE",
"222 294 OFFCURVE",
"296 375 OFFCURVE",
"326 375 QCURVE SMOOTH",
"346 375 OFFCURVE",
"369 347 OFFCURVE",
"369 324 QCURVE SMOOTH",
"369 284 OFFCURVE",
"343 166 QCURVE SMOOTH",
"321 52 OFFCURVE",
"321 35 QCURVE SMOOTH",
"321 14 OFFCURVE",
"339 -10 OFFCURVE",
"353 -10 QCURVE SMOOTH",
"375 -10 OFFCURVE",
"440 28 OFFCURVE",
"471 60 QCURVE"
);
}
);
};
layerId = "9A6463FA-02C3-4660-BEDA-F7CC218AE705";
paths = (
{
closed = 1;
nodes = (
"375 -10 OFFCURVE",
"440 28 OFFCURVE",
"471 60 QCURVE",
"459 80 LINE",
"439 67 OFFCURVE",
"422 67 QCURVE SMOOTH",
"411 67 OFFCURVE",
"403 82 OFFCURVE",
"403 90 QCURVE SMOOTH",
"404 105 OFFCURVE",
"422 183 QCURVE SMOOTH",
"438 253 OFFCURVE",
"451 318 OFFCURVE",
"451 340 QCURVE SMOOTH",
"451 380 OFFCURVE",
"403 430 OFFCURVE",
"362 430 QCURVE SMOOTH",
"298 430 OFFCURVE",
"194 309 OFFCURVE",
"158 222 QCURVE",
"188 395 OFFCURVE",
"188 407 QCURVE SMOOTH",
"188 426 OFFCURVE",
"151 426 QCURVE SMOOTH",
"126 426 OFFCURVE",
"77 412 OFFCURVE",
"48 400 QCURVE",
"53 371 LINE",
"61 373 OFFCURVE",
"69 373 QCURVE SMOOTH",
"98 373 OFFCURVE",
"98 341 QCURVE SMOOTH",
"98 303 OFFCURVE",
"51 0 QCURVE",
"129 0 LINE",
"143 114 LINE",
"158 172 OFFCURVE",
"222 294 OFFCURVE",
"296 375 OFFCURVE",
"326 375 QCURVE SMOOTH",
"346 375 OFFCURVE",
"369 347 OFFCURVE",
"369 324 QCURVE SMOOTH",
"369 284 OFFCURVE",
"343 166 QCURVE SMOOTH",
"321 52 OFFCURVE",
"321 35 QCURVE SMOOTH",
"321 15 OFFCURVE",
"339 -10 OFFCURVE",
"353 -10 QCURVE SMOOTH"
);
}
);
userData = {
assembly = "NPUSHB[ ]\011/* 53 values pushed */
30 1 1 4 56 51 29 3 6 1 2 74 0 6 1 2 1 6 2 126 3 1 1 1 4 95 5 1 4 4 20 75 0 2 2 21 75 0 0 0 26 0 76 42 39 37 22 20 41 34 7 7 27 
CALL[ ]\011/* CallFunction */";
};
width = 504;
},
{
anchors = (
{
name = bottom;
position = "{224, 0}";
},
{
name = top;
position = "{328, 425}";
},
{
name = topright;
position = "{154, 425}";
}
);
layerId = "EC024578-EFD3-4C50-A1DE-0E38CDD8AD0F";
paths = (
{
closed = 1;
nodes = (
"373 -10 OFFCURVE",
"460 28 OFFCURVE",
"500 60 QCURVE",
"488 88 LINE",
"468 75 OFFCURVE",
"451 75 QCURVE SMOOTH",
"440 75 OFFCURVE",
"432 90 OFFCURVE",
"432 98 QCURVE SMOOTH",
"432 117 OFFCURVE",
"453 197 QCURVE SMOOTH",
"467 257 OFFCURVE",
"481 323 OFFCURVE",
"481 345 QCURVE SMOOTH",
"481 385 OFFCURVE",
"433 435 OFFCURVE",
"392 435 QCURVE SMOOTH",
"330 435 OFFCURVE",
"229 330 OFFCURVE",
"193 253 QCURVE",
"214 368 OFFCURVE",
"218 396 QCURVE SMOOTH",
"218 431 OFFCURVE",
"169 431 QCURVE SMOOTH",
"136 431 OFFCURVE",
"71 417 OFFCURVE",
"33 405 QCURVE",
"37 369 LINE",
"45 371 OFFCURVE",
"53 371 QCURVE SMOOTH",
"82 371 OFFCURVE",
"82 339 QCURVE SMOOTH",
"82 273 OFFCURVE",
"36 0 QCURVE",
"159 0 LINE",
"174 124 LINE",
"188 176 OFFCURVE",
"239 282 OFFCURVE",
"298 350 OFFCURVE",
"322 350 QCURVE SMOOTH",
"336 350 OFFCURVE",
"352 332 OFFCURVE",
"352 316 QCURVE SMOOTH",
"352 288 OFFCURVE",
"327 178 QCURVE SMOOTH",
"302 58 OFFCURVE",
"302 35 QCURVE SMOOTH",
"302 15 OFFCURVE",
"326 -10 OFFCURVE",
"344 -10 QCURVE SMOOTH"
);
}
);
userData = {
assembly = "NPUSHB[ ]\011/* 60 values pushed */
26 1 1 3 51 46 35 3 6 1 2 74 0 3 4 1 4 3 1 126 0 6 1 2 1 6 2 126 0 1 1 4 95 5 1 4 4 20 75 0 2 2 21 75 0 0 0 26 0 76 41 38 37 19 20 41 34 7 7 27 
CALL[ ]\011/* CallFunction */";
};
width = 524;
}
);
leftKerningGroup = m;
note = n;
rightKerningGroup = n;
unicode = 006E;
},
{
glyphname = eng;
layers = (
{
layerId = "9A6463FA-02C3-4660-BEDA-F7CC218AE705";
paths = (
{
closed = 1;
nodes = (
"129 0 LINE",
"143 114 LINE",
"158 172 OFFCURVE",
"222 294 OFFCURVE",
"296 375 OFFCURVE",
"326 375 QCURVE SMOOTH",
"346 375 OFFCURVE",
"372 346 OFFCURVE",
"369 324 QCURVE SMOOTH",
"363 273 OFFCURVE",
"351 192 QCURVE",
"432 200 LINE",
"441 258 OFFCURVE",
"451 321 OFFCURVE",
"451 340 QCURVE SMOOTH",
"451 380 OFFCURVE",
"403 430 OFFCURVE",
"362 430 QCURVE SMOOTH",
"298 430 OFFCURVE",
"194 309 OFFCURVE",
"158 222 QCURVE",
"188 395 OFFCURVE",
"188 407 QCURVE SMOOTH",
"188 426 OFFCURVE",
"151 426 QCURVE SMOOTH",
"126 426 OFFCURVE",
"77 412 OFFCURVE",
"48 400 QCURVE",
"53 371 LINE",
"61 373 OFFCURVE",
"69 373 QCURVE SMOOTH",
"98 373 OFFCURVE",
"98 341 QCURVE SMOOTH",
"98 303 OFFCURVE",
"51 0 QCURVE"
);
},
{
closed = 1;
nodes = (
"307 -245 OFFCURVE",
"385 -116 OFFCURVE",
"404 11 QCURVE SMOOTH",
"432 200 LINE",
"351 192 LINE",
"336 72 LINE SMOOTH",
"321 -47 OFFCURVE",
"299 -157 OFFCURVE",
"267 -218 OFFCURVE",
"240 -218 QCURVE SMOOTH",
"227 -218 OFFCURVE",
"210 -205 OFFCURVE",
"210 -193 QCURVE SMOOTH",
"210 -188 OFFCURVE",
"216 -168 OFFCURVE",
"216 -162 QCURVE SMOOTH",
"216 -147 OFFCURVE",
"194 -134 OFFCURVE",
"179 -134 QCURVE SMOOTH",
"157 -134 OFFCURVE",
"134 -160 OFFCURVE",
"134 -178 QCURVE SMOOTH",
"134 -208 OFFCURVE",
"192 -245 OFFCURVE",
"233 -245 QCURVE SMOOTH"
);
}
);
width = 504;
},
{
layerId = "EC024578-EFD3-4C50-A1DE-0E38CDD8AD0F";
paths = (
{
closed = 1;
nodes = (
"159 0 LINE",
"174 124 LINE",
"188 176 OFFCURVE",
"239 282 OFFCURVE",
"298 350 OFFCURVE",
"322 350 QCURVE SMOOTH",
"336 350 OFFCURVE",
"354 332 OFFCURVE",
"352 316 QCURVE SMOOTH",
"345 267 OFFCURVE",
"332 181 QCURVE",
"462 203 LINE",
"471 265 OFFCURVE",
"481 323 OFFCURVE",
"481 345 QCURVE SMOOTH",
"481 385 OFFCURVE",
"433 435 OFFCURVE",
"392 435 QCURVE SMOOTH",
"330 435 OFFCURVE",
"229 330 OFFCURVE",
"193 253 QCURVE",
"214 368 OFFCURVE",
"218 396 QCURVE SMOOTH",
"218 431 OFFCURVE",
"169 431 QCURVE SMOOTH",
"136 431 OFFCURVE",
"71 417 OFFCURVE",
"33 405 QCURVE",
"37 369 LINE",
"45 371 OFFCURVE",
"53 371 QCURVE SMOOTH",
"82 371 OFFCURVE",
"82 339 QCURVE SMOOTH",
"82 273 OFFCURVE",
"36 0 QCURVE"
);
},
{
closed = 1;
nodes = (
"319 -245 OFFCURVE",
"422 -72 OFFCURVE",
"443 73 QCURVE SMOOTH",
"462 203 LINE",
"332 181 LINE",
"312 36 LINE SMOOTH",
"297 -74 OFFCURVE",
"283 -170 OFFCURVE",
"262 -211 OFFCURVE",
"242 -211 QCURVE SMOOTH",
"231 -211 OFFCURVE",
"215 -197 OFFCURVE",
"215 -181 QCURVE SMOOTH",
"215 -168 OFFCURVE",
"229 -136 OFFCURVE",
"229 -128 QCURVE SMOOTH",
"229 -110 OFFCURVE",
"201 -91 OFFCURVE",
"179 -91 QCURVE SMOOTH",
"145 -91 OFFCURVE",
"108 -132 OFFCURVE",
"108 -159 QCURVE SMOOTH",
"108 -196 OFFCURVE",
"179 -245 OFFCURVE",
"230 -245 QCURVE SMOOTH"
);
}
);
width = 524;
}
);
unicode = 014B;
},
{
glyphname = nhookleft;
layers = (
{
layerId = "9A6463FA-02C3-4660-BEDA-F7CC218AE705";
paths = (
{
closed = 1;
nodes = (
"37 -245 OFFCURVE",
"117 -115 OFFCURVE",
"134 11 QCURVE SMOOTH",
"141 66 OFFCURVE",
"185 355 OFFCURVE",
"193 403 QCURVE",
"193 417 OFFCURVE",
"177 426 OFFCURVE",
"162 426 QCURVE SMOOTH",
"111 426 OFFCURVE",
"48 400 QCURVE",
"53 371 LINE",
"61 373 OFFCURVE",
"70 373 QCURVE SMOOTH",
"100 373 OFFCURVE",
"100 342 QCURVE SMOOTH",
"100 321 OFFCURVE",
"87 225 QCURVE SMOOTH",
"66 72 LINE SMOOTH",
"50 -45 OFFCURVE",
"29 -157 OFFCURVE",
"-3 -218 OFFCURVE",
"-30 -218 QCURVE SMOOTH",
"-43 -218 OFFCURVE",
"-60 -205 OFFCURVE",
"-60 -193 QCURVE SMOOTH",
"-60 -188 OFFCURVE",
"-54 -168 OFFCURVE",
"-54 -162 QCURVE SMOOTH",
"-54 -147 OFFCURVE",
"-76 -134 OFFCURVE",
"-91 -134 QCURVE SMOOTH",
"-113 -134 OFFCURVE",
"-136 -160 OFFCURVE",
"-136 -178 QCURVE SMOOTH",
"-136 -208 OFFCURVE",
"-78 -245 OFFCURVE",
"-37 -245 QCURVE SMOOTH"
);
},
{
closed = 1;
nodes = (
"380 -10 OFFCURVE",
"445 28 OFFCURVE",
"476 60 QCURVE",
"464 80 LINE",
"444 67 OFFCURVE",
"427 67 QCURVE SMOOTH",
"416 67 OFFCURVE",
"408 82 OFFCURVE",
"408 90 QCURVE SMOOTH",
"409 105 OFFCURVE",
"427 183 QCURVE SMOOTH",
"443 253 OFFCURVE",
"456 318 OFFCURVE",
"456 340 QCURVE SMOOTH",
"456 380 OFFCURVE",
"408 430 OFFCURVE",
"367 430 QCURVE SMOOTH",
"303 430 OFFCURVE",
"199 309 OFFCURVE",
"163 222 QCURVE",
"117 168 LINE",
"148 114 LINE",
"163 172 OFFCURVE",
"227 294 OFFCURVE",
"301 375 OFFCURVE",
"331 375 QCURVE SMOOTH",
"351 375 OFFCURVE",
"374 347 OFFCURVE",
"374 324 QCURVE SMOOTH",
"374 284 OFFCURVE",
"348 166 QCURVE SMOOTH",
"326 52 OFFCURVE",
"326 35 QCURVE SMOOTH",
"326 15 OFFCURVE",
"344 -10 OFFCURVE",
"358 -10 QCURVE SMOOTH"
);
}
);
width = 509;
},
{
layerId = "EC024578-EFD3-4C50-A1DE-0E38CDD8AD0F";
paths = (
{
closed = 1;
nodes = (
"54 -245 OFFCURVE",
"160 -73 OFFCURVE",
"178 73 QCURVE SMOOTH",
"191 169 OFFCURVE",
"226 396 OFFCURVE",
"226 402 QCURVE SMOOTH",
"226 420 OFFCURVE",
"205 431 OFFCURVE",
"185 431 QCURVE SMOOTH",
"119 431 OFFCURVE",
"36 405 QCURVE",
"41 369 LINE",
"49 371 OFFCURVE",
"57 371 QCURVE SMOOTH",
"87 371 OFFCURVE",
"87 344 QCURVE SMOOTH",
"87 319 OFFCURVE",
"73 224 QCURVE SMOOTH",
"47 36 LINE SMOOTH",
"34 -74 OFFCURVE",
"18 -170 OFFCURVE",
"-3 -211 OFFCURVE",
"-23 -211 QCURVE SMOOTH",
"-34 -211 OFFCURVE",
"-50 -197 OFFCURVE",
"-50 -181 QCURVE SMOOTH",
"-50 -168 OFFCURVE",
"-36 -136 OFFCURVE",
"-36 -128 QCURVE SMOOTH",
"-36 -110 OFFCURVE",
"-64 -91 OFFCURVE",
"-86 -91 QCURVE SMOOTH",
"-120 -91 OFFCURVE",
"-157 -132 OFFCURVE",
"-157 -159 QCURVE SMOOTH",
"-157 -196 OFFCURVE",
"-86 -245 OFFCURVE",
"-35 -245 QCURVE SMOOTH"
);
},
{
closed = 1;
nodes = (
"383 -10 OFFCURVE",
"470 28 OFFCURVE",
"510 60 QCURVE",
"498 88 LINE",
"478 75 OFFCURVE",
"461 75 QCURVE SMOOTH",
"450 75 OFFCURVE",
"442 90 OFFCURVE",
"442 98 QCURVE SMOOTH",
"442 117 OFFCURVE",
"463 197 QCURVE SMOOTH",
"477 257 OFFCURVE",
"491 323 OFFCURVE",
"491 345 QCURVE SMOOTH",
"491 385 OFFCURVE",
"443 435 OFFCURVE",
"402 435 QCURVE SMOOTH",
"340 435 OFFCURVE",
"239 330 OFFCURVE",
"203 253 QCURVE",
"135 201 LINE",
"184 124 LINE",
"198 176 OFFCURVE",
"249 282 OFFCURVE",
"308 350 OFFCURVE",
"332 350 QCURVE SMOOTH",
"346 350 OFFCURVE",
"362 332 OFFCURVE",
"362 316 QCURVE SMOOTH",
"362 288 OFFCURVE",
"337 178 QCURVE SMOOTH",
"312 58 OFFCURVE",
"312 35 QCURVE SMOOTH",
"312 15 OFFCURVE",
"336 -10 OFFCURVE",
"354 -10 QCURVE SMOOTH"
);
}
);
width = 534;
}
);
leftMetricsKey = j;
unicode = 0272;
},
